<svg id="Capa_1" enable-background="new 0 0 512 512" height="512" viewBox="0 0 512 512" width="512" xmlns="http://www.w3.org/2000/svg"><path id="XMLID_810_" d="m347.5 90h-183c-11.046 0-20-8.954-20-20 0-11.046 8.954-20 20-20h183c11.046 0 20 8.954 20 20 0 11.046-8.954 20-20 20z" fill="#f9f9f9"/><path id="XMLID_807_" d="m187 502h138c30.376 0 55-24.624 55-55v-302c0-30.376-24.624-55-55-55h-138c-30.376 0-55 24.624-55 55v302c0 30.376 24.624 55 55 55z" fill="#f5737f"/><path id="XMLID_806_" d="m132 379.905c34.224-34.224 89.712-34.224 123.936 0 34.224 34.224 89.712 34.224 123.936 0v-123.778c-34.224 34.224-89.712 34.224-123.936 0-34.224-34.224-89.712-34.224-123.936 0z" fill="#f9f9f9"/><path id="XMLID_773_" d="m256 156h84c5.522 0 10-4.477 10-10s-4.478-10-10-10h-84c-5.522 0-10 4.477-10 10s4.478 10 10 10z"/><path id="XMLID_789_" d="m340 184h-42c-5.522 0-10 4.477-10 10s4.478 10 10 10h42c5.522 0 10-4.477 10-10s-4.478-10-10-10z"/><path id="XMLID_1176_" d="m240 436h-56.5c-5.522 0-10 4.477-10 10s4.478 10 10 10h56.5c5.522 0 10-4.477 10-10s-4.478-10-10-10z"/><path id="XMLID_1220_" d="m365.349 94.096c7.367-5.472 12.151-14.235 12.151-24.096 0-16.542-13.458-30-30-30h-59.5v-20.667c0-10.66-8.673-19.333-19.333-19.333h-25.334c-10.66 0-19.333 8.673-19.333 19.333v20.667h-59.5c-16.542 0-30 13.458-30 30 0 9.861 4.784 18.624 12.151 24.096-15.003 11.917-24.651 30.299-24.651 50.904v111.122.01 123.768.01 67.09c0 35.841 29.159 65 65 65h138c35.841 0 65-29.159 65-65v-302c0-20.605-9.648-38.987-24.651-50.904zm-223.349 166.323c14.282-12.899 32.582-19.96 51.968-19.96 20.737 0 40.234 8.076 54.897 22.739 19.034 19.034 44.037 28.551 69.04 28.551 18.127 0 36.242-5.029 52.095-15.034v98.782c-30.433 27.576-77.638 26.692-106.992-2.663-18.441-18.441-42.96-28.597-69.04-28.597-18.676 0-36.551 5.21-51.968 14.94zm102-240.419h24v20h-24zm-57 80h24.004c5.522 0 10-4.477 10-10s-4.478-10-10-10h-46.504c-5.514 0-10-4.486-10-10s4.486-10 10-10h69.5 44 69.5c5.514 0 10 4.486 10 10s-4.486 10-10 10h-46.497c-5.522 0-10 4.477-10 10s4.478 10 10 10h23.997c24.813 0 45 20.187 45 45v106.719c-30.433 27.576-77.638 26.692-106.992-2.663-18.441-18.441-42.96-28.597-69.04-28.597-18.676 0-36.551 5.21-51.968 14.94v-90.399c0-24.813 20.187-45 45-45zm138 392h-138c-24.813 0-45-20.187-45-45v-62.803c14.282-12.899 32.582-19.96 51.968-19.96 20.737 0 40.234 8.076 54.897 22.739 19.034 19.034 44.037 28.551 69.04 28.551 18.127 0 36.242-5.029 52.095-15.034v46.507c0 24.813-20.187 45-45 45z"/><path id="XMLID_1284_" d="m256 100c2.63 0 5.21-1.07 7.069-2.93 1.861-1.86 2.931-4.44 2.931-7.07s-1.07-5.21-2.931-7.07c-1.859-1.86-4.439-2.93-7.069-2.93s-5.21 1.07-7.07 2.93-2.93 4.44-2.93 7.07 1.069 5.21 2.93 7.07 4.44 2.93 7.07 2.93z"/></svg>