<svg id="Capa_1" enable-background="new 0 0 511.978 511.978" height="512" viewBox="0 0 511.978 511.978" width="512" xmlns="http://www.w3.org/2000/svg"><path id="XMLID_876_" d="m435.199 187.285h-359.626c-22.672 0-41.051 18.379-41.051 41.051v5.898c0 22.672 18.379 41.051 41.051 41.051h359.626c22.672 0 41.051-18.379 41.051-41.051v-5.898c0-22.672-18.379-41.051-41.051-41.051z" fill="#c68a65"/><path id="XMLID_1014_" d="m39.327 127.33-18.525 18.525c-14.432 14.432-14.432 37.83 0 52.261 14.432 14.432 37.83 14.432 52.261 0 14.432-14.432 37.83-14.432 52.261 0 14.432 14.432 37.83 14.432 52.261 0 14.432-14.432 37.83-14.432 52.261 0 14.432 14.432 37.83 14.432 52.261 0 14.432-14.432 37.83-14.432 52.261 0 14.432 14.432 37.83 14.432 52.261 0 14.432-14.432 37.83-14.432 52.261 0 14.432 14.432 37.83 14.432 52.261 0 14.432-14.432 14.432-37.83 0-52.261l-18.025-18.025z" fill="#d8ec84"/><path id="XMLID_1414_" d="m448.25 275.293h-164.137c-15.464 0-28 12.536-28 28 0 15.464 12.536 28 28 28h164.137c15.464 0 28-12.536 28-28 0-15.464-12.536-28-28-28z" fill="#f6838d"/><path id="XMLID_1411_" d="m227.978 275.293h-164.137c-15.464 0-28 12.536-28 28 0 15.464 12.536 28 28 28h164.137c15.464 0 28-12.536 28-28 0-15.464-12.536-28-28-28z" fill="#f6838d"/><path id="XMLID_1408_" d="m37.16 386.454v71.539c0 9.386 7.609 16.996 16.996 16.996h403.644c9.386 0 16.996-7.609 16.996-16.996v-71.539z" fill="#ffcb7c"/><path id="XMLID_1011_" d="m457.865 36.989h-403.774c-10.003 0-18.113 8.109-18.113 18.113v59.774c0 10.003 8.109 18.113 18.113 18.113h403.774c10.003 0 18.113-8.109 18.113-18.113v-59.774c0-10.004-8.11-18.113-18.113-18.113z" fill="#ffcb7c"/><path id="XMLID_1307_" d="m34.522 331.293-13.72 13.72c-14.432 14.432-14.432 37.83 0 52.261 14.432 14.432 37.83 14.432 52.261 0 14.432-14.432 37.83-14.432 52.261 0 14.432 14.432 37.83 14.432 52.261 0 14.432-14.432 37.83-14.432 52.261 0 14.432 14.432 37.83 14.432 52.261 0 14.432-14.432 37.83-14.432 52.261 0 14.432 14.432 37.83 14.432 52.261 0 14.432-14.432 37.83-14.432 52.261 0 14.432 14.432 37.83 14.432 52.261 0 14.432-14.432 14.432-37.83 0-52.261l-13.72-13.72z" fill="#d8ec84"/><path id="XMLID_1042_" d="m411.063 331.293-131.716 98.903-159.334-98.903z" fill="#ffe6c0"/><path id="XMLID_193_" d="m484.505 324.221c-.935-.935-2.035-1.665-3.233-2.162 3.161-5.541 4.978-11.944 4.978-18.766 0-13.032-6.597-24.551-16.625-31.399 10.21-9.341 16.625-22.764 16.625-37.66v-5.897c0-4.605-.644-9.176-1.858-13.584 5.017-2.265 9.716-5.448 13.833-9.564 8.869-8.869 13.753-20.66 13.753-33.202s-4.884-24.333-13.752-33.202l-14.04-14.04c1.156-3.072 1.792-6.397 1.792-9.868v-59.775c0-15.501-12.611-28.113-28.113-28.113h-403.774c-15.501 0-28.113 12.611-28.113 28.113v59.774c0 3.471.637 6.796 1.792 9.868l-14.04 14.04c-18.307 18.308-18.307 48.097 0 66.404 3.83 3.83 8.166 6.847 12.791 9.074-1.305 4.558-2 9.296-2 14.074v5.897c0 15.177 6.665 28.821 17.213 38.18-9.614 6.902-15.894 18.167-15.894 30.879 0 6.806 1.807 13.194 4.954 18.725-1.24.498-2.381 1.24-3.344 2.203l-13.72 13.722c-18.307 18.307-18.307 48.096 0 66.403 4.007 4.007 8.564 7.136 13.43 9.389v44.259c0 14.885 12.11 26.996 26.996 26.996h403.644c14.885 0 26.996-12.11 26.996-26.996v-44.259c4.866-2.253 9.423-5.382 13.43-9.389 18.307-18.308 18.307-48.096 0-66.403zm-161.522 60.705c-.057.044-.116.084-.172.129l-44 33.039-63.764-39.581c-.068-.043-.136-.085-.205-.127l-59.758-37.094h226.007zm-277.142-81.633c0-9.925 8.075-18 18-18h164.137c9.925 0 18 8.075 18 18s-8.075 18-18 18h-164.137c-9.926 0-18-8.075-18-18zm238.272 18c-9.925 0-18-8.075-18-18s8.075-18 18-18h164.137c9.925 0 18 8.075 18 18s-8.075 18-18 18zm-256.24-168.367 13.164-13.164c3.904 2.056 8.344 3.226 13.054 3.226h156.658c5.523 0 10-4.477 10-10s-4.477-10-10-10h-156.658c-4.473 0-8.113-3.64-8.113-8.113v-59.773c0-4.473 3.64-8.113 8.113-8.113h403.774c4.473 0 8.113 3.64 8.113 8.113v59.774c0 4.473-3.64 8.113-8.113 8.113h-157.116c-5.523 0-10 4.477-10 10s4.477 10 10 10h157.116c4.71 0 9.15-1.17 13.054-3.226l13.164 13.164c10.51 10.509 10.51 27.61 0 38.119-10.51 10.51-27.61 10.509-38.12 0-18.307-18.306-48.096-18.307-66.403 0-10.51 10.51-27.61 10.509-38.12 0-18.308-18.307-48.096-18.306-66.403 0-10.51 10.51-27.61 10.509-38.12 0-18.308-18.307-48.096-18.306-66.403 0-10.51 10.51-27.61 10.509-38.12 0-18.307-18.306-48.096-18.307-66.403 0-10.51 10.51-27.61 10.509-38.12 0-5.091-5.091-7.895-11.859-7.895-19.059s2.806-13.97 7.897-19.061zm52.261 52.262c10.51-10.51 27.611-10.508 38.12 0 18.308 18.307 48.096 18.306 66.403 0 10.51-10.51 27.61-10.509 38.12 0 9.154 9.153 21.177 13.73 33.202 13.73 12.024 0 24.048-4.577 33.202-13.73 10.51-10.51 27.61-10.509 38.12 0 18.308 18.307 48.096 18.306 66.403 0 10.511-10.51 27.611-10.508 38.12 0 9.093 9.092 21.018 13.664 32.961 13.724.962 3.032 1.466 6.214 1.466 9.424v5.897c0 17.122-13.93 31.051-31.051 31.051h-359.627c-17.122 0-31.051-13.93-31.051-31.051v-5.897c0-3.217.508-6.404 1.473-9.44 12.335.244 24.747-4.317 34.139-13.708zm-52.261 146.896 10.791-10.792h78.498l65.071 40.392c-4.278 2.197-8.246 5.047-11.718 8.518-10.508 10.509-27.609 10.51-38.119 0-18.308-18.308-48.097-18.308-66.404 0-10.509 10.511-27.61 10.51-38.119 0-10.51-10.508-10.51-27.609 0-38.118zm429.927 112.905h-403.644c-3.857 0-6.996-3.138-6.996-6.996v-39.923c11.948-.057 23.878-4.629 32.974-13.725 10.51-10.51 27.61-10.51 38.12 0 8.868 8.868 20.66 13.752 33.201 13.752 12.542 0 24.333-4.884 33.202-13.752 5.67-5.671 13.614-8.504 21.559-7.774l67.857 42.121c1.62 1.006 3.449 1.504 5.273 1.504 2.12 0 4.233-.673 6.005-2.003l43.327-32.534c8.695 8.031 19.918 12.439 31.823 12.439 12.542 0 24.333-4.884 33.201-13.752 10.51-10.51 27.61-10.51 38.12 0 9.095 9.095 21.026 13.667 32.974 13.725v39.923c0 3.857-3.138 6.995-6.996 6.995zm26.283-74.786c-10.509 10.509-27.61 10.51-38.119 0-18.308-18.308-48.097-18.308-66.404 0-9.349 9.35-23.911 10.374-34.411 3.089l69.25-51.999h33.851 25.042l10.791 10.792c10.51 10.508 10.51 27.609 0 38.118z"/><path id="XMLID_1119_" d="m255.748 143.349c2.64 0 5.21-1.07 7.07-2.93s2.93-4.43 2.93-7.07c0-2.63-1.07-5.21-2.93-7.07s-4.44-2.93-7.07-2.93-5.21 1.07-7.07 2.93-2.93 4.44-2.93 7.07c0 2.64 1.07 5.21 2.93 7.07s4.44 2.93 7.07 2.93z"/></svg>