<svg id="Capa_1" enable-background="new 0 0 512 512" height="512" viewBox="0 0 512 512" width="512" xmlns="http://www.w3.org/2000/svg"><path id="XMLID_968_" d="m405.326 214-27.618 252.352c-2.22 20.286-19.356 35.648-39.763 35.648h-79.459-79.459c-20.407 0-37.542-15.362-39.763-35.648l-27.617-252.352z" fill="#dff6fc"/><path id="XMLID_2286_" d="m412 214h-312c-11.046 0-20-8.954-20-20 0-11.046 8.954-20 20-20h312c11.046 0 20 8.954 20 20 0 11.046-8.954 20-20 20z" fill="#91def5"/><path id="XMLID_2232_" d="m297.895 50h-84.789c-56.479 16.374-99.406 64.626-108.015 124h300.818c-8.609-59.374-51.536-107.626-108.014-124z" fill="#dff6fc"/><path id="XMLID_2117_" d="m397.727 283.432-20.019 182.919c-2.22 20.287-19.356 35.649-39.763 35.649h-79.459-79.459c-20.407 0-37.542-15.362-39.763-35.648l-20.019-182.919h278.482z" fill="#91def5"/><path id="XMLID_2163_" d="m278 452-40 40v-482h40z" fill="#fff"/><path id="XMLID_1023_" d="m377.145 427.976-12.272 12.272c-8.136 8.136-21.326 8.136-29.462 0l-12.271-12.272c-8.136-8.136-8.136-21.326 0-29.462l12.271-12.272c8.136-8.136 21.326-8.136 29.462 0l12.272 12.272c8.136 8.136 8.136 21.326 0 29.462z" fill="#f9f9f9"/><path id="XMLID_1021_" d="m271.719 397.62-31.07 31.07c-8.375 8.375-21.954 8.375-30.329 0l-31.07-31.07c-8.375-8.375-8.375-21.954 0-30.329l31.07-31.07c8.375-8.375 21.954-8.375 30.329 0l31.07 31.07c8.375 8.374 8.375 21.953 0 30.329z" fill="#f9f9f9"/><path id="XMLID_276_" d="m414.302 223.903c15.469-1.181 27.698-14.136 27.698-29.903 0-15.761-12.219-28.713-27.681-29.902-11.764-58.819-55.554-106.863-113.641-123.703-.904-.262-1.842-.396-2.784-.396h-9.894v-29.999c0-5.523-4.478-10-10-10h-40c-5.522 0-10 4.477-10 10v30h-14.895c-.942 0-1.88.133-2.784.396-58.116 16.848-101.922 64.933-113.659 123.794-14.976 1.666-26.662 14.397-26.662 29.81 0 16.542 13.458 30 30 30h2.681l6.616 60.453v.001l6.888 62.934c.561 5.121 4.893 8.913 9.928 8.913.364 0 .731-.02 1.101-.061 5.49-.601 9.453-5.538 8.853-11.028l-5.667-51.781h97.6v26.63c-8.869-.706-17.983 2.318-24.753 9.087l-31.07 31.071c-12.26 12.261-12.26 32.21 0 44.472l31.071 31.07c6.13 6.13 14.183 9.195 22.235 9.195.84 0 1.679-.041 2.517-.108v47.152h-48.973c-15.333 0-28.153-11.494-29.821-26.736l-3.348-30.583c-.602-5.491-5.561-9.457-11.028-8.852-5.49.601-9.454 5.539-8.853 11.028l3.348 30.583c2.779 25.403 24.147 44.56 49.702 44.56h158.918c25.555 0 46.923-19.157 49.703-44.561l20.024-182.963c.001-.013.003-.026.004-.039zm-146.302-39.903v20h-20v-20zm-20-20v-104h20v104zm20 60v49.432h-20v-49.432zm20 0h106.172l-5.41 49.432h-100.762zm134-30c0 5.514-4.486 10-10 10h-6.592c-.013 0-.026 0-.04 0h-117.368v-20h117.909 6.091c5.514 0 10 4.486 10 10zm-125.551-134c48.927 14.707 86.067 54.733 97.421 104h-105.87v-104zm-48.449-40h20v20h-20zm-33.449 40h13.449v104h-110.87c11.353-49.267 48.494-89.293 97.421-104zm-124.551 134c0-5.514 4.486-10 10-10h5.091 122.909v20h-116.405c-.01 0-.02 0-.03 0h-11.565c-5.514 0-10-4.486-10-10zm38.21 79.432-5.41-49.432h105.2v49.432zm139.79 20v55.997l-20-20v-35.997zm-20 142.049 20-20v32.377l-20 20zm-30.61-13.862-31.07-31.07c-4.463-4.463-4.463-11.725 0-16.188l31.07-31.07c2.231-2.232 5.162-3.347 8.094-3.347 2.931 0 5.862 1.116 8.094 3.347l31.07 31.07c4.463 4.463 4.463 11.725 0 16.188l-31.069 31.07c-4.465 4.463-11.727 4.463-16.189 0zm120.555 70.381h-85.803l32.929-32.929c1.875-1.875 2.929-4.419 2.929-7.071v-158.568h98.573l-9.901 90.467-4.727-4.727c-12.021-12.021-31.582-12.022-43.604 0l-12.271 12.271c-5.823 5.824-9.03 13.566-9.03 21.802s3.207 15.979 9.03 21.802l12.271 12.271c6.011 6.011 13.906 9.016 21.802 9.016 6.863 0 13.723-2.273 19.348-6.813l-1.723 15.742c-1.669 15.243-14.49 26.737-29.823 26.737zm19.858-58.824c-4.221 4.225-11.095 4.226-15.319 0l-12.271-12.271c-2.046-2.046-3.173-4.766-3.173-7.659 0-2.894 1.127-5.614 3.173-7.66l12.271-12.271c2.111-2.112 4.886-3.168 7.659-3.168 2.774 0 5.549 1.056 7.66 3.168l12.271 12.271c4.224 4.224 4.224 11.096 0 15.32z"/><path id="XMLID_1534_" d="m138.09 398.1c1.86-1.86 2.93-4.44 2.93-7.07s-1.069-5.21-2.93-7.07c-1.86-1.86-4.44-2.93-7.07-2.93s-5.21 1.07-7.069 2.93c-1.86 1.86-2.931 4.44-2.931 7.07s1.07 5.21 2.931 7.07c1.859 1.86 4.439 2.93 7.069 2.93s5.209-1.07 7.07-2.93z"/></svg>