<svg id="Capa_1" enable-background="new 0 0 512 512" height="512" viewBox="0 0 512 512" width="512" xmlns="http://www.w3.org/2000/svg"><path id="XMLID_1336_" d="m352.348 78.337h81.652c26.51 0 48 21.49 48 48v173.913c0 13.255-10.745 24-24 24-13.255 0-24-10.745-24-24v-173.913h-81.652z" fill="#91def5"/><path id="XMLID_1260_" d="m33.221 405.484 67.546-250.067c6.549-24.245 1.496-50.155-13.681-70.164l-57.086-75.253h87.151 247.64c3.683 0 6.336 3.532 5.311 7.069l-22.633 78.103c-4.133 14.263-4.271 29.386-.399 43.722l72.01 266.59c13.143 48.656-23.504 96.516-73.904 96.516h-238.05c-50.4 0-87.048-47.86-73.905-96.516z" fill="#e2f1a1"/><path id="XMLID_1168_" d="m102.25 115.465c33.42-33.42 87.605-33.42 121.025 0 33.42 33.42 87.605 33.42 121.025 0h-.004c.192-6.84 1.25-13.66 3.173-20.293l22.633-78.103c1.025-3.537-1.629-7.069-5.311-7.069h-247.64-87.151l57.086 75.254c7.04 9.28 11.901 19.83 14.437 30.895z" fill="#dff6fc"/><path id="XMLID_1387_" d="m321.563 240.623-20.476 20.476c-5.52 5.52-14.468 5.52-19.988 0l-20.476-20.476c-5.52-5.52-5.52-14.468 0-19.988l20.476-20.476c5.52-5.52 14.468-5.52 19.988 0l20.476 20.476c5.519 5.519 5.519 14.468 0 19.988z" fill="#fff"/><path id="XMLID_1386_" d="m127.091 462h-28.958c-7.805 0-14.133-6.328-14.133-14.134v-28.958c0-7.806 6.328-14.134 14.134-14.134h28.958c7.806 0 14.134 6.328 14.134 14.134v28.958c-.001 7.806-6.329 14.134-14.135 14.134z" fill="#fff"/><path id="XMLID_1165_" d="m218.656 201.758c-55.228 0-100 44.772-100 100s44.772 100 100 100z" fill="#d8ec84"/><path id="XMLID_1166_" d="m218.656 241.758c-33.137 0-60 26.863-60 60s26.863 60 60 60z" fill="#f0f7cd"/><path id="XMLID_1091_" d="m329.348 291.289c39.052 39.052 39.052 102.369 0 141.421s-102.369 39.052-141.421 0z" fill="#d8ec84"/><path id="XMLID_1164_" d="m301.064 319.574c23.431 23.431 23.431 61.421 0 84.853s-61.421 23.431-84.853 0z" fill="#f0f7cd"/><path id="XMLID_892_" d="m291.093 275.228c6.18 0 12.36-2.353 17.065-7.057l20.477-20.476c9.409-9.41 9.409-24.721 0-34.131l-20.477-20.476c-9.409-9.408-24.72-9.411-34.131 0l-20.476 20.476c-9.409 9.41-9.409 24.721 0 34.13l20.476 20.477c4.706 4.704 10.885 7.057 17.066 7.057zm-23.399-47.522 20.476-20.476c.806-.806 1.864-1.209 2.923-1.209s2.117.403 2.923 1.209l20.477 20.476c1.612 1.611 1.612 4.234 0 5.846l-20.477 20.476c-1.611 1.612-4.234 1.612-5.846 0l-20.476-20.477c-1.612-1.611-1.612-4.234 0-5.845z"/><path id="XMLID_1104_" d="m74 418.909v28.958c0 13.307 10.826 24.133 24.134 24.133h28.957c13.308 0 24.134-10.826 24.134-24.134v-28.958c0-13.307-10.826-24.133-24.134-24.133h-28.957c-13.308 0-24.134 10.827-24.134 24.134zm57.225 0v28.958c0 2.279-1.854 4.134-4.134 4.134h-28.957c-2.279 0-4.134-1.854-4.134-4.134v-28.958c0-2.279 1.854-4.133 4.134-4.133h28.957c2.279-.001 4.134 1.853 4.134 4.133z"/><path id="XMLID_1237_" d="m434 68.337h-68.343l14.051-48.487c1.371-4.734.459-9.71-2.502-13.65s-7.486-6.2-12.415-6.2h-334.791c-3.798 0-7.268 2.151-8.956 5.552-1.689 3.401-1.306 7.466.989 10.491l57.086 75.254c13.21 17.415 17.694 40.41 11.994 61.512l-22.844 84.57c-1.439 5.332 1.715 10.822 7.047 12.262 5.329 1.442 10.822-1.715 12.262-7.046l22.844-84.57c3.396-12.573 3.967-25.67 1.907-38.329 13.881-12.47 31.631-19.296 50.434-19.296 20.188 0 39.167 7.862 53.441 22.137 18.633 18.633 43.108 27.949 67.584 27.949 18.18 0 36.355-5.151 52.141-15.432.418 2.161.91 4.312 1.487 6.447l72.01 266.59c5.446 20.162 1.287 41.236-11.409 57.817-12.698 16.582-31.958 26.092-52.841 26.092h-238.05c-20.885 0-40.145-9.51-52.842-26.092s-16.855-37.655-11.409-57.816l21.233-78.607c1.439-5.332-1.715-10.822-7.047-12.262-5.329-1.442-10.821 1.715-12.262 7.046l-21.233 78.607c-7.082 26.221-1.674 53.627 14.839 75.191s41.561 33.933 68.721 33.933h238.05c27.16 0 52.207-12.368 68.72-33.932s21.921-48.971 14.839-75.192l-71.996-266.539h67.261v163.913c0 18.748 15.252 34 34 34s34-15.252 34-34v-173.913c0-31.981-26.019-58-58-58zm-203.653 40.057c-33.741-33.741-86.64-36.929-124.005-9.571-2.913-6.937-6.683-13.541-11.289-19.612l-44.915-59.211h308.704l-5.796 20h-129.771c-5.522 0-10 4.477-10 10s4.478 10 10 10h123.975l-4.447 15.346c-.006.019-.011.039-.017.059l-4.921 16.983c-1.765 6.091-2.878 12.32-3.346 18.587-13.924 12.638-31.796 19.555-50.731 19.555-20.188 0-39.167-7.862-53.441-22.136zm241.653 191.856c0 7.72-6.28 14-14 14s-14-6.28-14-14v-173.913c0-5.523-4.478-10-10-10h-79.713c.123-6.194 1.046-12.375 2.787-18.382l2.787-9.618h74.139c20.953 0 38 17.047 38 38z"/><path id="XMLID_1248_" d="m108.655 301.758c0 53.209 37.976 97.711 88.246 107.836l-16.046 16.046c-1.875 1.875-2.929 4.419-2.929 7.071s1.054 5.196 2.929 7.071c21.444 21.444 49.613 32.167 77.782 32.167s56.338-10.722 77.782-32.167c42.888-42.889 42.888-112.674 0-155.563-1.876-1.875-4.419-2.929-7.071-2.929s-5.195 1.054-7.071 2.929l-70.711 70.71-22.911 22.911v-16.082-120-40c0-5.523-4.478-10-10-10-60.654 0-110 49.346-110 110zm172.319 104.964-8.194-30.58 30.58 8.194c-2.342 4.699-5.455 9.108-9.366 13.019-3.913 3.912-8.322 7.025-13.02 9.367zm-19.325 5.154c-10.613.635-21.39-2.079-30.585-8.161l22.396-22.396zm46.865-46.864-30.557-8.188 22.396-22.396c6.081 9.194 8.795 19.971 8.161 30.584zm20.444-59.19c28.246 35.304 26.02 87.117-6.681 119.817-32.699 32.702-84.514 34.928-119.818 6.681l14.265-14.265c12.377 9.267 27.142 13.912 41.914 13.912 5.926 0 11.849-.762 17.621-2.254.166-.036.331-.054.497-.099.224-.06.438-.137.654-.211 11.26-3.115 21.893-9.072 30.727-17.907 8.795-8.795 14.739-19.372 17.865-30.576.094-.262.179-.529.252-.803.058-.218.097-.435.14-.653 5.149-20.115 1.25-42.08-11.7-59.378zm-160.303-4.064c0-5.532.917-10.851 2.583-15.83l27.418 15.83-27.418 15.83c-1.666-4.979-2.583-10.298-2.583-15.83zm40-17.321-27.397-15.818c7.056-7.953 16.595-13.654 27.397-15.856zm0 34.642v31.673c-10.802-2.201-20.341-7.902-27.397-15.856zm0-106.769v20.174c-21.396 3.075-39.689 15.858-50.27 33.732-.119.179-.242.354-.351.543-.115.199-.21.403-.31.606-5.761 10.166-9.069 21.898-9.069 34.394s3.307 24.228 9.069 34.394c.1.203.195.407.31.606.082.142.183.267.271.403 10.569 17.946 28.899 30.788 50.35 33.871v20.174c-44.937-4.991-80-43.202-80-89.448s35.064-84.458 80-89.449z"/><path id="XMLID_1690_" d="m170.74 157.07c1.859-1.86 2.93-4.44 2.93-7.07s-1.07-5.21-2.93-7.07-4.44-2.93-7.07-2.93c-2.64 0-5.21 1.07-7.07 2.93-1.87 1.86-2.93 4.44-2.93 7.07s1.06 5.21 2.93 7.07c1.86 1.86 4.44 2.93 7.07 2.93s5.21-1.07 7.07-2.93z"/><path id="XMLID_1697_" d="m251.569 294.57c-1.859 1.87-2.93 4.44-2.93 7.08 0 2.63 1.07 5.21 2.93 7.07s4.431 2.93 7.07 2.93c2.63 0 5.21-1.07 7.07-2.93 1.859-1.87 2.93-4.44 2.93-7.07s-1.07-5.21-2.93-7.08c-1.87-1.86-4.44-2.92-7.07-2.92s-5.209 1.06-7.07 2.92z"/><path id="XMLID_1754_" d="m66.189 273.43c-2.63 0-5.21 1.07-7.069 2.93-1.86 1.86-2.931 4.44-2.931 7.07 0 2.64 1.07 5.21 2.931 7.07 1.859 1.86 4.439 2.93 7.069 2.93s5.21-1.07 7.07-2.93 2.93-4.44 2.93-7.07-1.069-5.21-2.93-7.07-4.44-2.93-7.07-2.93z"/></svg>