<svg id="Capa_1" enable-background="new 0 0 512 512" height="512" viewBox="0 0 512 512" width="512" xmlns="http://www.w3.org/2000/svg"><path id="XMLID_1513_" d="m236.056 129.709c0-58.104 41.51-106.695 96.431-117.676 12.205-2.44 23.569 7.001 23.569 19.448v.402c0 9.51-6.787 17.543-16.103 19.455-36.421 7.472-63.897 39.774-63.897 78.372h-40z" fill="#d29976"/><path id="XMLID_1552_" d="m327.369 109.417c-25.716 0-49.951 5.684-71.251 16.609-21.299-10.925-45.535-16.609-71.251-16.609-84.885 0-153.698 61.826-153.698 170.235s68.813 222.348 153.698 222.348c25.716 0 49.952-10.471 71.251-28.064 21.3 17.593 45.536 28.064 71.251 28.064 84.886 0 153.699-113.94 153.699-222.349s-68.813-170.234-153.699-170.234z" fill="#d8ec84"/><path id="XMLID_1416_" d="m135.687 29.493v-19.493h19.493c45.332 0 82.081 36.749 82.081 82.081v19.493h-19.493c-45.333 0-82.081-36.749-82.081-82.081z" fill="#f0f7cd"/><path id="XMLID_314_" d="m472.487 348.137c-5.298-1.542-10.852 1.507-12.394 6.811-11.121 38.255-30.057 72.93-53.319 97.637-24.279 25.785-51.736 39.415-79.404 39.415-22.348 0-44.177-8.671-64.883-25.773-3.697-3.054-9.039-3.054-12.736 0-20.707 17.102-42.536 25.773-64.883 25.773-36.528 0-72.164-23.453-100.342-66.039-27.554-41.643-43.356-94.971-43.356-146.31 0-95.841 57.748-160.235 143.698-160.235 6.911 0 13.673.441 20.283 1.289.632.087 1.266.167 1.901.241 9.184 1.297 18.052 3.43 26.578 6.363.017.005.034.013.052.018 6.142 2.116 12.109 4.639 17.874 7.596 2.865 1.47 6.262 1.47 9.127 0 6.189-3.175 12.606-5.863 19.229-8.067.201-.061.402-.123.598-.196 14.673-4.811 30.358-7.243 46.86-7.243 81.877 0 139.534 60.186 143.471 149.764.242 5.518 4.926 9.799 10.43 9.551 5.518-.242 9.793-4.912 9.551-10.429-2.242-51.026-19.751-94.065-50.633-124.464-29.101-28.646-69.167-44.422-112.818-44.422-12.426 0-24.46 1.237-36.043 3.674 8.748-21.154 27.623-37.235 50.637-41.957 13.961-2.865 24.093-15.167 24.093-29.251v-.403c0-8.98-3.985-17.398-10.934-23.094-6.902-5.659-15.867-7.903-24.596-6.16-27.287 5.456-51.687 19.289-70.561 40.003-6.469 7.1-12.046 14.783-16.729 22.916-11.546-37.672-46.652-65.145-88.058-65.145h-19.493c-5.522 0-10 4.477-10 10v19.493c0 28.923 13.408 54.769 34.33 71.662-35.415 5.03-67.127 20.856-91.049 45.804-31.271 32.612-47.799 78.497-47.799 132.692 0 55.163 17.014 112.513 46.677 157.346 15.093 22.809 32.457 40.91 51.611 53.802 20.903 14.068 42.911 21.201 65.411 21.201 24.4 0 48.885-8.74 71.251-25.36 22.366 16.62 46.85 25.36 71.251 25.36 33.319 0 65.813-15.805 93.966-45.706 25.391-26.966 45.976-64.527 57.963-105.764 1.541-5.302-1.509-10.852-6.812-12.393zm-138.038-326.299c3.871-.778 6.671.93 7.994 2.014 2.296 1.883 3.613 4.663 3.613 7.628v.402c0 4.707-3.336 8.679-8.112 9.659-34.572 7.093-61.875 34.123-69.641 68.203-4.134 1.542-8.197 3.252-12.185 5.136-2.789-1.318-5.616-2.55-8.478-3.7 7.602-44.265 42.327-80.448 86.809-89.342zm-188.762 7.655v-9.493h9.493c38.121 0 69.405 29.752 71.9 67.252l-29.17-29.17c-3.904-3.905-10.234-3.905-14.143 0-3.905 3.905-3.905 10.237 0 14.142l29.17 29.171c-1.472-.098-2.931-.243-4.377-.428-.207-.028-.414-.052-.621-.079-35.109-4.812-62.252-34.984-62.252-71.395z"/><path id="XMLID_317_" d="m100.005 183.719c-20.173 23.329-30.836 56.502-30.836 95.932 0 5.523 4.478 10 10 10s10-4.477 10-10c0-70.278 35.775-112.235 95.698-112.235 5.522 0 10-4.477 10-10s-4.478-10-10-10c-34.981.001-64.326 12.554-84.862 36.303z"/><path id="XMLID_318_" d="m478.869 303.68c-2.641 0-5.21 1.06-7.07 2.92-1.87 1.87-2.93 4.44-2.93 7.08 0 2.63 1.06 5.21 2.93 7.07 1.86 1.86 4.43 2.93 7.07 2.93 2.63 0 5.21-1.07 7.06-2.93 1.87-1.86 2.931-4.44 2.931-7.07 0-2.64-1.061-5.21-2.931-7.08-1.85-1.86-4.43-2.92-7.06-2.92z"/></svg>