<svg id="Capa_1" enable-background="new 0 0 511.979 511.979" height="512" viewBox="0 0 511.979 511.979" width="512" xmlns="http://www.w3.org/2000/svg"><path id="XMLID_3787_" d="m463.922 48.062c50.75 50.75 50.75 133.031 0 183.78l-185.628 185.629c-21.197 21.198-55.565 21.198-76.763 0l-107.017-107.017c-21.197-21.197-21.197-55.565 0-76.763l185.628-185.629c50.75-50.749 133.031-50.749 183.78 0z" fill="#b0e7f8"/><path id="XMLID_783_" d="m267.821 60.384-10.997 10.996c-10.273 10.273-10.273 26.929 0 37.202 10.273 10.273 10.273 26.929 0 37.202l-46.527 46.527c-9.451 9.451-9.451 24.775 0 34.226 9.451 9.451 24.775 9.451 34.226 0l54.456-54.456c11.506-11.506 30.161-11.506 41.667 0 11.506 11.506 11.506 30.161 0 41.667l-80.853 80.853c-9.657 9.657-9.657 25.314 0 34.97 9.657 9.657 25.313 9.657 34.97 0l93.502-93.502c9.862-9.862 25.852-9.862 35.714 0l4.468 4.468c7.395 7.395 19.384 7.395 26.779 0l6.047-6.047 2.649-2.649c50.749-50.749 50.749-133.031 0-183.78-50.749-50.749-133.031-50.749-183.78 0l-23.318 23.319" fill="#d29976"/><path id="XMLID_3816_" d="m171.3 387.566-104.725 104.725c-12.946 12.946-33.935 12.946-46.881 0-12.946-12.946-12.946-33.935 0-46.881l104.725-104.725z" fill="#ffcb7c"/><path id="XMLID_1832_" d="m497.09 176.764c-5.165-1.959-10.938.641-12.896 5.804-6.024 15.886-15.224 30.085-27.342 42.203l-8.557 8.557-.139.139c-1.688 1.688-3.932 2.618-6.318 2.618-2.387 0-4.631-.93-6.319-2.618l-4.468-4.467c-6.659-6.658-15.512-10.325-24.929-10.325s-18.27 3.667-24.928 10.325l-93.502 93.502c-5.742 5.742-15.086 5.743-20.828 0s-5.742-15.086 0-20.829l80.853-80.853c7.454-7.454 11.559-17.364 11.559-27.905s-4.105-20.451-11.559-27.905c-15.387-15.386-40.422-15.385-55.809 0l-54.456 54.456c-5.537 5.537-14.547 5.537-20.084 0-2.682-2.682-4.16-6.249-4.16-10.042s1.478-7.359 4.16-10.042l46.526-46.527c6.857-6.857 10.634-15.975 10.634-25.672s-3.776-18.815-10.634-25.673c-3.08-3.08-4.776-7.174-4.776-11.53s1.696-8.45 4.776-11.53l10.997-10.997 12.321-12.321c22.657-22.655 52.78-35.132 84.821-35.132s62.163 12.478 84.819 35.134c13.005 13.005 22.617 28.344 28.568 45.591 1.802 5.221 7.495 7.992 12.715 6.191 5.221-1.802 7.993-7.494 6.191-12.715-6.95-20.14-18.165-38.042-33.333-53.21-26.433-26.433-61.578-40.991-98.96-40.991-37.383 0-72.528 14.558-98.961 40.991l-12.312 12.312c-.003.003-.007.006-.01.009l-10.996 10.997c-.003.003-.005.006-.008.009l-162.304 162.302c-25.062 25.063-25.062 65.842 0 90.905l22.997 22.997-97.816 97.816c-16.824 16.824-16.824 44.199 0 61.023 8.412 8.412 19.462 12.618 30.512 12.618s22.1-4.206 30.512-12.618l97.816-97.816 22.997 22.997c12.531 12.531 28.992 18.796 45.452 18.796 16.461 0 32.921-6.266 45.453-18.797l176.913-176.913c.007-.007.013-.013.02-.019l6.047-6.047c.003-.003.006-.007.009-.01l2.639-2.639c14.133-14.133 24.866-30.704 31.9-49.253 1.959-5.164-.639-10.938-5.803-12.896zm-437.586 308.455c-9.025 9.026-23.713 9.026-32.738 0-9.026-9.026-9.026-23.712 0-32.738l97.816-97.816 32.738 32.738zm211.719-74.819c-17.265 17.264-45.356 17.265-62.622 0l-107.016-107.017c-17.265-17.265-17.265-45.356 0-62.621l139.385-139.384c1.718 5.222 4.639 10.131 8.784 14.276 3.08 3.08 4.776 7.174 4.776 11.53s-1.696 8.45-4.776 11.53l-46.526 46.527c-6.46 6.46-10.018 15.049-10.018 24.184 0 9.136 3.558 17.725 10.018 24.185 13.335 13.334 35.032 13.335 48.369 0l54.456-54.456c3.676-3.676 8.563-5.701 13.762-5.701s10.086 2.025 13.763 5.701c3.676 3.676 5.701 8.563 5.701 13.762 0 5.198-2.024 10.086-5.701 13.762l-80.853 80.854c-13.54 13.54-13.54 35.572 0 49.113 6.771 6.77 15.664 10.155 24.557 10.155s17.786-3.385 24.556-10.155l93.501-93.502c5.948-5.948 15.625-5.947 21.573 0l4.467 4.467c2.179 2.179 4.647 3.96 7.314 5.323z"/><path id="XMLID_15_" d="m501.974 151.9c-2.63 0-5.21-1.06-7.07-2.93-1.86-1.86-2.93-4.43-2.93-7.07 0-2.63 1.07-5.2 2.93-7.07 1.86-1.86 4.44-2.93 7.07-2.93s5.21 1.07 7.07 2.93c1.86 1.87 2.93 4.44 2.93 7.07 0 2.64-1.07 5.21-2.93 7.07-1.86 1.87-4.44 2.93-7.07 2.93z"/></svg>