<svg id="Capa_1" enable-background="new 0 0 512 512" height="512" viewBox="0 0 512 512" width="512" xmlns="http://www.w3.org/2000/svg"><path id="XMLID_788_" d="m435 502h-112c-22.091 0-40-17.909-40-40v-334h192v334c0 22.091-17.909 40-40 40z" fill="#dff6fc"/><path id="XMLID_791_" d="m283 230.935c26.51-26.51 69.49-26.51 96 0 26.51 26.51 69.49 26.51 96 0v195.899c0 11.69-9.477 21.167-21.167 21.167h-149.666c-11.69 0-21.167-9.477-21.167-21.167z" fill="#fff"/><path id="XMLID_2077_" d="m169.635 10h-73.397c-6.242 0-11.302 5.06-11.302 11.302v33.397c.001 6.241 5.06 11.301 11.302 11.301h73.397c6.242 0 11.302-5.06 11.302-11.302v-33.396c0-6.242-5.06-11.302-11.302-11.302z" fill="#91def5"/><path id="XMLID_2076_" d="m229 190.077c0-12.703-5.043-24.886-14.021-33.872l-45.916-45.956v-44.249h-72.125v44.25l-45.916 45.956c-8.979 8.986-14.022 21.169-14.022 33.871 0 20.883 13.362 38.637 32 45.202v58.838c-17.905 1.401-32 16.363-32 34.628v138.508c0 19.191 15.556 34.747 34.746 34.747h122.508c19.19 0 34.746-15.556 34.746-34.746v-138.508c0-18.264-14.095-33.227-32-34.628v-58.838c18.638-6.566 32-24.319 32-45.203z" fill="#dff6fc"/><path id="XMLID_939_" d="m69 235.28v58.838c-17.905 1.401-32 16.363-32 34.628v138.508c0 19.19 15.556 34.746 34.746 34.746h122.508c19.19 0 34.746-15.556 34.746-34.746v-138.508c0-18.264-14.095-33.227-32-34.628v-58.838z" fill="#dff6fc"/><path id="XMLID_928_" d="m101.871 415.435c-17.262-17.262-17.262-45.25 0-62.513l31.256-31.256 31.256 31.256c17.262 17.262 17.262 45.25 0 62.512-17.262 17.264-45.25 17.264-62.512.001z" fill="#d8ec84"/><path id="XMLID_1079_" d="m179.063 106.11v-32.339c7.023-3.486 11.874-10.715 11.874-19.073v-33.396c0-11.746-9.556-21.302-21.302-21.302h-73.397c-11.746 0-21.301 9.556-21.301 21.302v33.396c0 8.408 4.909 15.673 12.001 19.134v32.278l-42.99 43.027c-10.929 10.938-16.948 25.478-16.948 40.941 0 22.085 12.603 42.086 32 51.8v43.99c-18.532 5.548-32 22.871-32 42.878v138.508c0 24.673 20.073 44.746 44.746 44.746h122.508c24.673 0 44.746-20.073 44.746-44.746v-138.508c0-20.007-13.468-37.331-32-42.878v-43.99c19.397-9.714 32-29.714 32-51.8 0-15.461-6.019-30.001-16.947-40.939zm-84.126-84.808c0-.718.584-1.302 1.302-1.302h73.396c.718 0 1.302.584 1.302 1.302v33.396c0 .718-.584 1.302-1.302 1.302h-.572-72.125-.699c-.718 0-1.302-.584-1.302-1.302zm124.063 307.444v138.508c0 13.645-11.102 24.746-24.746 24.746h-122.508c-13.644 0-24.746-11.101-24.746-24.746v-138.508c0-12.828 10.006-23.659 22.78-24.658 5.204-.408 9.22-4.75 9.22-9.97v-48.838h108v48.838c0 5.22 4.016 9.562 9.22 9.97 12.774.999 22.78 11.831 22.78 24.658zm-23.817-103.466h-124.366c-14.31-5.735-23.817-19.681-23.817-35.203 0-10.124 3.94-19.643 11.096-26.804l45.916-45.956c1.873-1.875 2.926-4.417 2.926-7.068v-34.249h52.125v34.25c0 2.651 1.053 5.193 2.926 7.068l45.916 45.956c7.155 7.161 11.095 16.681 11.095 26.804 0 15.521-9.507 29.467-23.817 35.202z"/><path id="XMLID_1433_" d="m140.198 314.596c-1.876-1.875-4.419-2.929-7.071-2.929s-5.195 1.054-7.071 2.929l-31.256 31.256c-21.134 21.134-21.134 55.521 0 76.655 10.237 10.238 23.849 15.876 38.327 15.876s28.09-5.638 38.327-15.875c21.134-21.134 21.134-55.521 0-76.655zm17.114 93.769c-6.46 6.46-15.049 10.018-24.185 10.018s-17.725-3.558-24.185-10.018c-6.461-6.46-10.019-15.049-10.019-24.185s3.558-17.725 10.019-24.186l24.185-24.185 24.185 24.186c6.461 6.46 10.019 15.049 10.019 24.185s-3.559 17.724-10.019 24.185z"/><path id="XMLID_1617_" d="m485 230.93v-102.93c0-5.523-4.478-10-10-10h-192c-5.522 0-10 4.477-10 10v102.929.01 55.061c0 5.523 4.478 10 10 10s10-4.477 10-10v-50.707c22.711-19.801 57.31-18.906 78.929 2.713 15.184 15.183 35.127 22.774 55.071 22.774 13.122 0 26.234-3.308 38-9.88v175.933c0 6.157-5.01 11.167-11.167 11.167h-149.666c-6.157 0-11.167-5.009-11.167-11.167v-50.833c0-5.523-4.478-10-10-10s-10 4.477-10 10v86c0 27.57 22.43 50 50 50h112c27.57 0 50-22.43 50-50v-231.06c0-.003 0-.006 0-.01zm-98.929-7.067c-25.173-25.172-63.422-29.455-93.071-12.894v-72.969h172v88.576c-22.711 19.801-57.31 18.907-78.929-2.713zm48.929 268.137h-112c-16.542 0-30-13.458-30-30v-6.077c3.469 1.336 7.232 2.077 11.167 2.077h149.666c3.935 0 7.698-.74 11.167-2.077v6.077c0 16.542-13.458 30-30 30z"/><path id="XMLID_1647_" d="m339 379v-112c0-5.523-4.478-10-10-10s-10 4.477-10 10v112c0 5.523 4.478 10 10 10s10-4.477 10-10z"/><path id="XMLID_1649_" d="m408.069 301.03c1.86-1.86 2.931-4.44 2.931-7.07s-1.07-5.21-2.931-7.07c-1.859-1.87-4.439-2.93-7.069-2.93s-5.21 1.06-7.07 2.93c-1.86 1.86-2.93 4.43-2.93 7.07 0 2.63 1.069 5.21 2.93 7.07s4.44 2.93 7.07 2.93 5.21-1.07 7.069-2.93z"/><path id="XMLID_1650_" d="m444.16 338.07c1.859-1.86 2.93-4.44 2.93-7.07s-1.07-5.21-2.93-7.07-4.44-2.93-7.07-2.93c-2.64 0-5.21 1.07-7.07 2.93-1.87 1.86-2.93 4.44-2.93 7.07 0 2.64 1.06 5.21 2.93 7.07 1.86 1.86 4.431 2.93 7.07 2.93 2.63 0 5.2-1.07 7.07-2.93z"/><path id="XMLID_1660_" d="m384 359c0 2.63 1.069 5.21 2.93 7.07s4.44 2.93 7.07 2.93 5.21-1.07 7.069-2.93c1.86-1.86 2.931-4.44 2.931-7.07s-1.07-5.21-2.931-7.07c-1.859-1.86-4.439-2.93-7.069-2.93s-5.21 1.07-7.07 2.93c-1.861 1.86-2.93 4.44-2.93 7.07z"/><path id="XMLID_1669_" d="m283 341c2.63 0 5.21-1.07 7.069-2.93 1.86-1.86 2.931-4.44 2.931-7.07s-1.07-5.21-2.931-7.07c-1.859-1.86-4.439-2.93-7.069-2.93s-5.21 1.07-7.07 2.93-2.93 4.44-2.93 7.07 1.069 5.21 2.93 7.07 4.44 2.93 7.07 2.93z"/></svg>