<svg id="Capa_1" enable-background="new 0 0 512.002 512.002" height="512" viewBox="0 0 512.002 512.002" width="512" xmlns="http://www.w3.org/2000/svg"><path id="XMLID_1333_" d="m40.855 247.293c24.73-15.788 57.943-12.896 79.546 8.707 24.963-24.963 65.437-24.963 90.4 0 24.963-24.963 65.437-24.963 90.4 0 24.963-24.963 65.437-24.963 90.4 0 22.284-22.284 56.919-24.658 81.856-7.157l2.21-2.093c0-41.848-28.803-76.969-67.665-86.621l-.001.006c0-44.696-36.234-80.93-80.93-80.93h-68.301c-38.247 0-69.277-30.958-69.364-69.205l-18.346 10.842-66.418 39.25c-19.991 11.813-32.255 33.307-32.255 56.527 0 13.881 4.319 26.748 11.67 37.353-28.227 9.413-48.586 36.032-48.586 67.424 0 8.84 1.614 17.303 4.563 25.11z" fill="#fff"/><path id="XMLID_1226_" d="m408.003 160.13c-6.911-1.716-14.141-2.627-21.583-2.627h-154.096c-48.964 0-88.656-39.693-88.656-88.656 0-19.719 10.415-37.971 27.391-48.003l18.347-10.842c.088 38.247 31.118 69.205 69.364 69.205h68.301c44.696 0 80.93 36.234 80.93 80.93" fill="#f9f9f9"/><path id="XMLID_1227_" d="m30.001 256.001 57.632 217.556c4.442 16.768 19.615 28.444 36.961 28.444h131.408 131.408c17.346 0 32.519-11.677 36.961-28.444l57.632-217.556c-24.963-24.963-65.437-24.963-90.4 0-24.963-24.963-65.437-24.963-90.4 0-24.963-24.963-65.437-24.963-90.4 0-24.963-24.963-65.437-24.963-90.4 0-24.965-24.964-65.439-24.964-90.402 0z" fill="#b0e7f8"/><path id="XMLID_2959_" d="m210.801 256.001c-24.963-24.963-65.436-24.963-90.4 0l39.1 245.997 42.587.003h21.746z" fill="#dff6fc"/><path id="XMLID_2957_" d="m301.201 256.001c24.963-24.963 65.436-24.963 90.4 0l-39.1 245.997-42.587.003h-21.746z" fill="#dff6fc"/><circle id="XMLID_1053_" cx="301.202" cy="118.354" fill="#f5737f" r="39.149"/><path id="XMLID_350_" d="m489.072 248.929c-1.112-1.112-2.261-2.165-3.424-3.192-.429-42.742-27.893-79.985-67.962-93.213-3.877-46.593-43.037-83.319-90.614-83.319h-14.366c4.281-13.882 17.229-24 32.497-24 5.523 0 10-4.477 10-10s-4.477-10-10-10c-26.358 0-48.351 18.988-53.056 44h-33.377c-32.659 0-59.29-26.569-59.365-59.228-.008-3.587-1.937-6.895-5.054-8.668-3.118-1.774-6.946-1.743-10.034.083l-84.763 50.091c-22.926 13.548-37.168 38.507-37.168 65.136 0 11.372 2.515 22.43 7.343 32.533-26.889 13.672-44.259 41.383-44.259 72.244 0 7.646 1.068 15.157 3.153 22.413-1.962 1.595-3.867 3.294-5.693 5.12-2.519 2.519-3.508 6.188-2.596 9.632l57.632 217.556c5.597 21.127 24.77 35.883 46.627 35.883h99.192c.013 0 .027.002.04.002.025 0 .051-.002.077-.002h64.198c.026 0 .051.002.077.002.013 0 .027-.002.04-.002h99.191c21.857 0 41.031-14.756 46.627-35.884l13.525-51.054c1.415-5.339-1.767-10.813-7.105-12.228-5.342-1.411-10.813 1.768-12.228 7.106l-13.525 51.054c-3.276 12.367-14.5 21.005-27.294 21.005h-23.193l36.725-231.059c19.757-17.619 49.469-18.162 69.835-1.618l-19.5 73.609c-1.415 5.339 1.767 10.813 7.106 12.228 5.336 1.409 10.813-1.768 12.227-7.106l21.058-79.493c.914-3.442-.075-7.112-2.594-9.631zm-92.119-100.861c-3.492-.369-7.008-.566-10.533-.566h-45.676c6.032-8.161 9.607-18.244 9.607-29.148 0-10.219-3.138-19.717-8.496-27.588 28.165 5.997 50.183 28.758 55.098 57.302zm-124.9-29.714c0-16.072 13.076-29.148 29.149-29.148 16.072 0 29.148 13.076 29.148 29.148s-13.076 29.148-29.148 29.148-29.149-13.076-29.149-29.148zm-13.283-29.149h2.89c-6.032 8.161-9.607 18.244-9.607 29.148s3.575 20.987 9.607 29.148h-29.336c-43.372 0-78.657-35.285-78.657-78.656 0-16.106 8.613-31.201 22.479-39.394.003-.002.006-.004.01-.006l5.008-2.959c7.681 35.786 39.589 62.719 77.606 62.719zm-161.471 381.79-56.073-211.671c20.365-16.545 50.078-16.001 69.835 1.618l36.726 231.058h-23.193c-12.795 0-24.019-8.637-27.295-21.005zm181.386 21.005h-45.366l-12.283-231.829c20.083-17.137 49.849-17.136 69.932.001zm-77.656-231.432 12.262 231.432h-45.253l-36.914-232.248c20.229-16.851 49.982-16.577 69.905.816zm97.683 231.432 12.262-231.433c19.923-17.393 49.676-17.666 69.905-.815l-36.914 232.248zm92.889-249.3c-26.516-20.519-63.884-20.519-90.4 0-26.516-20.519-63.885-20.519-90.4 0-26.515-20.519-63.883-20.519-90.4 0-21.346-16.519-49.721-19.72-73.81-9.643-.738-3.818-1.121-7.714-1.121-11.661 0-24.102 14.067-45.644 35.604-55.504.995 1.058 2.011 2.097 3.064 3.091 11.242 10.603 22.958 20.994 34.822 30.885 1.87 1.559 4.14 2.319 6.398 2.319 2.864 0 5.708-1.224 7.686-3.597 3.537-4.242 2.965-10.547-1.277-14.084-11.552-9.631-22.959-19.749-33.906-30.074-2.058-1.941-3.967-4.064-5.686-6.308-6.403-9.3-9.789-20.19-9.789-31.506 0-19.59 10.477-37.951 27.342-47.918l25.79-15.24c-1.211 4.989-1.851 10.149-1.851 15.385 0 54.399 44.257 98.656 98.657 98.656h154.096c6.489 0 12.939.785 19.172 2.333.017.004.033.005.05.009.065.016.129.037.195.052 30.593 7.7 53.149 32.51 58.569 62.745-23.87-9.572-51.755-6.229-72.805 10.06z"/><path id="XMLID_760_" d="m449.421 369.001c-2.63 0-5.21 1.06-7.07 2.93-1.86 1.86-2.93 4.43-2.93 7.07 0 2.63 1.07 5.2 2.93 7.069 1.86 1.86 4.44 2.931 7.07 2.931s5.2-1.07 7.07-2.931c1.86-1.869 2.93-4.439 2.93-7.069s-1.07-5.21-2.93-7.07c-1.86-1.87-4.44-2.93-7.07-2.93z"/></svg>