<svg id="Capa_1" enable-background="new 0 0 511.986 511.986" height="512" viewBox="0 0 511.986 511.986" width="512" xmlns="http://www.w3.org/2000/svg"><path id="XMLID_1434_" d="m97.37 203.629c-8.185 8.185-8.185 21.454 0 29.639l27.238 27.238c8.184 8.184 21.454 8.184 29.638 0 10.543-10.543 24.134-17.507 38.85-19.907l61.643-10.051c56.903-9.278 97.229-60.578 92.807-118.062-4.199-54.586-47.57-97.958-102.156-102.156-57.485-4.422-108.784 35.904-118.062 92.807l-10.051 61.643c-2.4 14.716-9.364 28.306-19.907 38.849z" fill="#dca98b"/><path id="XMLID_1608_" d="m93.813 229.711-28.544 28.544c-12.64-12.641-33.138-12.641-45.778 0-12.648 12.648-12.648 33.138 0 45.786 6.878 6.877 16.071 9.873 25.067 9.273-.601 8.996 2.395 18.19 9.273 25.067 12.648 12.648 33.139 12.648 45.787 0 12.64-12.64 12.64-33.139 0-45.779l28.536-28.543z" fill="#f9f9f9"/><path id="XMLID_1430_" d="m414.616 308.364c8.185-8.185 8.185-21.454 0-29.639l-27.238-27.238c-8.184-8.184-21.454-8.184-29.638 0-10.543 10.543-24.134 17.507-38.85 19.907l-61.643 10.051c-56.903 9.278-97.229 60.578-92.807 118.062 4.199 54.586 47.571 97.957 102.156 102.156 57.485 4.422 108.784-35.904 118.062-92.807l10.051-61.643c2.4-14.715 9.363-28.305 19.907-38.849z" fill="#dca98b"/><path id="XMLID_1601_" d="m418.173 282.282 28.544-28.544c12.64 12.641 33.138 12.641 45.778 0 12.648-12.648 12.648-33.138 0-45.786-6.878-6.877-16.071-9.873-25.067-9.273.601-8.996-2.395-18.19-9.273-25.067-12.648-12.648-33.139-12.648-45.787 0-12.64 12.64-12.64 33.139 0 45.779l-28.536 28.543z" fill="#f9f9f9"/><path id="XMLID_764_" d="m139.427 276.631c7.928 0 15.855-3.018 21.891-9.053 9.117-9.117 20.662-15.034 33.388-17.108l61.644-10.051c30-4.892 56.868-20.747 75.653-44.644s27.846-53.749 25.515-84.056c-2.214-28.778-14.673-55.867-35.083-76.277s-47.5-32.869-76.278-35.083c-30.312-2.329-60.159 6.73-84.056 25.515s-39.752 45.652-44.644 75.653l-10.051 61.643c-2.075 12.726-7.991 24.271-17.108 33.388-8.215 8.215-10.833 19.936-7.866 30.391l-17.999 17.999c-6.576-4.023-14.15-6.173-22.055-6.173-11.318 0-21.958 4.407-29.96 12.41-16.521 16.522-16.521 43.406 0 59.928 6.175 6.175 14.116 10.205 22.675 11.664 1.459 8.559 5.49 16.501 11.664 22.676 8.263 8.262 19.112 12.393 29.965 12.392 10.851-.001 21.704-4.132 29.964-12.392 8.002-8.002 12.409-18.642 12.409-29.961 0-7.905-2.149-15.479-6.173-22.056l17.991-17.996c2.78.79 5.646 1.191 8.514 1.191zm-34.986-65.931c12.1-12.1 19.951-27.422 22.705-44.312l10.051-61.643c8.077-49.535 50.077-84.754 99.407-84.754 2.652 0 5.329.102 8.019.309 50.014 3.847 89.106 42.939 92.953 92.953 4.057 52.731-32.247 98.915-84.445 107.426l-61.644 10.051c-16.889 2.753-32.211 10.605-44.312 22.705-4.272 4.272-11.224 4.272-15.496 0l-27.238-27.238c-4.272-4.272-4.272-11.224 0-15.497zm-11.896 74.833c-3.904 3.906-3.904 10.236.001 14.142 4.225 4.225 6.551 9.842 6.551 15.817 0 5.977-2.326 11.594-6.551 15.818-8.723 8.724-22.92 8.726-31.645 0-2.913-2.912-4.882-6.486-5.809-10.42 5.78-2.236 12.764-6.518 16.988-14.685 2.537-4.906.617-10.939-4.289-13.477-4.906-2.536-10.939-.616-13.476 4.289-2.552 4.935-9.572 6.169-10.619 6.327-6.556.384-12.632-1.871-17.135-6.374-8.724-8.724-8.724-22.92 0-31.644 4.225-4.226 9.842-6.552 15.818-6.552s11.593 2.326 15.818 6.552c1.875 1.875 4.419 2.929 7.071 2.929s5.196-1.054 7.071-2.929l21.473-21.473 20.202 20.203z"/><path id="XMLID_877_" d="m227.817 183.12c5.523 0 10-4.477 10-10v-86.132c0-5.523-4.477-10-10-10s-10 4.477-10 10v86.131c0 5.524 4.477 10.001 10 10.001z"/><path id="XMLID_1012_" d="m280.698 162.511c5.523 0 10-4.477 10-10v-44.914c0-5.523-4.477-10-10-10s-10 4.477-10 10v44.914c0 5.523 4.478 10 10 10z"/><path id="XMLID_1013_" d="m174.936 162.511c5.523 0 10-4.477 10-10v-44.914c0-5.523-4.477-10-10-10s-10 4.477-10 10v44.914c0 5.523 4.477 10 10 10z"/><path id="XMLID_1102_" d="m499.567 200.881c-6.175-6.175-14.116-10.206-22.675-11.664-1.459-8.559-5.49-16.501-11.664-22.676-16.523-16.522-43.406-16.522-59.93 0-8.002 8.002-12.409 18.643-12.409 29.96 0 7.906 2.149 15.48 6.173 22.056l-17.991 17.997c-10.458-2.973-22.184-.356-30.403 7.862-9.116 9.117-20.662 15.033-33.388 17.108l-61.644 10.051c-30 4.893-56.868 20.747-75.653 44.645-18.785 23.896-27.846 53.748-25.515 84.055 2.214 28.779 14.673 55.868 35.083 76.278 20.41 20.409 47.499 32.868 76.277 35.082 3.056.235 6.11.352 9.16.352 29.797 0 58.972-11.115 81.217-31.192 4.1-3.701 4.424-10.024.723-14.124-3.7-4.1-10.023-4.425-14.124-.724-20.771 18.748-47.567 27.893-75.442 25.747-50.014-3.847-89.106-42.938-92.953-92.952-4.057-52.732 32.247-98.915 84.445-107.426l61.644-10.052c16.889-2.755 32.212-10.605 44.311-22.705 4.272-4.271 11.225-4.271 15.496 0l27.238 27.238c4.272 4.272 4.272 11.224 0 15.496-12.1 12.101-19.951 27.424-22.705 44.313l-7.537 46.226c-.889 5.451 2.81 10.59 8.26 11.479 5.454.888 10.59-2.81 11.479-8.261l7.537-46.226c2.075-12.726 7.991-24.271 17.108-33.389 8.215-8.215 10.833-19.935 7.866-30.39l17.999-18c6.576 4.023 14.15 6.173 22.055 6.173 11.318 0 21.958-4.407 29.96-12.409 16.523-16.522 16.524-43.406.002-59.928zm-14.143 45.786c-4.225 4.225-9.842 6.551-15.818 6.551s-11.593-2.327-15.818-6.551c-1.875-1.875-4.419-2.929-7.071-2.929s-5.196 1.054-7.071 2.929l-21.473 21.473-20.202-20.202 21.47-21.477c3.904-3.905 3.904-10.236-.001-14.141-8.723-8.722-8.723-22.914 0-31.636 8.724-8.725 22.921-8.725 31.645 0 2.913 2.913 4.882 6.487 5.809 10.42-5.78 2.236-12.764 6.518-16.988 14.687-2.537 4.906-.616 10.939 4.29 13.476 1.469.759 3.038 1.119 4.585 1.119 3.62 0 7.114-1.972 8.891-5.409 2.551-4.935 9.568-6.169 10.617-6.327 6.559-.388 12.634 1.871 17.136 6.373 8.723 8.724 8.723 22.92-.001 31.644z"/><path id="XMLID_1103_" d="m274.169 338.874v86.132c0 5.522 4.477 10 10 10s10-4.478 10-10v-86.132c0-5.522-4.477-10-10-10s-10 4.477-10 10z"/><path id="XMLID_1136_" d="m221.287 359.482v44.914c0 5.522 4.477 10 10 10s10-4.478 10-10v-44.914c0-5.522-4.477-10-10-10s-10 4.478-10 10z"/><path id="XMLID_1242_" d="m327.05 359.482v44.914c0 5.522 4.477 10 10 10s10-4.478 10-10v-44.914c0-5.522-4.477-10-10-10s-10 4.478-10 10z"/><path id="XMLID_1288_" d="m376.083 427.056c-2.63 0-5.21 1.07-7.07 2.931-1.86 1.859-2.93 4.439-2.93 7.069 0 2.641 1.07 5.21 2.93 7.07 1.86 1.87 4.44 2.93 7.07 2.93s5.21-1.06 7.07-2.93c1.86-1.86 2.93-4.43 2.93-7.07 0-2.63-1.07-5.21-2.93-7.069-1.86-1.86-4.44-2.931-7.07-2.931z"/></svg>