<svg id="Capa_1" enable-background="new 0 0 512.24 512.24" height="512" viewBox="0 0 512.24 512.24" width="512" xmlns="http://www.w3.org/2000/svg"><circle id="XMLID_882_" cx="256.11" cy="256.142" fill="#fff" r="246"/><ellipse id="XMLID_1684_" cx="138.312" cy="256.269" fill="#fff" rx="77.344" ry="90.539" transform="matrix(.707 -.707 .707 .707 -140.699 172.861)"/><circle id="XMLID_1683_" cx="136.45" cy="254.407" fill="#ffcb7c" r="40.973"/><ellipse id="XMLID_921_" cx="364.002" cy="318.58" fill="#fff" rx="90.539" ry="77.344" transform="matrix(.5 -.866 .866 .5 -93.897 474.525)"/><path id="XMLID_1390_" d="m297.02 279.908c25.002-43.304 75.258-61.095 112.251-39.737.104.06.201.127.304.188l.571-.52c21.154-11.993 28.58-38.863 16.588-60.017-11.993-21.154-38.863-28.58-60.017-16.588l-2.904 1.719c-.193-.341-.388-.679-.589-1.013 12.88-12.623 16.223-32.773 6.909-49.203-9.151-16.14-27.655-23.637-44.844-19.565 1.48-12.983-6.362-25.62-19.287-29.718-14.684-4.656-30.363 3.474-35.019 18.158-.281.887-.513 1.777-.703 2.668-14.725-15.913-38.78-20.744-58.959-10.281-16.137 8.367-25.71 24.398-26.589 41.328-8.878-4.151-18.778-6.483-29.226-6.483-38.165 0-69.104 30.939-69.104 69.104l1.772 1.682c30.817-17.79 74.403-10.477 104.828 19.948 24.909 24.909 34.311 58.634 27.147 86.958 23.528-12.985 50.834-14.641 73.343-1.943 1.095-2.246 2.255-4.48 3.528-6.685z" fill="#d8ec84"/><circle id="XMLID_920_" cx="365.319" cy="316.299" fill="#ffcb7c" r="40.973"/><ellipse id="XMLID_915_" cx="248.81" cy="365.327" fill="#fff" rx="90.539" ry="77.344" transform="matrix(.5 -.866 .866 .5 -191.978 398.139)"/><circle id="XMLID_907_" cx="250.127" cy="363.046" fill="#ffcb7c" r="40.973"/><ellipse id="XMLID_881_" cx="185.95" cy="110.324" fill="#fff" rx="25.77" ry="40.601" transform="matrix(.707 -.707 .707 .707 -23.547 163.799)"/><ellipse id="XMLID_1651_" cx="185.95" cy="110.324" fill="#f0f7cd" rx="25.77" ry="40.601" transform="matrix(.707 -.707 .707 .707 -23.547 163.799)"/><path id="XMLID_880_" d="m317.426 71.453c36.089 0 65.344 29.256 65.344 65.344s-29.256 65.344-65.344 65.344z" fill="#f6838d"/><path id="XMLID_909_" d="m228.856 160.375c30.382-19.476 70.8-10.635 90.276 19.747s10.635 70.8-19.747 90.276z" fill="#f6838d"/><path id="XMLID_370_" d="m384.11 34.439c-59.219-34.19-128.207-43.272-194.258-25.574s-121.255 60.058-155.444 119.277c-34.19 59.219-43.273 128.207-25.575 194.258 17.698 66.05 60.058 121.255 119.277 155.444 40.125 23.166 84.28 34.364 128.031 34.364 72.917 0 144.694-31.12 194.693-89.811 3.582-4.204 3.077-10.516-1.127-14.098-4.205-3.581-10.516-3.076-14.097 1.127-73.739 86.561-198.856 108.048-297.5 51.097-54.592-31.519-93.643-82.41-109.959-143.301-16.315-60.89-7.942-124.488 23.576-179.081 65.066-112.695 209.687-151.445 322.383-86.381 98.637 56.949 142.587 176.042 104.503 283.178-1.85 5.204.869 10.922 6.073 12.772 5.202 1.848 10.922-.869 12.772-6.073 41.317-116.229-6.353-245.424-113.348-307.198z"/><path id="XMLID_1291_" d="m172.493 218.364c-9.627-9.628-22.428-14.93-36.044-14.93-13.615 0-26.416 5.302-36.043 14.93s-14.93 22.428-14.93 36.044c0 13.615 5.302 26.416 14.93 36.043s22.428 14.93 36.043 14.93c13.616 0 26.416-5.303 36.044-14.93 9.627-9.628 14.929-22.429 14.929-36.043.001-13.617-5.301-26.417-14.929-36.044zm-14.142 57.944c-5.85 5.851-13.628 9.072-21.901 9.072s-16.051-3.222-21.901-9.072-9.072-13.628-9.072-21.901 3.222-16.052 9.072-21.902 13.628-9.072 21.901-9.072 16.051 3.222 21.901 9.072c5.85 5.85 9.072 13.628 9.072 21.901 0 8.274-3.222 16.052-9.072 21.902z"/><path id="XMLID_1295_" d="m159.604 395.249c4.643 25.036 18.471 45.331 38.937 57.146 11.988 6.921 25.354 10.415 39.196 10.415 9.79 0 19.819-1.748 29.763-5.269 22.946-8.123 42.792-24.826 56.078-47.1 9.294 3.738 19.201 5.62 29.36 5.619 9.914 0 20.069-1.792 30.123-5.397 23.285-8.35 43.379-25.543 56.583-48.411 13.282-23.005 18.099-49.141 13.564-73.594-3.665-19.763-13.072-36.551-26.931-48.566 17.037-16.731 21.477-43.468 9.156-65.202-9.194-16.217-25.603-26.181-43.452-27.309.514-3.554.789-7.156.789-10.784 0-40.668-32.393-73.893-72.73-75.278-3.323-2.451-7.013-4.329-11.015-5.598-9.648-3.059-19.909-2.178-28.896 2.481-5.474 2.838-10.075 6.872-13.527 11.773-17.625-11.521-40.584-13.062-59.883-3.055-3.87 2.007-7.472 4.407-10.775 7.167-12.989-6.127-28.175-7.086-42.087-2.083-2.808 1.009-5.018 3.219-6.027 6.027-2.73 7.592-3.681 15.564-2.991 23.352-37.739 5.113-67.095 36.925-68.37 75.739-3.245 2.349-6.346 4.952-9.249 7.855-34.055 34.056-29.87 93.653 9.331 132.854 21.023 21.022 48.348 32.482 74.849 32.482 3.388 0 6.761-.202 10.108-.58-3.942 15.008-4.657 30.471-1.904 45.316zm101.222 43.44c-18.4 6.514-36.969 5.23-52.285-3.613-15.317-8.844-25.713-24.282-29.272-43.474-3.667-19.773.317-41.063 11.219-59.946 15.958-27.641 43.288-43.773 69.341-43.773 10.198 0 20.203 2.474 29.25 7.696 32.159 18.567 40.257 64.962 18.052 103.421-10.902 18.882-27.347 32.978-46.305 39.689zm41.098-182.86-58.769-91.678c10.315-4.247 21.663-5.264 32.792-2.83 14.441 3.159 26.788 11.753 34.766 24.198 7.978 12.446 10.632 27.253 7.473 41.694-2.114 9.665-6.665 18.389-13.173 25.495-.242.252-.481.509-.721.764-.766.806-1.551 1.596-2.368 2.357zm36.571 44.984c4.137-7.165 10.816-12.29 18.808-14.432 2.668-.715 5.376-1.069 8.067-1.069 5.367 0 10.664 1.408 15.436 4.163 7.165 4.137 12.29 10.816 14.431 18.808s1.042 16.338-3.094 23.503-10.816 12.29-18.807 14.432-16.338 1.041-23.503-3.095c-14.791-8.54-19.877-27.52-11.338-42.31zm95.048-8.508c3.667 19.774-.317 41.063-11.22 59.947-20.209 35.002-58.936 51.597-89.957 40.108 4.046-10.623 6.363-21.496 7.032-32.183.147.087.286.18.434.266 7.854 4.535 16.571 6.852 25.404 6.852 4.427 0 8.885-.582 13.275-1.759 13.151-3.524 24.144-11.959 30.951-23.75s8.616-25.527 5.092-38.68c-3.524-13.151-11.958-24.144-23.75-30.951-11.792-6.809-25.53-8.616-38.68-5.092-13.151 3.523-24.144 11.959-30.951 23.75-.775 1.342-1.47 2.708-2.109 4.088-3.665-4.291-7.801-8.196-12.393-11.633 3.427-5.677 7.358-10.901 11.715-15.598.48-.497.952-1 1.417-1.51 9.213-9.494 20.191-16.698 32.181-20.943 18.399-6.513 36.967-5.23 52.285 3.614 15.32 8.844 25.715 24.283 29.274 43.474zm-15.509-107.552c8.514 15.018 4.319 33.824-9.116 43.944-19.311-9.234-41.661-10.102-63.607-2.333-2.423.858-4.803 1.834-7.154 2.88 1.273-6.778 1.625-13.597 1.057-20.308 13.655-4.128 25.976-12.113 35.386-23.068 4.762-5.544 8.638-11.721 11.581-18.301 12.92-.89 25.298 5.623 31.853 17.186zm-45.264-47.955c0 6.268-1.04 12.302-2.951 17.941-.135.332-.253.67-.352 1.016-5.692 15.778-18.338 28.269-34.637 33.602-1.876-5.066-4.293-9.973-7.279-14.63-.041-.063-.085-.123-.125-.186v-92.182c25.759 4.72 45.344 27.336 45.344 54.439zm-207.443-47.097c11.382-2.351 23.434 1.132 31.774 9.472 8.339 8.339 11.823 20.391 9.471 31.773-11.382 2.354-23.434-1.132-31.773-9.472-8.34-8.338-11.824-20.39-9.472-31.773zm-15.046 31.387c2.605 5.307 6.078 10.232 10.375 14.529 10.434 10.434 24.558 16.038 38.908 16.038 6.21 0 12.464-1.05 18.478-3.212 2.808-1.009 5.018-3.219 6.027-6.027 6.902-19.196 2.466-40.818-11.257-55.743 1.006-.642 2.044-1.243 3.113-1.797 15.688-8.136 35.023-4.765 47.016 8.195 2.538 2.743 6.39 3.84 9.994 2.85 3.602-.992 6.351-3.909 7.127-7.563.125-.591.278-1.172.453-1.725 2.982-9.405 13.059-14.63 22.464-11.648 1.6.507 3.078 1.239 4.446 2.143v76.561c-8.076-5.669-17.275-9.734-27.205-11.907-19.661-4.3-39.819-.687-56.762 10.173-4.649 2.981-6.002 9.166-3.022 13.815l68.912 107.502c-.041.068-.082.134-.122.202-17.989-7.193-37.912-7.205-56.739-1.087.923-27.589-10.683-56.15-32.414-77.881-29.06-29.06-69.321-38.855-102.084-28.116 5.759-24.428 26.705-43.048 52.292-45.302zm-59.588 182.8c-31.402-31.401-35.588-78.311-9.33-104.568 26.256-26.258 73.167-22.073 104.568 9.33 20.639 20.639 30.156 48.452 25.418 73.507-15.033 9.174-28.399 22.557-38.181 39.499-1.205 2.087-2.315 4.207-3.38 6.342-26.148 7.424-56.763-1.777-79.095-24.11z"/><path id="XMLID_1382_" d="m275.614 318.903c-11.791-6.808-25.526-8.617-38.68-5.093-13.151 3.524-24.144 11.959-30.951 23.75s-8.616 25.527-5.092 38.68c3.524 13.151 11.958 24.144 23.75 30.951 7.854 4.535 16.57 6.851 25.403 6.851 4.427 0 8.885-.582 13.276-1.759 13.151-3.523 24.143-11.959 30.951-23.75s8.616-25.527 5.092-38.679-11.958-24.144-23.749-30.951zm1.337 59.63c-4.137 7.165-10.816 12.29-18.807 14.432-7.992 2.142-16.338 1.042-23.503-3.094-7.165-4.137-12.29-10.816-14.431-18.808-2.142-7.991-1.043-16.338 3.094-23.503s10.816-12.29 18.807-14.432c2.668-.715 5.376-1.068 8.067-1.068 5.367 0 10.664 1.408 15.437 4.163 7.165 4.137 12.29 10.815 14.431 18.807s1.041 16.337-3.095 23.503z"/><path id="XMLID_1383_" d="m469.15 369.142c-2.63 0-5.21 1.069-7.07 2.93-1.86 1.86-2.93 4.44-2.93 7.07s1.07 5.21 2.93 7.069c1.86 1.86 4.44 2.931 7.07 2.931s5.21-1.07 7.07-2.931c1.87-1.859 2.93-4.439 2.93-7.069s-1.06-5.21-2.93-7.07c-1.86-1.861-4.44-2.93-7.07-2.93z"/></svg>