<svg id="Capa_1" enable-background="new 0 0 512.001 512.001" height="512" viewBox="0 0 512.001 512.001" width="512" xmlns="http://www.w3.org/2000/svg"><g fill="#dff6fc"><path id="XMLID_1849_" d="m388.147 35.501c-12.688 0-23.961 8.094-28.016 20.116l-24.419 72.384h62.41l18.042-53.481c6.465-19.166-7.79-39.019-28.017-39.019z"/><path id="XMLID_1848_" d="m440.663 172.001h-369.326c-11.784 0-21.337-9.553-21.337-21.337v-1.326c0-11.784 9.553-21.337 21.337-21.337h369.326c11.784 0 21.337 9.553 21.337 21.337v1.326c0 11.784-9.553 21.337-21.337 21.337z"/><path id="XMLID_1847_" d="m354.048 502.001h-196.096c-11.046 0-20-8.954-20-20v-20h236.096v20c0 11.045-8.954 20-20 20z"/></g><path id="XMLID_1845_" d="m440.663 172.001-31.232 247.044c-3.104 24.549-23.984 42.956-48.728 42.956h-209.405c-24.744 0-45.625-18.407-48.728-42.956l-31.233-247.044z" fill="#f6838d"/><path id="XMLID_1814_" d="m97 353.001h87.544v-72h-99.426z" fill="#fff"/><path id="XMLID_1846_" d="m415 353.001h-87.543v-72h99.426z" fill="#fff"/><circle id="XMLID_1763_" cx="256" cy="317.001" fill="#fff" r="80"/><circle id="XMLID_1760_" cx="256" cy="317.001" fill="#f5737f" r="32"/><path id="XMLID_405_" d="m440.663 118.001h-28.614l13.59-40.285c4.124-12.224 2.173-25.246-5.352-35.726-4.341-6.045-10.081-10.592-16.634-13.367l14.054-10.653c4.401-3.336 5.265-9.609 1.928-14.01-3.337-4.402-9.61-5.264-14.01-1.928l-43.375 32.879c-70.685 53.582-158.461 83.09-247.159 83.09h-43.754c-17.279 0-31.337 14.057-31.337 31.337v1.326c0 14.158 9.44 26.147 22.355 30.019l30.293 239.616c2.691 21.29 16.595 38.792 35.303 46.875v14.828c0 16.542 13.458 30 30 30h196.097c16.542 0 30-13.458 30-30v-14.828c18.708-8.083 32.612-25.585 35.303-46.875l30.293-239.616c12.916-3.872 22.356-15.861 22.356-30.019v-1.326c0-17.28-14.057-31.337-31.337-31.337zm-33.975-46.678-15.747 46.678h-41.302l19.967-59.188c2.686-7.962 10.137-13.313 18.541-13.313 6.38 0 12.174 2.972 15.895 8.155s4.686 11.623 2.646 17.668zm-154.846 44.307c32.514-10.931 63.425-25.643 92.29-43.87l-15.599 46.241h-83.987c2.436-.772 4.87-1.556 7.296-2.371zm166.226 155.371h-84.741c-15.721-26.328-44.497-44-77.326-44s-61.605 17.672-77.326 44h-84.742l-11.252-89h346.639zm-9.103 72h-66.799c2.49-8.235 3.834-16.963 3.834-26s-1.344-17.765-3.834-26h73.373zm-312.504-52h73.373c-2.49 8.235-3.834 16.963-3.834 26s1.344 17.765 3.834 26h-66.799zm89.539 26c0-38.598 31.402-70 70-70s70 31.402 70 70-31.402 70-70 70-70-31.403-70-70zm213.51 100.79c-2.466 19.503-19.149 34.21-38.807 34.21h-59.64c-5.523 0-10 4.478-10 10s4.477 10 10 10h62.985v10c0 5.514-4.486 10-10 10h-196.096c-5.514 0-10-4.486-10-10v-10h63.111c5.523 0 10-4.478 10-10s-4.477-10-10-10h-59.765c-19.658 0-36.341-14.707-38.807-34.21l-6.927-54.79h73.11c15.721 26.328 44.497 44 77.326 44s61.605-17.672 77.326-44h73.11zm52.49-267.127c0 6.251-5.085 11.337-11.337 11.337h-369.326c-6.251 0-11.337-5.085-11.337-11.337v-1.326c0-6.251 5.085-11.337 11.337-11.337h43.755 220.62 62.41 42.542c6.251 0 11.337 5.085 11.337 11.337v1.326z"/><path id="XMLID_883_" d="m256 359.001c23.159 0 42-18.841 42-42s-18.841-42-42-42-42 18.841-42 42 18.842 42 42 42zm0-64c12.131 0 22 9.869 22 22s-9.869 22-22 22-22-9.869-22-22 9.869-22 22-22z"/><path id="XMLID_884_" d="m256.06 452.06c-2.63 0-5.21 1.07-7.07 2.931-1.86 1.859-2.93 4.439-2.93 7.069s1.07 5.21 2.93 7.07c1.87 1.87 4.44 2.93 7.07 2.93s5.21-1.06 7.07-2.93c1.87-1.86 2.93-4.44 2.93-7.07s-1.06-5.21-2.93-7.069c-1.86-1.86-4.43-2.931-7.07-2.931z"/></svg>