<svg id="Capa_1" enable-background="new 0 0 511.971 511.971" height="512" viewBox="0 0 511.971 511.971" width="512" xmlns="http://www.w3.org/2000/svg"><path id="XMLID_1098_" d="m291.986 501.972h-152c0-22.091 17.909-40 40-40h72c22.091 0 40 17.908 40 40z" fill="#dff6fc"/><path id="XMLID_1097_" d="m195.986 301.972h40v160h-40z" fill="#dff6fc"/><circle id="XMLID_3160_" cx="386.486" cy="90" fill="#d8ec84" r="80"/><path id="XMLID_2057_" d="m215.986 87.972h-170.5v21.586c0 54.353 44.062 98.414 98.414 98.414h.086v24c0 39.765 32.235 72 72 72 39.765 0 72-32.235 72-72v-24h.086c54.353 0 98.414-44.062 98.414-98.414v-21.586z" fill="#dff6fc"/><path id="XMLID_2072_" d="m49.072 135.972s333.828 0 333.828.001c-11.542 41.525-49.627 71.999-94.829 71.999h-.086v24c0 39.765-32.235 72-72 72-39.765 0-72-32.235-72-72v-24h-.085c-45.203 0-83.288-30.476-94.829-72.002" fill="#c9a0e1"/><circle id="XMLID_1305_" cx="219.819" cy="204.138" fill="#f5737f" r="28.833"/><path id="XMLID_795_" d="m386.486 0c-23.643 0-45.976 9.097-62.886 25.615-14.527 14.191-23.658 32.509-26.301 52.356h-189.504l-34.405-34.404c-3.905-3.905-10.237-3.905-14.143 0-3.905 3.905-3.905 10.237 0 14.143l20.263 20.262h-34.024c-5.523 0-10 4.477-10 10v21.586c0 56.412 43.313 102.899 98.5 107.958v14.456c0 34.627 21.586 64.289 52 76.291v143.709h-6c-27.57 0-50 22.43-50 50 0 5.522 4.477 10 10 10h152c5.523 0 10-4.478 10-10 0-27.57-22.43-50-50-50h-6v-25c0-5.522-4.477-10-10-10s-10 4.478-10 10v25h-20v-138.632c3.281.401 6.613.632 10 .632s6.719-.231 10-.632v23.632c0 5.522 4.477 10 10 10s10-4.478 10-10v-28.709c30.414-12.002 52-41.664 52-76.291v-14.449c29.471-2.684 55.57-17.217 73.487-38.778 4.942.829 9.974 1.256 15.013 1.256 49.626 0 90-40.374 90-90s-40.374-90.001-90-90.001zm-106.214 491.971h-128.573c4.127-11.641 15.249-20 28.287-20h72c13.037 0 24.159 8.36 28.286 20zm176.214-401.971c0 9.175-1.792 17.935-5.016 25.972l-44.985-25.972 44.984-25.972c3.224 8.037 5.017 16.797 5.017 25.972zm-15.043-43.277-44.957 25.957v-51.954c18.162 2.61 34.084 12.219 44.957 25.997zm-64.957-25.987v51.944l-44.856-25.898c10.914-13.766 26.843-23.407 44.856-26.046zm-54.937 43.32 24.103 13.916h-28.117c.85-4.824 2.215-9.477 4.014-13.916zm54.937 33.916v11.586c0 5.608-.531 11.093-1.534 16.414h-219.157l-28-28zm-321 0h44.024l28 28h-70.49c-1.003-5.321-1.534-10.806-1.534-16.414zm160.5 195.999c-34.187 0-62-27.813-62-62v-24c0-5.523-4.563-10-10.086-10-35.778 0-66.659-21.362-80.563-52h84.173l38.718 38.718c-3.327 5.724-5.243 12.365-5.243 19.448 0 21.413 17.42 38.833 38.833 38.833 7.083 0 13.724-1.916 19.448-5.242l28.416 28.416c-11.111 16.754-30.131 27.827-51.696 27.827zm3.833-70.999c-10.385 0-18.833-8.449-18.833-18.833s8.449-18.833 18.833-18.833 18.833 8.449 18.833 18.833-8.448 18.833-18.833 18.833zm68.167-25c-5.523 0-10 4.477-10 10v24c0 4.982-.607 9.823-1.722 14.469l-22.854-22.854c3.327-5.724 5.242-12.365 5.242-19.448 0-21.413-17.42-38.833-38.833-38.833-7.084 0-13.725 1.916-19.448 5.243l-24.576-24.576h192.837c-13.907 30.637-44.806 51.999-80.646 51.999zm98.5-37.972c-.814 0-1.627-.036-2.44-.064 7.938-15.061 12.44-32.203 12.44-50.379v-2.237l44.958 25.957c-12.83 16.257-32.689 26.723-54.958 26.723z"/><path id="XMLID_1129_" d="m235.986 371.976c-2.63 0-5.21 1.06-7.07 2.92-1.86 1.87-2.93 4.439-2.93 7.069 0 2.641 1.07 5.21 2.93 7.08 1.86 1.86 4.44 2.931 7.07 2.931s5.21-1.07 7.07-2.931c1.86-1.87 2.93-4.439 2.93-7.08 0-2.63-1.07-5.199-2.93-7.069-1.86-1.86-4.441-2.92-7.07-2.92z"/></svg>