<svg id="Capa_1" enable-background="new 0 0 512 512" height="512" viewBox="0 0 512 512" width="512" xmlns="http://www.w3.org/2000/svg"><path id="XMLID_1287_" d="m374 501.982h-236c-70.692 0-128-57.307-128-128h492c0 70.693-57.307 128-128 128z" fill="#cff1fb"/><path id="XMLID_2160_" d="m29.792 437.982c13.951-13.951 36.57-13.951 50.521 0 13.951 13.951 36.57 13.951 50.521 0 13.951-13.951 36.57-13.951 50.521 0 13.951 13.951 36.57 13.951 50.521 0 13.951-13.951 36.57-13.951 50.521 0 13.951 13.951 36.57 13.951 50.521 0 13.951-13.951 36.57-13.951 50.521 0 13.951 13.951 36.57 13.951 50.521 0 13.951-13.951 36.57-13.951 50.521 0l.257.242c-22.169 38.126-63.46 63.758-110.738 63.758h-236c-46.69 0-87.541-24.998-109.899-62.34z" fill="#fff"/><path id="XMLID_1509_" d="m117.581 295.735c0-76.465 61.967-138.419 138.419-138.419s138.419 61.955 138.419 138.419z" fill="#ffd89e"/><path id="XMLID_1464_" d="m10 373.982c0-70.478 57.115-127.581 127.581-127.581s127.581 57.104 127.581 127.581z" fill="#ffe6c0"/><path id="XMLID_1459_" d="m225.162 373.982c0-76.465 61.967-138.419 138.419-138.419s138.419 61.955 138.419 138.419z" fill="#ffe6c0"/><g fill="#d8ec84"><ellipse id="XMLID_874_" cx="323.688" cy="43.152" rx="27.054" ry="43.161" transform="matrix(.707 -.707 .707 .707 64.293 241.521)"/><ellipse id="XMLID_1090_" cx="427.589" cy="153.151" rx="43.161" ry="27.054" transform="matrix(.707 -.707 .707 .707 16.944 347.208)"/><ellipse id="XMLID_866_" cx="90" cy="117.205" rx="27.054" ry="43.161"/></g><circle id="XMLID_1043_" cx="422.269" cy="337.649" fill="#ff6977" r="36.333"/><path id="XMLID_457_" d="m387.87 227.561c-11.889-22.97-29.565-42.448-51.389-56.556-23.976-15.498-51.806-23.689-80.481-23.689-30.768 0-60.282 9.328-85.353 26.976-22.804 16.053-40.417 37.854-51.243 63.312-67.301 8.922-119.404 66.677-119.404 136.378 0 76.094 61.906 138 138 138h236c76.094 0 138-61.906 138-138 0-73.568-53.806-134.794-124.13-146.421zm-367.45 156.421h471.16c-1.17 13.879-4.758 27.078-10.331 39.182-6.673-3.681-14.199-5.646-22.03-5.646-12.214 0-23.695 4.757-32.332 13.393-4.858 4.858-11.318 7.535-18.189 7.535s-13.33-2.676-18.188-7.535c-17.828-17.828-46.836-17.828-64.664 0-4.858 4.859-11.317 7.535-18.188 7.535s-13.331-2.677-18.189-7.535c-8.636-8.636-20.118-13.393-32.331-13.393-12.214 0-23.695 4.757-32.332 13.393-4.858 4.858-11.318 7.535-18.188 7.535-6.871 0-13.331-2.677-18.189-7.535-17.828-17.826-46.835-17.826-64.663 0-4.858 4.858-11.318 7.535-18.189 7.535s-13.33-2.676-18.188-7.535c-8.637-8.636-20.119-13.393-32.332-13.393-8.54 0-16.719 2.333-23.821 6.685-5.854-12.386-9.613-25.945-10.816-40.221zm173.855-20c-4.75-26.998-28.356-47.581-56.694-47.581s-51.944 20.583-56.694 47.581h-20.221c4.924-38.069 37.527-67.581 76.915-67.581s71.991 29.512 76.915 67.581zm-20.474 0h-72.439c4.39-15.882 18.96-27.581 36.22-27.581s31.828 11.699 36.219 27.581zm248.468 0c-14.521 0-26.333-11.813-26.333-26.333 0-2.377.322-4.678.915-6.87 0-.001.001-.002.001-.003 3.031-11.197 13.275-19.461 25.417-19.461 14.521 0 26.333 11.813 26.333 26.334s-11.813 26.333-26.333 26.333zm-38.092 0h-60.997c4.49-18.136 20.896-31.623 40.401-31.623 4.308 0 8.486.644 12.491 1.906-.081 1.119-.137 2.245-.137 3.385.001 9.775 3.052 18.848 8.242 26.332zm-2.373-48.866c-5.882-1.814-12.043-2.757-18.223-2.757-30.574 0-56.006 22.384-60.799 51.623h-23.614c4.968-42.183 40.917-75.021 84.414-75.021 12.631 0 25.026 2.827 36.296 8.142-7.574 4.198-13.849 10.456-18.074 18.013zm109.809 48.866h-31.253c5.189-7.484 8.241-16.557 8.241-26.333 0-23.281-17.261-42.599-39.656-45.846-18.523-14.739-41.607-22.842-65.364-22.842-54.536 0-99.49 41.786-104.542 95.021h-23.489c5.119-66.155 60.586-118.419 128.032-118.419s122.912 52.264 128.031 118.419zm-266.475-96.15c7.815-8.609 19.018-13.721 30.862-13.721 5.524 0 10.941 1.103 15.958 3.184-10.673 8.399-20.163 18.234-28.192 29.201-5.646-6.857-11.887-13.096-18.628-18.664zm-37.861-22.181c15.879-21.801 41.264-34.938 68.723-34.938 22.146 0 42.776 8.322 58.437 23.222-8.297 2.92-16.259 6.555-23.811 10.836-10.163-6.907-22.213-10.66-34.626-10.66-18.341 0-35.654 8.265-47.258 22.088-6.831-4.129-14.008-7.665-21.465-10.548zm68.723-78.335c43.521 0 84.053 22.391 107.553 58.247-9.299.002-18.398.872-27.228 2.517-19.854-23.506-49.416-37.367-80.325-37.367-36.265 0-69.598 18.551-88.78 48.897-8.198-1.799-16.616-2.861-25.17-3.136 21.888-41.904 65.939-69.158 113.95-69.158zm-118.419 89.085c24.642 0 48.146 7.644 67.659 21.381.188.144.384.279.585.411 10.1 7.203 19.105 16.055 26.63 26.327-3.758 7.065-6.967 14.464-9.558 22.146-16.678-29.954-48.667-50.265-85.315-50.265-50.431 0-92.049 38.454-97.072 87.581h-20.08c5.092-60.17 55.686-107.581 117.151-107.581zm236.419 235.581h-236c-39.97 0-75.356-19.98-96.711-50.473 4.079-2.594 8.813-3.991 13.764-3.991 6.871 0 13.331 2.677 18.189 7.535 8.636 8.636 20.118 13.393 32.331 13.393s23.695-4.757 32.332-13.393c10.03-10.029 26.35-10.027 36.378 0 8.637 8.636 20.118 13.393 32.332 13.393 12.213 0 23.694-4.757 32.331-13.393 4.858-4.858 11.318-7.535 18.189-7.535s13.33 2.676 18.188 7.535c8.637 8.636 20.119 13.393 32.332 13.393s23.695-4.757 32.332-13.393c4.858-4.859 11.317-7.535 18.188-7.535s13.331 2.677 18.189 7.535c8.636 8.636 20.118 13.393 32.331 13.393s23.695-4.757 32.332-13.393c4.858-4.858 11.318-7.535 18.189-7.535 4.312 0 8.462 1.056 12.156 3.042-21.279 31.028-56.987 51.422-97.372 51.422z"/><path id="XMLID_1215_" d="m338.625 86.284c6.339 0 12.717-1.034 18.86-3.166 2.893-1.003 5.166-3.277 6.169-6.169 7.234-20.851 1.831-44.401-13.766-59.998-15.595-15.597-39.145-21.003-59.997-13.766-2.893 1.003-5.166 3.277-6.169 6.169-7.234 20.851-1.832 44.402 13.765 59.999 11.001 11.002 25.96 16.931 41.138 16.931zm-37.345-65.541c12.446-2.589 25.29 1.173 34.466 10.35 9.177 9.176 12.938 22.022 10.35 34.467-12.441 2.586-25.29-1.172-34.467-10.349-9.177-9.176-12.938-22.022-10.349-34.468z"/><path id="XMLID_1265_" d="m393.791 193.118c6.145 2.132 12.52 3.166 18.86 3.166 15.176 0 30.138-5.93 41.139-16.931 15.597-15.597 20.999-39.147 13.765-59.999-1.003-2.893-3.276-5.166-6.169-6.169-20.851-7.233-44.401-1.832-59.999 13.766-15.596 15.597-20.999 39.147-13.765 59.998 1.003 2.892 3.276 5.165 6.169 6.169zm21.738-52.025c9.176-9.176 22.02-12.939 34.467-10.349 2.589 12.445-1.172 25.291-10.349 34.467-9.176 9.176-22.021 12.937-34.467 10.349-2.587-12.445 1.174-25.291 10.349-34.467z"/><path id="XMLID_1539_" d="m85.638 169.363c1.378.667 2.87 1.001 4.362 1.001s2.985-.334 4.362-1.002c19.859-9.628 32.691-30.101 32.691-52.158s-12.832-42.53-32.691-52.159c-2.753-1.336-5.97-1.336-8.725 0-19.86 9.628-32.692 30.102-32.692 52.159s12.833 42.531 32.693 52.159zm4.362-83.848c10.63 6.97 17.054 18.713 17.054 31.69s-6.424 24.719-17.054 31.689c-10.63-6.97-17.055-18.712-17.055-31.689s6.424-24.72 17.055-31.69z"/><path id="XMLID_1556_" d="m320.6 120.912c-1.87 1.86-2.93 4.44-2.93 7.07s1.06 5.21 2.93 7.07c1.86 1.86 4.431 2.93 7.07 2.93 2.63 0 5.21-1.07 7.07-2.93 1.859-1.86 2.93-4.44 2.93-7.07s-1.07-5.21-2.93-7.07-4.44-2.93-7.07-2.93c-2.64 0-5.21 1.07-7.07 2.93z"/><path id="XMLID_1559_" d="m253.67 92.312c2.63 0 5.21-1.06 7.07-2.93 1.859-1.86 2.93-4.43 2.93-7.07 0-2.63-1.07-5.21-2.93-7.07-1.87-1.86-4.44-2.93-7.07-2.93s-5.21 1.07-7.07 2.93c-1.87 1.86-2.93 4.44-2.93 7.07 0 2.64 1.06 5.21 2.93 7.07 1.86 1.87 4.43 2.93 7.07 2.93z"/><path id="XMLID_1567_" d="m183.069 137.382c2.631 0 5.2-1.07 7.07-2.93 1.86-1.86 2.93-4.44 2.93-7.07s-1.069-5.2-2.93-7.07c-1.859-1.86-4.439-2.93-7.07-2.93-2.64 0-5.21 1.07-7.079 2.93-1.86 1.86-2.921 4.44-2.921 7.07 0 2.64 1.061 5.21 2.921 7.07 1.869 1.86 4.44 2.93 7.079 2.93z"/></svg>