<svg id="Capa_1" enable-background="new 0 0 512 512" height="512" viewBox="0 0 512 512" width="512" xmlns="http://www.w3.org/2000/svg"><path id="XMLID_1538_" d="m154.005 50v-20c0-11.046 8.954-20 20-20 11.046 0 20 8.954 20 20v20z" fill="#d29976"/><path id="XMLID_2316_" d="m282.049 153.046c-1.254-26.639-12.304-52.902-33.153-72.927-41.635-39.99-108.148-39.99-149.783 0-20.787 19.966-31.834 46.133-33.142 72.691-1.703 34.582-12.077 68.309-30.608 97.557-16.152 25.494-25.466 55.749-25.358 88.188.301 90.838 75.392 164.637 166.222 163.431 89.55-1.19 161.777-74.153 161.777-163.985 0-31.631-8.957-61.168-24.472-86.217-18.49-29.854-29.832-63.662-31.483-98.738z" fill="#e2f1a1"/><path id="XMLID_2315_" d="m265.103 332.402c0 50.312-40.786 91.098-91.098 91.098s-91.098-40.786-91.098-91.098 40.786-104.568 91.098-104.568 91.098 54.255 91.098 104.568z" fill="#d29976"/><path id="XMLID_2300_" d="m356.834 433.83c.518-1.935 2.154-3.36 4.141-3.618 34.035-4.416 63.694-28.802 73.128-64.01 9.126-34.06-1.417-75.481-25.955-100.164-3.13-3.149-4.272-7.769-3.123-12.057l37.433-139.7c1.854-6.92 10.32-9.618 15.752-4.947 7.872 6.767 14.807 14.853 20.435 24.164 13.958 23.089 17.607 49.425 12.355 73.754-6.838 31.681-5.629 64.689 4.039 95.624 8.428 26.964 9.519 56.576 1.563 85.881-18.811 69.289-82.893 114.665-151.646 113.211-3.223-.068-5.543-3.116-4.709-6.23z" fill="#e2f1a1"/><path id="XMLID_442_" d="m174.005 217.833c-26.673 0-52.282 13.15-72.109 37.029-18.423 22.186-28.989 50.447-28.989 77.539 0 55.746 45.353 101.099 101.099 101.099 14.692 0 28.864-3.085 42.123-9.169 5.02-2.304 7.222-8.24 4.918-13.26-2.303-5.02-8.239-7.222-13.26-4.918-10.623 4.875-21.989 7.347-33.781 7.347-44.718 0-81.099-36.381-81.099-81.099 0-43.732 35.426-94.568 81.099-94.568s81.099 50.835 81.099 94.568c0 3.871-.275 7.765-.818 11.571-.779 5.468 3.021 10.531 8.489 11.312 5.448.767 10.531-3.021 11.311-8.489.676-4.738 1.019-9.581 1.019-14.394 0-27.092-10.566-55.354-28.989-77.539-19.83-23.878-45.44-37.029-72.112-37.029z"/><path id="XMLID_454_" d="m322.034 246.518c-18.106-29.234-28.479-61.719-29.996-93.942-1.428-30.315-14.288-58.609-36.215-79.668-14.669-14.089-32.471-23.953-51.818-28.969v-13.939c0-16.542-13.458-30-30-30s-30 13.458-30 30v13.938c-19.347 5.016-37.15 14.879-51.818 28.969-21.858 20.994-34.715 49.196-36.203 79.411-1.634 33.208-11.686 65.263-29.066 92.697-17.717 27.961-27.023 60.318-26.912 93.573.154 46.605 18.665 90.395 52.123 123.302 32.911 32.369 76.11 50.111 121.876 50.11.784 0 1.57-.005 2.356-.016 45.982-.61 89.115-18.979 121.452-51.724 32.366-32.774 50.191-76.194 50.191-122.261.001-32.417-8.98-64.051-25.97-91.481zm-158.029-216.518c0-5.514 4.486-10 10-10s10 4.486 10 10v10.549c-3.309-.275-6.644-.422-10-.422s-6.691.147-10 .422zm12.09 461.986c-41.246.545-80.303-15.204-109.942-44.356-29.622-29.134-46.011-67.883-46.147-109.108-.098-29.436 8.135-58.068 23.806-82.803 19.228-30.349 30.344-65.764 32.148-102.417 1.235-25.097 11.918-48.525 30.08-65.97 18.738-17.998 43.352-26.996 67.965-26.996s49.227 8.999 67.965 26.996c18.219 17.499 28.905 41.004 30.09 66.185 1.677 35.612 13.078 71.414 32.973 103.533 15.028 24.265 22.973 52.258 22.973 80.951-.001 83.795-68.148 152.873-151.911 153.985z"/><path id="XMLID_467_" d="m504.584 299.891c-9.036-28.909-10.354-60.214-3.81-90.531 6.01-27.839 1.189-56.618-13.572-81.037-6.058-10.021-13.618-18.962-22.474-26.575-5.151-4.429-12.112-5.873-18.627-3.863-6.556 2.024-11.529 7.185-13.304 13.806l-37.434 139.702c-2.077 7.76.103 16.073 5.691 21.694 21.746 21.874 31.582 59.946 23.389 90.526-8.143 30.385-33.561 52.634-64.755 56.682-6.03.782-10.942 5.079-12.515 10.947l-16.588 61.907c-1.195 4.461-.29 9.137 2.481 12.83 2.781 3.704 7.037 5.886 11.675 5.984 1.124.023 2.243.035 3.366.035 34.679-.001 69.117-11.319 97.32-32.053 29.629-21.78 51.229-53.236 60.822-88.571 8.191-30.156 7.615-61.791-1.665-91.483zm-17.633 86.244c-16.735 61.641-71.842 104.381-135.341 105.828l14.021-52.33c37.716-6.217 68.178-33.7 78.131-70.844 10.079-37.618-1.649-82.771-28.523-109.802-.576-.58-.794-1.529-.556-2.419l37.343-139.364c7.102 6.166 13.177 13.385 18.061 21.465 12.111 20.034 16.066 43.64 11.139 66.471-7.272 33.688-5.796 68.515 4.269 100.717 8.139 26.046 8.643 53.806 1.456 80.278z"/><path id="XMLID_468_" d="m246.955 376.97c-2.631 0-5.2 1.061-7.07 2.93-1.86 1.86-2.92 4.431-2.92 7.07 0 2.63 1.06 5.2 2.92 7.07 1.87 1.859 4.439 2.93 7.07 2.93 2.64 0 5.22-1.07 7.08-2.93 1.859-1.87 2.93-4.44 2.93-7.07 0-2.64-1.07-5.21-2.93-7.07-1.861-1.87-4.441-2.93-7.08-2.93z"/></svg>