<svg id="Capa_1" enable-background="new 0 0 512.094 512.094" height="512" viewBox="0 0 512.094 512.094" width="512" xmlns="http://www.w3.org/2000/svg"><circle id="XMLID_1703_" cx="256" cy="256.094" fill="#fff" r="246"/><path id="XMLID_1142_" d="m221.687 335.045h-70.248c-22.575 0-40.876-18.301-40.876-40.876v-158.248c0-22.575 18.301-40.876 40.876-40.876h70.248c22.575 0 40.876 18.301 40.876 40.876v158.248c0 22.575-18.301 40.876-40.876 40.876z" fill="#ff9d6c"/><path id="XMLID_1811_" d="m221.687 335.045h-70.248c-22.575 0-40.876-18.301-40.876-40.876v-158.248c0-22.575 18.301-40.876 40.876-40.876h70.248c22.575 0 40.876 18.301 40.876 40.876v158.248c0 22.575-18.301 40.876-40.876 40.876z" fill="#ff9d6c"/><path id="XMLID_1902_" d="m257.154 118.057.255-2.003c-6.983-12.53-20.36-21.009-35.722-21.009h-35.294l-1.358.35c-12.996 10.702-21.282 26.916-21.282 45.066 0 30.487-23.381 55.513-53.19 58.125v56.193c10.524-14.128 27.358-23.279 46.329-23.279h8.479c27.202 0 49.254-22.052 49.254-49.254v-8.479c0-26.623 18.02-49.037 42.529-55.71z" fill="#ffb48e"/><path id="XMLID_858_" d="m373.717 349.766h-70.248c-22.575 0-40.876-18.301-40.876-40.876v-158.248c0-22.575 18.301-40.876 40.876-40.876h70.248c22.575 0 40.876 18.301 40.876 40.876v158.248c0 22.576-18.301 40.876-40.876 40.876z" fill="#ff9d6c"/><path id="XMLID_1903_" d="m410.742 133.319c-6.521-13.913-20.644-23.553-37.025-23.553h-34.699l-2.809 1.07c-12.502 10.702-20.426 26.599-20.426 44.346 0 30.487-23.381 55.513-53.19 58.125v51.403l4.277 1.682c10.645-11.338 25.769-18.419 42.548-18.419 32.226 0 58.35-26.124 58.35-58.35 0-26.905 18.208-49.556 42.974-56.304z" fill="#ffb48e"/><path id="XMLID_1904_" d="m414.593 308.89v-86.519c0 35.383-28.683 64.066-64.066 64.066-17.755 0-33.823 7.222-45.427 18.89l34.881 44.44h33.736c22.575-.001 40.876-18.301 40.876-40.877z" fill="#ffb48e"/><path id="XMLID_1717_" d="m207.115 438.488c-53.27 0-96.455-43.184-96.455-96.455s43.184-96.455 96.455-96.455z" fill="#d8ec84"/><path id="XMLID_1716_" d="m207.115 280.642c-33.906 0-61.392 27.486-61.392 61.392s27.486 61.392 61.392 61.392z" fill="#f0f7cd"/><path id="XMLID_1769_" d="m376.904 377.13c-37.668 37.668-98.74 37.668-136.407 0s-37.668-98.74 0-136.407z" fill="#d8ec84"/><path id="XMLID_1768_" d="m265.289 265.516c-23.975 23.975-23.975 62.846 0 86.821s62.846 23.975 86.821 0z" fill="#f0f7cd"/><path id="XMLID_860_" d="m466.99 111.036c-3.134-4.547-9.358-5.693-13.909-2.56-4.547 3.134-5.693 9.361-2.56 13.909 64.523 93.63 52.897 220.045-27.644 300.586-92.016 92.018-241.738 92.018-333.754 0-44.575-44.575-69.123-103.839-69.123-166.877s24.548-122.303 69.123-166.877c80.539-80.541 206.955-92.168 300.585-27.644 4.547 3.132 10.773 1.988 13.909-2.56 3.134-4.547 1.987-10.774-2.56-13.909-101.579-70-238.713-57.394-326.077 29.97-48.351 48.352-74.98 112.639-74.98 181.02 0 68.38 26.629 132.667 74.98 181.02 48.353 48.352 112.64 74.98 181.02 74.98s132.667-26.629 181.02-74.98c87.364-87.366 99.969-224.501 29.97-326.078z"/><path id="XMLID_861_" d="m255.52 431.413c-1.859 1.86-2.93 4.44-2.93 7.08 0 2.631 1.07 5.21 2.93 7.061 1.86 1.87 4.44 2.93 7.07 2.93s5.21-1.06 7.07-2.93c1.859-1.86 2.93-4.43 2.93-7.061 0-2.64-1.07-5.21-2.93-7.08-1.86-1.859-4.431-2.92-7.07-2.92-2.63 0-5.21 1.061-7.07 2.92z"/><path id="XMLID_862_" d="m301.63 441.023c-1.86 1.86-2.93 4.44-2.93 7.07s1.069 5.21 2.93 7.069c1.86 1.86 4.439 2.931 7.07 2.931 2.63 0 5.21-1.07 7.069-2.931 1.86-1.859 2.931-4.439 2.931-7.069s-1.07-5.21-2.931-7.07c-1.859-1.86-4.439-2.93-7.069-2.93-2.63.001-5.209 1.07-7.07 2.93z"/><path id="XMLID_863_" d="m343.531 421.023c-1.86 1.86-2.931 4.44-2.931 7.07s1.07 5.21 2.931 7.069c1.859 1.86 4.439 2.931 7.069 2.931s5.21-1.07 7.07-2.931c1.859-1.859 2.93-4.439 2.93-7.069 0-2.641-1.07-5.21-2.93-7.07s-4.44-2.93-7.07-2.93-5.21 1.07-7.069 2.93z"/><path id="XMLID_867_" d="m373.717 99.767h-70.248c-13.892 0-26.495 5.602-35.686 14.659-8.117-17.337-25.723-29.38-46.096-29.38h-70.248c-28.053 0-50.876 22.823-50.876 50.876v62.49.068 95.689c0 6.713 1.362 13.391 3.925 19.559-2.49 9.017-3.827 18.508-3.827 28.307 0 58.699 47.756 106.454 106.455 106.454 5.522 0 10-4.478 10-10v-75.217c4.49 7.536 9.945 14.565 16.31 20.929 20.754 20.753 48.015 31.13 75.274 31.13 27.261 0 54.521-10.377 75.275-31.13 3.905-3.905 3.905-10.237 0-14.143l-10.292-10.292h.034c28.053 0 50.876-22.823 50.876-50.876v-158.247c0-7.427-1.613-14.48-4.486-20.848-.151-.401-.328-.786-.524-1.157-8.22-17.066-25.69-28.871-45.866-28.871zm30.876 50.876v71.729c0 29.812-24.254 54.065-54.066 54.065-16.477 0-32.111 5.353-44.961 15.213l-24.501-24.501c8.178-5.958 17.973-9.176 28.352-9.176 37.688 0 68.351-30.662 68.351-68.351 0-18.46 10.54-35.062 26.534-43.161.187 1.369.291 2.763.291 4.182zm-207.477 241.798c-11.313-2.24-21.294-8.208-28.624-16.561l28.624-16.526zm-41.392-50.407c0-5.786.975-11.345 2.746-16.539l28.646 16.539-28.646 16.538c-1.771-5.193-2.746-10.752-2.746-16.538zm41.392-17.32-28.624-16.526c7.329-8.354 17.311-14.321 28.624-16.562zm10-89.135c-7.047 0-13.934.695-20.602 2.008 22.26-8.533 38.112-30.115 38.112-55.341v-8.479c0-18.706 10.961-35.479 27.458-43.226.309 1.749.479 3.544.479 5.38v102.725l-4.995-4.995c-3.906-3.905-10.236-3.905-14.143 0-6.364 6.364-11.82 13.394-16.31 20.93v-9.002c.001-5.523-4.477-10-9.999-10zm50.192 73.348c0-10.332 3.03-20.197 8.667-28.584l23.407 23.407-31.952 8.562c-.072-1.123-.122-2.25-.122-3.385zm37.25 14.142-8.567 31.974c-4.982-2.459-9.587-5.733-13.63-9.777-4.044-4.043-7.318-8.647-9.777-13.629zm19.318 5.176 23.407 23.407c-8.387 5.636-18.252 8.667-28.583 8.667-1.135 0-2.262-.05-3.385-.123zm81.434-199.644c-22.63 11.447-37.542 34.921-37.542 61.021 0 26.661-21.69 48.351-48.351 48.351-13.112 0-25.91 3.835-36.824 10.802v-26.936c13.423-3.041 25.662-10.085 35.128-20.365 11.647-12.647 18.062-29.087 18.062-46.291 0-13.481 5.614-26.271 15.453-35.416h32.481c8.399 0 16.021 3.374 21.593 8.834zm-91.841-8.834h12.211c-6.404 10.564-9.898 22.775-9.898 35.416 0 21.056-13.906 39.458-33.189 45.899v-50.439c0-17.025 13.851-30.876 30.876-30.876zm-61.088-6.74c-22.733 11.24-37.756 34.665-37.756 60.74v8.479c0 21.645-17.609 39.254-39.254 39.254h-8.479c-12.972 0-25.576 3.793-36.329 10.617v-25.001c13.424-3.041 25.663-10.085 35.129-20.365 11.647-12.647 18.062-29.087 18.062-46.291 0-13.524 5.595-26.271 15.44-35.416h32.493c7.954.001 15.214 3.026 20.694 7.983zm-90.942-7.982h12.196c-6.398 10.547-9.881 22.738-9.881 35.416 0 21.056-13.906 39.458-33.19 45.899v-50.439c-.001-17.025 13.849-30.876 30.875-30.876zm-30.876 153.233c9.091-10.698 22.158-16.778 36.329-16.778h8.479c2.92 0 5.79-.221 8.598-.631-21.704 7.129-40.351 21.057-53.407 39.258v-21.849zm.098 83.756c0-44.29 33.476-80.909 76.455-85.88v15.203c-21.902 3.085-40.637 16.138-51.462 34.417-.124.186-.252.368-.365.564-.119.207-.22.419-.323.63-5.872 10.366-9.242 22.326-9.242 35.066s3.371 24.702 9.243 35.068c.103.21.202.422.321.627.085.147.189.276.281.418 10.812 18.355 29.586 31.471 51.547 34.563v15.202c-42.98-4.97-76.455-41.588-76.455-85.878zm126.907 28.025c-16.329-16.328-25.322-38.039-25.322-61.132 0-19.726 6.563-38.444 18.653-53.66l10.745 10.745c-9.296 12.307-14.336 27.221-14.336 42.915 0 19.069 7.426 36.997 20.91 50.481s31.412 20.91 50.482 20.91c15.693 0 30.607-5.039 42.914-14.336l10.741 10.741c-33.908 26.878-83.47 24.653-114.787-6.664zm157.025-61.168c0 17.025-13.851 30.876-30.876 30.876h-20.034l-33.806-33.806c8.946-6.185 19.535-9.524 30.65-9.524 21.314 0 40.541-9.061 54.066-23.52z"/><path id="XMLID_1462_" d="m429.951 92.144c2.63 0 5.21-1.07 7.069-2.93 1.86-1.86 2.931-4.44 2.931-7.07s-1.07-5.21-2.931-7.07c-1.859-1.86-4.439-2.93-7.069-2.93-2.631 0-5.21 1.07-7.07 2.93s-2.93 4.44-2.93 7.07 1.069 5.21 2.93 7.07c1.86 1.86 4.439 2.93 7.07 2.93z"/></svg>