<svg id="Capa_1" enable-background="new 0 0 512.003 512.003" height="512" viewBox="0 0 512.003 512.003" width="512" xmlns="http://www.w3.org/2000/svg"><path id="XMLID_1975_" d="m385.873 228.583c19.659 29.099 31.138 64.178 31.138 101.938v42.04c0 23.47 19.026 42.496 42.496 42.496 23.47 0 42.496-19.026 42.496-42.496v-61.993c0-44.532-17.927-84.877-46.959-114.211z" fill="#ffcb7c"/><path id="XMLID_1431_" d="m58.467 404.081-19.54-13.825c-31.511-22.296-38.37-66.22-15.156-97.061 10.441-13.872 14.629-31.468 11.556-48.556l-.255-1.42c-7.213-40.113 22.969-77.239 63.709-78.366l1.416-.039c16.724-.463 31.795-10.209 39.078-25.271l4.474-9.253c15.714-32.497 56.665-43.391 86.449-22.998l2.738 1.875c17.331 11.867 39.831 13.086 58.343 3.162l2.924-1.568c31.814-17.054 71.348-1.798 83.456 32.208l1.148 3.224c7.037 19.763 24.518 33.943 45.307 36.754 36.863 4.984 59.937 42.465 47.786 77.623l-1.655 4.788c-6.304 18.239-4.202 38.334 5.738 54.875l1.261 2.098c13.706 22.806 5.059 52.455-18.759 64.316l-30.005 14.943" fill="#e2f1a1"/><g fill="#f6838d"><path id="XMLID_805_" d="m52.365 330.522c0-42.383 14.464-81.386 38.722-112.348-1.266-.261-2.544-.494-3.841-.679-34.223-4.879-65.92 18.909-70.799 53.131-4.008 28.116 11.34 54.515 35.919 65.751v-5.855z"/><path id="XMLID_804_" d="m195.001 152.544c-3.76-5.779-8.529-11.04-14.306-15.482-27.402-21.073-66.7-15.943-87.773 11.46-16.449 21.389-16.929 50.024-3.317 71.584 25.637-33.633 62.696-58.082 105.396-67.562z"/><path id="XMLID_803_" d="m234.688 148.199c31.153 0 60.477 7.821 86.127 21.594.678-6.111.479-12.422-.747-18.777-6.549-33.943-39.374-56.149-73.316-49.601-26.249 5.064-45.465 25.847-49.805 50.704 12.178-2.562 24.801-3.92 37.741-3.92z"/><path id="XMLID_801_" d="m407.461 272.139c5.511-4.231 10.416-9.442 14.409-15.605 18.797-29.011 10.516-67.768-18.495-86.565-23.641-15.317-53.75-12.65-74.259 4.558 36.42 22.094 64.486 56.581 78.345 97.612z"/><path id="XMLID_800_" d="m477.746 303.949c-12.835-26.286-42.712-38.686-69.824-30.393 5.891 17.924 9.089 37.07 9.089 56.966v42.04c0 5.506 1.059 10.761 2.964 15.59 10.252.895 20.87-.883 30.791-5.728 29.12-14.22 41.2-49.355 26.98-78.475z"/></g><path id="XMLID_1112_" d="m459.507 415.057h-378.506c-15.815 0-28.635-12.821-28.635-28.635v-55.9c0-100.694 81.629-182.323 182.323-182.323 100.694 0 182.323 81.629 182.323 182.323v42.04c-.001 23.469 19.025 42.495 42.495 42.495z" fill="#ffd89e"/><circle id="XMLID_1860_" cx="127.254" cy="327.085" fill="#ffedd1" r="24"/><circle id="XMLID_1858_" cx="216.133" cy="222.088" fill="#ffedd1" r="20"/><circle id="XMLID_1857_" cx="342.961" cy="331.217" fill="#ffedd1" r="24"/><path id="XMLID_516_" d="m93.254 327.084c0 18.748 15.252 34 34 34s34-15.252 34-34-15.252-34-34-34-34 15.252-34 34zm48 0c0 7.72-6.28 14-14 14s-14-6.28-14-14 6.28-14 14-14 14 6.281 14 14z"/><path id="XMLID_517_" d="m304.813 261.278c1.87-1.859 2.931-4.43 2.931-7.07 0-2.63-1.061-5.21-2.931-7.07-1.859-1.86-4.43-2.93-7.06-2.93-2.641 0-5.221 1.07-7.08 2.93-1.86 1.86-2.93 4.44-2.93 7.07 0 2.64 1.069 5.21 2.93 7.07 1.87 1.87 4.439 2.931 7.08 2.931 2.63-.001 5.201-1.061 7.06-2.931z"/><path id="XMLID_518_" d="m211.843 303.618c-2.64 0-5.21 1.061-7.07 2.931-1.87 1.859-2.93 4.43-2.93 7.069 0 2.631 1.06 5.2 2.93 7.07 1.86 1.86 4.44 2.93 7.07 2.93s5.2-1.069 7.07-2.93c1.859-1.87 2.93-4.45 2.93-7.07 0-2.63-1.07-5.21-2.93-7.069-1.87-1.871-4.44-2.931-7.07-2.931z"/><path id="XMLID_521_" d="m462.152 189.323c-1.019-1.03-2.208-1.784-3.476-2.278-9.506-7.444-20.901-12.343-33.218-14.008-1.197-.162-2.389-.384-3.572-.64-3.879-4.053-8.246-7.693-13.073-10.821-4.605-2.984-9.48-5.383-14.516-7.214-2.555-3.532-4.596-7.395-6.066-11.527l-1.147-3.221c-6.75-18.955-21.387-33.981-40.159-41.226-17.114-6.605-36.023-6.086-52.675 1.261-14.984-8.477-32.299-11.351-49.39-8.052-4.921.949-9.651 2.393-14.151 4.259-14.516-8.212-31.27-10.876-47.794-7.457-16.541 3.423-30.855 12.476-40.891 25.7-2.949.027-5.912.21-8.881.598-19.228 2.51-36.325 12.358-48.146 27.729-3.974 5.167-7.162 10.775-9.56 16.649-30.611 10.638-51.45 39.903-51.415 72.36-9.096 10.271-15.398 23.21-17.476 37.779-1.436 10.073-.675 20.142 1.974 29.618-8.134 15.964-10.555 34.229-6.78 51.928 4.12 19.315 15.276 36.241 31.413 47.658l18.504 13.093c7.091 8.282 17.611 13.546 29.344 13.546h110.133c5.522 0 10-4.478 10-10s-4.478-10-10-10h-110.134c-10.275 0-18.635-8.359-18.635-18.635v-55.9c0-95.019 77.304-172.323 172.322-172.323 95.02 0 172.323 77.304 172.323 172.323v42.039c0 12.264 4.239 23.55 11.313 32.496h-137.194c-5.522 0-10 4.478-10 10s4.478 10 10 10h178.378c28.946 0 52.496-23.55 52.496-52.496v-61.992c0-45.703-17.704-88.763-49.851-121.246zm29.851 125.274c-1.149-5.097-2.881-10.142-5.271-15.036-2.702-5.533-6.086-10.565-10.007-15.036.207-5.414 1.194-10.749 2.975-15.901l1.654-4.787c.604-1.745 1.108-3.509 1.567-5.278 5.964 16.459 9.082 34.001 9.082 52.01zm-64.474 63.703c-.334-1.865-.518-3.78-.518-5.739v-42.039c0-17.039-2.239-33.564-6.417-49.306 19.781-1.792 39.223 8.805 48.167 27.121 11.777 24.119 1.737 53.323-22.382 65.101-5.909 2.884-12.342 4.524-18.85 4.862zm30.345-162.614c7.718 12.536 9.386 27.705 4.577 41.618l-1.654 4.787c-.883 2.556-1.608 5.147-2.209 7.762-8.534-4.782-18.052-7.738-27.897-8.579 10.2-16.13 13.633-35.248 9.638-53.942-.739-3.461-1.723-6.829-2.925-10.091 8.353 4.004 15.478 10.335 20.47 18.445zm-118.151-98.639c13.33 5.145 23.725 15.815 28.519 29.278l1.147 3.22c.053.148.113.292.167.44-13.362-.037-26.713 3.564-38.384 10.756-.118-3.888-.542-7.774-1.284-11.62-2.512-13.02-8.393-24.835-16.993-34.481 8.896-1.699 18.183-.929 26.828 2.407zm-152.757-9.063c7.825-1.621 15.725-1.308 23.181.803-7.649 6.849-13.818 15.307-18.013 24.886-1.705-1.592-3.485-3.109-5.343-4.537-6.399-4.922-13.444-8.664-20.869-11.197 6.013-4.898 13.169-8.325 21.044-9.955zm-116.877 75.761c-.321 7.84.604 15.733 2.808 23.341-9.24.702-18.101 3.152-26.177 7.087 4.02-12.477 12.295-23.307 23.369-30.428zm-49.072 140.063c5.729 7.455 12.933 13.845 21.349 18.665v37.871c-17.253-13.567-25.076-35.688-21.349-56.536zm21.76-5.689c-12.466-11.563-18.893-28.814-16.431-46.083 3.45-24.204 22.963-42.236 46.202-44.846-17.005 26.59-27.64 57.621-29.771 90.929zm49.338-116.536c-4.639-15.879-1.628-33.49 8.734-46.964 8.563-11.136 20.951-18.271 34.881-20.089 13.931-1.82 27.732 1.896 38.87 10.46.846.651 1.664 1.333 2.467 2.031-33.032 10.395-62.246 29.478-84.952 54.562zm119.306-61.973c7.159-14.557 20.763-25.199 37.226-28.375 13.79-2.661 27.797.208 39.433 8.08s19.509 19.803 22.171 33.597c.053.276.097.552.146.828-23.248-9.994-48.841-15.54-75.708-15.54-7.876-.001-15.638.486-23.268 1.41zm135.913 35.131c16.129-7.377 35.375-6.245 50.603 3.621 3.992 2.586 7.549 5.656 10.639 9.105.307.399.638.781 1.004 1.132 5.506 6.518 9.358 14.332 11.191 22.912 2.935 13.738.345 27.796-7.293 39.584-.708 1.092-1.461 2.149-2.243 3.182-13.832-31.907-36.067-59.353-63.901-79.536zm112.173 230.316c-8.143 0-15.59-3.018-21.299-7.985 5.845-1.149 11.554-3.03 16.945-5.662 19.484-9.515 32.439-27.094 36.85-46.767v27.918c0 17.918-14.578 32.496-32.496 32.496z"/><path id="XMLID_1598_" d="m216.133 192.088c-16.542 0-30 13.458-30 30s13.458 30 30 30 30-13.458 30-30-13.458-30-30-30zm0 40c-5.514 0-10-4.486-10-10s4.486-10 10-10 10 4.486 10 10-4.486 10-10 10z"/><path id="XMLID_1604_" d="m376.961 331.217c0-18.748-15.252-34-34-34s-34 15.252-34 34 15.252 34 34 34 34-15.252 34-34zm-48 0c0-7.72 6.28-14 14-14s14 6.28 14 14-6.28 14-14 14-14-6.28-14-14z"/><path id="XMLID_1605_" d="m236.133 405.058c-2.63 0-5.21 1.07-7.07 2.93-1.859 1.86-2.93 4.44-2.93 7.07s1.07 5.21 2.93 7.07c1.86 1.859 4.44 2.93 7.07 2.93s5.21-1.07 7.07-2.93c1.859-1.86 2.93-4.44 2.93-7.07s-1.07-5.21-2.93-7.07-4.44-2.93-7.07-2.93z"/></svg>