<svg id="Capa_1" enable-background="new 0 0 512 512" height="512" viewBox="0 0 512 512" width="512" xmlns="http://www.w3.org/2000/svg"><path id="XMLID_952_" d="m352 198v-92.667c0-9.665 7.835-17.5 17.5-17.5h29c9.665 0 17.5 7.835 17.5 17.5v92.667z" fill="#ffd89e"/><path id="XMLID_953_" d="m288 168.018v-140.518c0-9.665 7.835-17.5 17.5-17.5h29c9.665 0 17.5 7.835 17.5 17.5v140.518z" fill="#ffd89e"/><path id="XMLID_948_" d="m320 294v-156.167c0-9.665 7.835-17.5 17.5-17.5h29c9.665 0 17.5 7.835 17.5 17.5v156.167z" fill="#ffcb7c"/><path id="XMLID_956_" d="m96 198v-95.991c0-9.665 7.835-17.5 17.5-17.5h29c9.665 0 17.5 7.835 17.5 17.5v95.991z" fill="#ffd89e"/><path id="XMLID_1028_" d="m118.966 198 28.602 96h216.865l28.602-96h45.961c4.813 0 8.566 4.169 8.062 8.955l-27.632 262.503c-1.948 18.499-17.547 32.542-36.148 32.542h-97.349.143-157.35c-18.601 0-34.2-14.043-36.148-32.542l-27.631-262.503c-.504-4.786 3.249-8.955 8.062-8.955z" fill="#f5737f"/><circle id="XMLID_1027_" cx="256" cy="398" fill="#fbc2c7" r="56"/><path id="XMLID_955_" d="m160 168.018v-140.518c0-9.665 7.835-17.5 17.5-17.5h29c9.665 0 17.5 7.835 17.5 17.5v140.518z" fill="#ffd89e"/><path id="XMLID_954_" d="m224 168.018v-100.518c0-9.665 7.835-17.5 17.5-17.5h29c9.665 0 17.5 7.835 17.5 17.5v100.518z" fill="#ffd89e"/><g fill="#ffcb7c"><path id="XMLID_949_" d="m256 294v-108.482c0-9.665 7.835-17.5 17.5-17.5h29c9.665 0 17.5 7.835 17.5 17.5v108.482z"/><path id="XMLID_950_" d="m192 294v-142.185c0-9.665 7.835-17.5 17.5-17.5h29c9.665 0 17.5 7.835 17.5 17.5v142.185z"/><path id="XMLID_951_" d="m128 228.323v-42.805c0-9.665 7.835-17.5 17.5-17.5h29c9.665 0 17.5 7.835 17.5 17.5v108.482h-44.433z"/></g><path id="XMLID_1867_" d="m322 398c0-36.393-29.607-66-66-66s-66 29.607-66 66 29.607 66 66 66 66-29.607 66-66zm-112 0c0-25.364 20.636-46 46-46s46 20.636 46 46-20.636 46-46 46-46-20.636-46-46z"/><path id="XMLID_1886_" d="m452.452 193.992c-3.428-3.808-8.333-5.992-13.457-5.992h-12.995v-82.667c0-15.164-12.336-27.5-27.5-27.5h-29c-2.6 0-5.114.371-7.5 1.048v-51.381c0-15.164-12.336-27.5-27.5-27.5h-29c-15.163 0-27.5 12.336-27.5 27.5v13.548c-2.386-.678-4.9-1.048-7.5-1.048h-29c-2.6 0-5.114.371-7.5 1.048v-13.548c0-15.164-12.336-27.5-27.5-27.5h-29c-15.163 0-27.5 12.336-27.5 27.5v48.057c-2.386-.678-4.9-1.048-7.5-1.048h-29c-15.164 0-27.5 12.336-27.5 27.5v85.991h-12.995c-5.124 0-10.028 2.184-13.457 5.992s-5.086 8.915-4.55 14.01l27.631 262.502c2.49 23.657 22.306 41.496 46.093 41.496h82.278c5.523 0 10-4.477 10-10s-4.477-10-10-10h-82.278c-13.522 0-24.787-10.141-26.203-23.589l-27.411-260.411h36.403l6.925 23.244c.009.028.016.056.025.084l19.523 65.527c1.263 4.239 5.16 7.145 9.583 7.145h216.865c4.423 0 8.321-2.906 9.583-7.145l26.474-88.855h36.403l-27.412 260.411c-1.415 13.448-12.68 23.589-26.202 23.589h-82.278c-5.523 0-10 4.477-10 10s4.477 10 10 10h82.278c23.788 0 43.603-17.839 46.092-41.496l27.632-262.502c.537-5.095-1.121-10.202-4.55-14.01zm-154.452-166.492c0-4.136 3.364-7.5 7.5-7.5h29c4.136 0 7.5 3.364 7.5 7.5v77.833 5h-4.5c-15.164 0-27.5 12.336-27.5 27.5v21.233c-2.386-.678-4.9-1.048-7.5-1.048h-4.5v-44-46.518zm-96 176.815v-18.797-33.703c0-4.136 3.364-7.5 7.5-7.5h29c4.136 0 7.5 3.364 7.5 7.5v33.703 13.797 84.685h-44zm64-5v-13.797c0-4.136 3.364-7.5 7.5-7.5h29c4.136 0 7.5 3.364 7.5 7.5v70.482 28h-44zm-24.5-139.315h29c4.136 0 7.5 3.364 7.5 7.5v46.518 44h-4.5c-2.6 0-5.114.371-7.5 1.048v-7.251c0-15.164-12.336-27.5-27.5-27.5h-4.5v-56.815c0-4.136 3.364-7.5 7.5-7.5zm-71.5-32.5c0-4.136 3.364-7.5 7.5-7.5h29c4.136 0 7.5 3.364 7.5 7.5v40 56.815h-4.5c-15.164 0-27.5 12.336-27.5 27.5v7.251c-2.386-.678-4.9-1.048-7.5-1.048h-4.5v-44-12.009zm-64 160.5v-85.991c0-4.136 3.364-7.5 7.5-7.5h29c4.136 0 7.5 3.364 7.5 7.5v12.009 44h-4.5c-15.164 0-27.5 12.336-27.5 27.5v2.482zm32 38.865v-41.347c0-4.136 3.364-7.5 7.5-7.5h29c4.136 0 7.5 3.364 7.5 7.5v18.797 79.685h-26.978zm218.978 57.135h-26.978v-28-70.482-47.685c0-4.136 3.364-7.5 7.5-7.5h29c4.136 0 7.5 3.364 7.5 7.5v87.776c0 .359.021.713.058 1.062zm37.022-96v-50.167c0-15.164-12.336-27.5-27.5-27.5h-4.5v-5c0-4.136 3.364-7.5 7.5-7.5h29c4.136 0 7.5 3.364 7.5 7.5v82.667z"/><path id="XMLID_1899_" d="m256 492c-2.63 0-5.21 1.07-7.07 2.93s-2.93 4.44-2.93 7.07 1.07 5.21 2.93 7.07 4.44 2.93 7.07 2.93 5.21-1.07 7.07-2.93 2.93-4.44 2.93-7.07-1.07-5.21-2.93-7.07-4.44-2.93-7.07-2.93z"/></svg>