<svg id="Capa_1" enable-background="new 0 0 512 512" height="512" viewBox="0 0 512 512" width="512" xmlns="http://www.w3.org/2000/svg"><path id="XMLID_1930_" d="m357.766 279.402h-36.903c-61.469 0-111.299 49.83-111.299 111.299 0 61.469 49.83 111.299 111.299 111.299h36.956c13.369 0 24.206-10.838 24.206-24.206 0-13.369-10.838-24.206-24.206-24.206h-1.371c-24.036 0-43.521-19.485-43.521-43.521 0-24.036 19.485-43.521 43.521-43.521 24.428 0 44.231-19.803 44.231-44.231 0-23.7-19.213-42.913-42.913-42.913z" fill="#ffb48e"/><path id="XMLID_2708_" d="m400.679 322.315c0-23.7-19.212-42.913-42.913-42.913h-23.382c-.38.234-.581.357-.581.357-25.079 25.079-25.079 65.739 0 90.818l2.389.971c6.051-3.189 12.94-5.003 20.256-5.003 24.428 0 44.231-19.802 44.231-44.23z" fill="#ffd6c1"/><path id="XMLID_1929_" d="m209.564 390.701c0-26.377 9.181-50.605 24.515-69.678l6.904-1.962c0 39.566 32.074 71.64 71.64 71.64l1.713 8.354c-.917 3.517-1.408 7.206-1.408 11.011 0 10.046 3.413 19.29 9.131 26.656l.789 3.848c-27.977 27.977-73.337 27.977-101.314 0l-.232-.087c-7.507-14.98-11.738-31.886-11.738-49.782z" fill="#ffd6c1"/><path id="XMLID_1922_" d="m285.906 68.693 26.094-26.094c43.465-43.465 113.935-43.465 157.4 0 43.465 43.465 43.465 113.935 0 157.4l-26.132 26.132c-9.453 9.453-24.78 9.453-34.233 0-9.453-9.453-9.453-24.78 0-34.233l.969-.969c16.996-16.996 16.996-44.552 0-61.548-16.996-16.996-44.552-16.996-61.548 0-17.273 17.273-45.279 17.273-62.552 0-16.756-16.759-16.756-43.93.002-60.688z" fill="#ffb48e"/><path id="XMLID_2710_" d="m348.458 129.381c5.591-5.591 12.327-9.33 19.451-11.243l-.588-1.919c0-35.467-28.751-64.218-64.218-64.218l-.872.366-16.326 16.326c-16.758 16.758-16.758 43.929 0 60.688 17.275 17.273 45.28 17.273 62.553 0z" fill="#ffd6c1"/><path id="XMLID_1920_" d="m469.401 42.599c-18.651-18.651-42.275-29.291-66.604-31.936l-6.269 3.495c27.977 27.977 27.977 73.337 0 101.314l4.697 7.118c3.135 1.839 6.091 4.1 8.782 6.79 7.104 7.104 11.227 16.053 12.392 25.305l2.164 3.279c39.565 0 71.64-32.074 71.64-71.64l.103-.226c-5.288-15.9-14.25-30.845-26.905-43.499z" fill="#ffd6c1"/><path id="XMLID_1919_" d="m226.094 147.517-26.094-26.094c-43.465-43.465-113.935-43.465-157.4 0-43.465 43.465-43.465 113.935 0 157.4l26.132 26.132c9.453 9.453 24.78 9.453 34.233 0 9.453-9.453 9.453-24.78 0-34.233l-.969-.969c-16.996-16.996-16.996-44.552 0-61.548 16.996-16.996 44.552-16.996 61.548 0 17.273 17.273 45.279 17.273 62.552 0 16.756-16.759 16.756-43.929-.002-60.688z" fill="#ffb48e"/><path id="XMLID_2709_" d="m144.679 195.043-.024 2.071c6.916 1.957 13.444 5.647 18.887 11.09 17.273 17.273 45.278 17.273 62.552 0 16.758-16.758 16.758-43.929 0-60.688l-16.619-16.618c-.379-.048-.579-.073-.579-.073-35.466 0-64.217 28.752-64.217 64.218z" fill="#ffd6c1"/><path id="XMLID_1918_" d="m42.599 121.423c18.651-18.651 42.275-29.291 66.604-31.936l6.269 3.495c-27.977 27.977-27.977 73.337 0 101.314l-4.697 7.118c-3.135 1.839-6.091 4.1-8.782 6.79-7.104 7.104-11.227 16.053-12.392 25.305l-2.164 3.279c-39.565 0-71.64-32.074-71.64-71.64l-.103-.226c5.288-15.899 14.25-30.845 26.905-43.499z" fill="#ffd6c1"/><path id="XMLID_1878_" d="m422 502h-332c-44.183 0-80-35.817-80-80h492c0 44.183-35.817 80-80 80z" fill="#dff6fc"/><path id="XMLID_532_" d="m355.529 136.452c13.068-13.069 34.337-13.07 47.405 0 6.332 6.331 9.818 14.749 9.818 23.702s-3.487 17.372-9.816 23.701l-.972.971c-6.461 6.461-10.019 15.051-10.019 24.188s3.558 17.727 10.02 24.188c6.668 6.668 15.428 10.002 24.188 10.002s17.519-3.334 24.188-10.002l26.132-26.132c47.294-47.294 47.294-124.248 0-171.543-47.296-47.294-124.249-47.293-171.543 0l-26.095 26.094c-20.63 20.63-20.63 54.199 0 74.83 21.145 21.146 55.551 21.144 76.694.001zm21.163-29.733c-3.778-29.421-24.836-53.495-52.649-61.69 18.434-16.132 41.364-24.453 64.437-24.955.296.401.614.791.977 1.155 23.826 23.826 24.018 62.457.603 86.539-3.569-.732-7.197-1.109-10.827-1.109-.847 0-1.694.02-2.541.06zm85.638 86.209-26.132 26.132c-5.54 5.54-14.553 5.539-20.091 0-5.539-5.539-5.539-14.552-.002-20.089l.972-.971c8.541-8.541 13.58-19.274 15.13-30.405 24.354-2.273 45.622-15.29 59.032-34.25-2.588 21.791-12.223 42.897-28.909 59.583zm23.842-105.461c-.573 31.213-24.447 56.828-54.932 60.129-2.223-9.273-6.941-18.064-14.164-25.287-2.378-2.378-4.933-4.471-7.613-6.307 21.509-26.683 23.748-63.858 6.703-92.719 16.925 4.367 32.935 13.158 46.163 26.387 11.028 11.027 18.974 23.986 23.843 37.797zm-193.194-11.703 13.637-13.637c26.676 1.715 48.152 22.799 50.484 49.305-5.697 2.581-11.034 6.2-15.711 10.877-13.346 13.347-35.063 13.346-48.409 0-12.833-12.832-12.833-33.712-.001-46.545z"/><path id="XMLID_541_" d="m61.659 312.026c6.669 6.669 15.427 10.003 24.188 10.002 8.759-.001 17.521-3.335 24.188-10.002 6.461-6.461 10.019-15.051 10.019-24.188 0-9.138-3.558-17.728-10.019-24.188l-.97-.97c-6.332-6.331-9.818-14.749-9.818-23.702s3.487-17.372 9.818-23.703c13.069-13.069 34.334-13.07 47.405 0 21.145 21.146 55.55 21.143 76.694 0 20.63-20.63 20.63-54.199 0-74.829l-26.095-26.094c-47.295-47.294-124.248-47.294-171.543 0-47.294 47.294-47.294 124.249 0 171.543zm34.235-14.142c-5.54 5.539-14.554 5.539-20.092 0l-26.132-26.132c-16.686-16.686-26.322-37.792-28.909-59.584 13.405 18.954 34.662 31.969 59.006 34.249 1.586 11.474 6.823 22.074 15.156 30.406l.97.97c5.539 5.539 5.539 14.552.001 20.091zm26.047-111.292c-23.416-24.082-23.224-62.713.602-86.539.363-.363.681-.753.977-1.155 23.074.502 46.003 8.823 64.437 24.955-27.813 8.195-48.871 32.269-52.649 61.69-4.473-.21-8.965.146-13.367 1.049zm97.081 14.541c-13.345 13.347-35.063 13.348-48.409 0-4.677-4.677-10.014-8.297-15.711-10.877 2.332-26.506 23.809-47.59 50.484-49.305l13.637 13.636c12.831 12.834 12.831 33.714-.001 46.546zm-169.352-72.639c13.229-13.229 29.238-22.02 46.163-26.387-17.046 28.861-14.806 66.036 6.703 92.719-2.679 1.836-5.234 3.929-7.613 6.307-7.077 7.077-11.918 15.79-14.191 25.284-30.472-3.313-54.332-28.923-54.904-60.127 4.87-13.811 12.815-26.769 23.842-37.796z"/><path id="XMLID_970_" d="m502 412h-179.006c-.037-.643-.067-1.287-.067-1.934 0-18.483 15.038-33.521 33.521-33.521 29.902 0 54.23-24.328 54.23-54.231 0-29.176-23.736-52.912-52.912-52.912h-36.903c-66.885 0-121.299 54.414-121.299 121.299 0 7.172.629 14.297 1.87 21.299h-191.434c-5.522 0-10 4.478-10 10 0 49.626 40.374 90 90 90h121.063c5.522 0 10-4.478 10-10s-4.478-10-10-10h-121.063c-35.203 0-64.421-26.122-69.288-60h292.444c.479.071.964.112 1.455.112.481 0 .968-.04 1.455-.112h175.223c-4.867 33.878-34.085 60-69.288 60h-120.937c-5.522 0-10 4.478-10 10s4.478 10 10 10h120.936c49.626 0 90-40.374 90-90 0-5.522-4.478-10-10-10zm-181.547-41.508c-3.309 3.012-6.231 6.439-8.704 10.187-33.585-.471-60.767-27.923-60.767-61.618 0-.514-.051-1.014-.125-1.507 16.661-15.952 38.745-26.28 63.171-27.916-5.892 10.774-9.034 22.909-9.034 35.531 0 16.62 5.445 32.394 15.459 45.323zm70.226-48.178c0 18.875-15.355 34.231-34.23 34.231-6.616 0-12.951 1.215-18.805 3.419-8.183-9.742-12.649-21.924-12.649-34.796 0-13.305 4.771-25.87 13.486-35.767h19.286c18.147.001 32.912 14.766 32.912 32.913zm-171.115 68.387c0-18.708 5.104-36.245 13.983-51.301 8.355 32.461 36.225 57.164 70.302 60.822-.596 3.193-.923 6.48-.923 9.843 0 .646.012 1.29.035 1.934h-81.151c-1.49-6.965-2.246-14.1-2.246-21.298z"/><path id="XMLID_1110_" d="m457.929 322.616-7.852 7.852c-3.905 3.905-3.905 10.237 0 14.143 1.953 1.952 4.512 2.929 7.071 2.929s5.118-.977 7.071-2.929l7.852-7.852c3.905-3.905 3.905-10.237 0-14.143-3.906-3.904-10.236-3.904-14.142 0z"/><path id="XMLID_1111_" d="m116.252 363.507-7.851 7.852c-3.905 3.905-3.905 10.237.001 14.142 1.952 1.953 4.511 2.929 7.07 2.929s5.119-.977 7.071-2.93l7.851-7.852c3.905-3.905 3.905-10.237-.001-14.142-3.904-3.906-10.237-3.905-14.141.001z"/><path id="XMLID_1121_" d="m156.596 268.814c-3.905 3.905-3.905 10.237 0 14.143l7.032 7.032c1.953 1.952 4.512 2.929 7.071 2.929s5.118-.977 7.071-2.929c3.905-3.905 3.905-10.237 0-14.143l-7.032-7.032c-3.906-3.904-10.236-3.904-14.142 0z"/><path id="XMLID_1319_" d="m219 77.496c2.56 0 5.118-.977 7.071-2.929l6.992-6.992c3.905-3.905 3.905-10.237 0-14.143-3.906-3.904-10.236-3.904-14.143 0l-6.992 6.992c-3.905 3.905-3.905 10.237 0 14.143 1.954 1.953 4.512 2.929 7.072 2.929z"/><path id="XMLID_1321_" d="m107.545 26.707c1.953 1.953 4.512 2.929 7.071 2.929s5.119-.977 7.071-2.929c3.905-3.905 3.905-10.237 0-14.142l-9.636-9.635c-3.906-3.905-10.238-3.905-14.143 0s-3.905 10.237 0 14.142z"/><path id="XMLID_1606_" d="m256.06 491.939c-2.63 0-5.21 1.061-7.069 2.931-1.86 1.859-2.931 4.439-2.931 7.069s1.07 5.21 2.931 7.07c1.859 1.86 4.439 2.93 7.069 2.93s5.21-1.069 7.07-2.93c1.87-1.87 2.939-4.44 2.939-7.07s-1.069-5.21-2.939-7.069c-1.86-1.87-4.43-2.931-7.07-2.931z"/></svg>