<svg id="Capa_1" enable-background="new 0 0 512.002 512.002" height="512" viewBox="0 0 512.002 512.002" width="512" xmlns="http://www.w3.org/2000/svg"><path id="XMLID_1580_" d="m358.598 10.002-28.702 164.25h47.121l28.703-164.25z" fill="#fff"/><path id="XMLID_2399_" d="m355.859 25.641 40.034 40.034-13.862 77.853-39.359-42.045z" fill="#91def5"/><path id="XMLID_2252_" d="m113.372 198.461v184.542c0 65.722 53.278 119 119 119h106c65.722 0 119-53.278 119-119v-184.542c0-13.37-10.838-24.208-24.208-24.208h-295.584c-13.37-.001-24.208 10.838-24.208 24.208z" fill="#ffcb7c"/><path id="XMLID_1151_" d="m47.422 148.458 113.013-138.456 167.1 63.4z" fill="#f6838d"/><path id="XMLID_1149_" d="m144.948 122.326 15.488-112.324 69.575 89.532z" fill="#fff"/><circle id="XMLID_843_" cx="420.097" cy="138.252" fill="#f5737f" r="36"/><path id="XMLID_841_" d="m292.45 365.912c-1.86-1.86-4.43-2.931-7.07-2.931-2.63 0-5.21 1.07-7.07 2.931-1.86 1.859-2.93 4.439-2.93 7.069s1.07 5.21 2.93 7.07c1.87 1.86 4.44 2.93 7.07 2.93s5.21-1.069 7.07-2.93c1.87-1.86 2.93-4.44 2.93-7.07s-1.06-5.209-2.93-7.069z"/><path id="XMLID_1302_" d="m193.041 268.802c-1.86-1.86-4.44-2.93-7.07-2.93s-5.21 1.069-7.07 2.93-2.93 4.44-2.93 7.07 1.07 5.21 2.93 7.069c1.86 1.86 4.44 2.931 7.07 2.931s5.21-1.07 7.07-2.931c1.86-1.859 2.93-4.439 2.93-7.069s-1.071-5.21-2.93-7.07z"/><path id="XMLID_1356_" d="m392.88 268.802c-1.86-1.86-4.44-2.93-7.07-2.93s-5.21 1.069-7.07 2.93-2.93 4.44-2.93 7.07 1.07 5.21 2.93 7.069c1.86 1.86 4.44 2.931 7.07 2.931s5.21-1.07 7.07-2.931c1.86-1.859 2.93-4.439 2.93-7.069s-1.07-5.21-2.93-7.07z"/><path id="XMLID_1402_" d="m185.95 440.752c-2.63 0-5.21 1.06-7.07 2.93-1.86 1.86-2.93 4.44-2.93 7.07s1.07 5.2 2.93 7.069c1.86 1.86 4.44 2.931 7.07 2.931s5.21-1.07 7.07-2.931c1.86-1.869 2.93-4.439 2.93-7.069s-1.07-5.21-2.93-7.07c-1.86-1.87-4.439-2.93-7.07-2.93z"/><path id="XMLID_1421_" d="m385.811 440.752c-2.64 0-5.21 1.06-7.07 2.93-1.86 1.86-2.93 4.43-2.93 7.07 0 2.63 1.07 5.21 2.93 7.069 1.86 1.86 4.44 2.931 7.07 2.931s5.21-1.07 7.07-2.931c1.86-1.859 2.93-4.439 2.93-7.069 0-2.641-1.07-5.21-2.93-7.07-1.86-1.87-4.441-2.93-7.07-2.93z"/><path id="XMLID_1782_" d="m477.629 38.604c-4.783-2.76-10.898-1.122-13.66 3.66l-30.081 52.103c-4.356-1.372-8.988-2.115-13.791-2.115-6.909 0-13.461 1.541-19.347 4.281l14.821-84.809c.508-2.909-.295-5.895-2.195-8.155-1.9-2.261-4.703-3.566-7.656-3.566h-47.122c-4.859 0-9.014 3.492-9.851 8.278l-10.238 58.589-174.526-66.217c-4.13-1.568-8.644-.214-11.291 3.029l-.004-.003-.106.13c-.009.012-.019.023-.029.035l-120.928 148.153c-3.492 4.278-2.855 10.578 1.424 14.07 1.857 1.516 4.094 2.253 6.317 2.253 2.899 0 5.776-1.255 7.753-3.677l6.009-7.362 80.937-21.687c1.162 3.504 4.216 6.232 8.12 6.77.463.063.923.095 1.378.095 4.917 0 9.203-3.628 9.894-8.635l.49-3.557 26.461-7.09 11.006 41.075h-53.834c-18.863 0-34.208 15.346-34.208 34.208v184.542c0 71.131 57.869 129 129 129h106c71.131 0 129-57.869 129-129v-184.542c0-11.537-5.747-21.751-14.522-27.95 8.184-8.309 13.247-19.702 13.247-32.258 0-13.384-5.749-25.447-14.903-33.861l30.096-52.128c2.761-4.782 1.122-10.897-3.661-13.659zm-57.532 73.648c14.336 0 26 11.663 26 26s-11.664 26-26 26-26-11.663-26-26 11.663-26 26-26zm13.067 72c7.834 0 14.208 6.374 14.208 14.208v26.304l-40.512-40.512zm14.208 198.75c0 10.738-1.568 21.115-4.475 30.923l-43.345-43.344 47.82-47.82zm-246.84-12.421 85.368-85.367 85.368 85.367-85.368 85.368zm-77.16 12.421v-61.295l48.875 48.875-44.157 44.157c-3.064-10.047-4.718-20.702-4.718-31.737zm0-89.58v-39.316l65.709-65.71 82.676 82.676-85.368 85.368zm252.424-170.271-22.83-22.83 9.436-53.995 22.83 22.829zm-27.037 1.248 21.652 21.652c.379.379.786.709 1.206 1.014l-3.003 17.187h-26.819zm-18.863 59.853h28.681l-72.677 72.677-72.677-72.677zm-29.854 86.82 82.676-82.676 64.654 64.654v41.427l-61.962 61.962zm93.779-251.07-4.382 25.076-22.83-22.829.393-2.247zm-159.988 68.155-43.652-56.173 104.84 39.777zm-88.168-44.245-9.717 70.473-61.188 16.395zm21.436-9.036 45.769 58.897-55.958 14.994zm32.625 83.125 26.461-7.09 2.203 2.834c3.389 4.362 9.671 5.148 14.032 1.761 3.111-2.418 4.393-6.308 3.647-9.923l80.937-21.687 7.998 3.035-13.512 77.321h-109.373zm-62.145 66.251h27.359l-41.568 41.568v-27.36c0-7.834 6.374-14.208 14.209-14.208zm-1.155 250.435 49.963-49.963 107.279 107.278h-61.296c-41.413 0-77.503-23.216-95.946-57.315zm201.946 57.315h-16.419l-21.911-21.911 85.368-85.368 49.273 49.273c-18.328 34.475-54.62 58.006-96.311 58.006z"/></svg>