<svg id="Capa_1" enable-background="new 0 0 512 512" height="512" viewBox="0 0 512 512" width="512" xmlns="http://www.w3.org/2000/svg"><path id="XMLID_2534_" d="m447 340h-382c-15.464 0-28 12.536-28 28 0 15.464 12.536 28 28 28h382c15.464 0 28-12.536 28-28 0-15.464-12.536-28-28-28z" fill="#ffd89e"/><path id="XMLID_2533_" d="m447 284h-382c-15.464 0-28 12.536-28 28 0 15.464 12.536 28 28 28h382c15.464 0 28-12.536 28-28 0-15.464-12.536-28-28-28z" fill="#ffedd1"/><path id="XMLID_2532_" d="m447 228h-382c-15.464 0-28 12.536-28 28 0 15.464 12.536 28 28 28h382c15.464 0 28-12.536 28-28 0-15.464-12.536-28-28-28z" fill="#ffd89e"/><path id="XMLID_2261_" d="m447 172h-382c-15.464 0-28 12.536-28 28 0 15.464 12.536 28 28 28h382c15.464 0 28-12.536 28-28 0-15.464-12.536-28-28-28z" fill="#ffedd1"/><path id="XMLID_2255_" d="m447 116h-382c-15.464 0-28 12.536-28 28 0 15.464 12.536 28 28 28h382c15.464 0 28-12.536 28-28 0-15.464-12.536-28-28-28z" fill="#ffd89e"/><path id="XMLID_838_" d="m305.308 116h-98.617c-7.009 0-12.692-5.682-12.692-12.692v-30.616c.001-7.01 5.683-12.692 12.693-12.692h98.617c7.009 0 12.691 5.682 12.691 12.692v30.617c0 7.009-5.682 12.691-12.692 12.691z" fill="#ffcb7c"/><path id="XMLID_2184_" d="m446 452h-380c-30.928 0-56-25.072-56-56h492c0 30.928-25.072 56-56 56z" fill="#dff6fc"/><path id="XMLID_2254_" d="m241.333 116h17.528c13.255 0 24 10.745 24 24v175.514c0 13.523 10.963 24.486 24.486 24.486 13.523 0 24.486-10.963 24.486-24.486v-66.681c0-11.506 9.327-20.833 20.833-20.833 11.506 0 20.833-9.327 20.833-20.833v-67.167c0-13.255 10.745-24 24-24h3z" fill="#d29976"/><path id="XMLID_2266_" d="m101.72 116h21.846c13.255 0 24 10.745 24 24v60.968c0 14.929 12.103 27.032 27.032 27.032 14.929 0 27.032-12.103 27.032-27.032v-60.968c0-13.255 10.745-24 24-24h12.983z" fill="#d29976"/><path id="XMLID_674_" d="m502 386h-21.543c2.896-5.361 4.543-11.491 4.543-18 0-11.071-4.761-21.048-12.341-28 7.58-6.952 12.341-16.929 12.341-28s-4.761-21.048-12.341-28c7.58-6.952 12.341-16.929 12.341-28s-4.761-21.048-12.341-28c7.58-6.952 12.341-16.929 12.341-28s-4.761-21.048-12.341-28c7.58-6.952 12.341-16.929 12.341-28 0-20.953-17.047-38-38-38h-119.165c.105-.883.165-1.78.165-2.691v-30.618c0-12.511-10.18-22.691-22.692-22.691h-98.616c-12.512 0-22.692 10.18-22.692 22.691v30.617c0 .911.06 1.808.165 2.691h-119.165c-20.953 0-38 17.047-38 38 0 11.071 4.761 21.048 12.341 28-7.58 6.953-12.341 16.93-12.341 28.001s4.761 21.048 12.341 28c-7.58 6.952-12.341 16.929-12.341 28s4.761 21.048 12.341 28c-7.58 6.952-12.341 16.929-12.341 28s4.761 21.048 12.341 28c-7.58 6.952-12.341 16.929-12.341 28 0 6.509 1.647 12.639 4.543 18h-21.543c-5.523 0-10 4.478-10 10 0 36.393 29.607 66 66 66h145c5.523 0 10-4.478 10-10s-4.477-10-10-10h-145c-21.931 0-40.327-15.429-44.905-36h43.905 382 43.905c-4.579 20.571-22.975 36-44.905 36h-145c-5.523 0-10 4.478-10 10s4.477 10 10 10h145c36.393 0 66-29.607 66-66 0-5.522-4.477-10-10-10zm-37-74c0 9.925-8.075 18-18 18h-108.368c2.049-4.407 3.201-9.313 3.201-14.485v-21.515h105.167c9.925 0 18 8.075 18 18zm-307.434-111.032v-60.968c0-4.99-1.089-9.727-3.029-14h40.121c-1.939 4.273-3.029 9.01-3.029 14v60.968c0 9.392-7.641 17.032-17.032 17.032s-17.031-7.641-17.031-17.032zm101.296-74.968c7.72 0 14 6.28 14 14v22h-61.232v-22c0-7.72 6.28-14 14-14zm-47.232 74.968v-18.968h61.232v36h-65.398c2.655-5.103 4.166-10.893 4.166-17.032zm81.232 114.547v-175.515c0-4.99-1.089-9.727-3.029-14h15.475 61.22c-1.939 4.273-3.029 9.01-3.029 14v67.167c0 5.974-4.86 10.833-10.833 10.833-17.001 0-30.833 13.832-30.833 30.833v66.682c0 7.987-6.499 14.485-14.486 14.485s-14.485-6.498-14.485-14.485zm172.138-59.515c0 9.925-8.075 18-18 18h-105.167v-25.167c0-5.974 4.86-10.833 10.833-10.833h.001 94.333c9.925 0 18 8.075 18 18zm0-56c0 9.925-8.075 18-18 18h-65.47c1.27-3.373 1.97-7.022 1.97-10.833v-25.167h63.5c9.925 0 18 8.075 18 18zm-18-74c9.925 0 18 8.075 18 18s-8.075 18-18 18h-63.5v-22c0-7.72 6.28-14 14-14zm-243-22.691v-30.618c0-1.484 1.208-2.691 2.692-2.691h98.616c1.484 0 2.692 1.207 2.692 2.691v30.617c0 1.484-1.208 2.691-2.692 2.691h-98.616c-1.484.001-2.692-1.206-2.692-2.69zm-157 40.691c0-9.925 8.075-18 18-18h58.566c7.72 0 14 6.28 14 14v22h-72.566c-9.925 0-18-8.075-18-18zm0 56c0-9.925 8.075-18 18-18h72.566v18.968c0 6.139 1.51 11.929 4.166 17.032h-76.732c-9.925 0-18-8.075-18-18zm0 56c0-9.925 8.075-18 18-18h207.862v36h-207.862c-9.925 0-18-8.075-18-18zm0 56c0-9.925 8.075-18 18-18h207.862v21.515c0 5.172 1.152 10.078 3.201 14.485h-211.063c-9.925 0-18-8.075-18-18zm18 74c-9.925 0-18-8.075-18-18s8.075-18 18-18h382c9.925 0 18 8.075 18 18s-8.075 18-18 18z"/><path id="XMLID_1926_" d="m256 442c-2.63 0-5.21 1.069-7.07 2.93-1.86 1.86-2.93 4.44-2.93 7.07s1.07 5.21 2.93 7.069c1.86 1.86 4.44 2.931 7.07 2.931s5.21-1.07 7.07-2.931c1.86-1.859 2.93-4.439 2.93-7.069s-1.07-5.21-2.93-7.07-4.44-2.93-7.07-2.93z"/></svg>