<svg id="Capa_1" enable-background="new 0 0 512 512" height="512" viewBox="0 0 512 512" width="512" xmlns="http://www.w3.org/2000/svg"><path id="XMLID_1445_" d="m138.182 502h235.636c14.46 0 26.182-11.722 26.182-26.182v-465.818h-288v465.818c0 14.46 11.722 26.182 26.182 26.182z" fill="#b0e7f8"/><path id="XMLID_1444_" d="m152 10h208v424h-208z" fill="#fff"/><path id="XMLID_1443_" d="m152 92.94c28.719 28.719 75.281 28.719 104 0 28.719-28.719 75.281-28.719 104 0v-82.94h-208z" fill="#dff6fc"/><g fill="#f9f9f9"><path id="XMLID_2444_" d="m252.36 312.366-30.432 30.432c-8.203 8.203-21.503 8.203-29.707 0l-30.432-30.432c-8.203-8.203-8.203-21.503 0-29.707l30.432-30.432c8.203-8.203 21.503-8.203 29.707 0l30.432 30.432c8.203 8.204 8.203 21.504 0 29.707z"/><path id="XMLID_2463_" d="m335.358 291.636h-43.038c-11.601 0-21.006-9.405-21.006-21.006v-43.038c0-11.601 9.405-21.006 21.006-21.006h43.038c11.601 0 21.006 9.405 21.006 21.006v43.038c0 11.602-9.405 21.006-21.006 21.006z"/><path id="XMLID_2461_" d="m277.519 434h-43.038c-11.601 0-21.006-9.405-21.006-21.006v-43.038c0-11.601 9.405-21.006 21.006-21.006h43.038c11.601 0 21.006 9.405 21.006 21.006v43.038c0 11.601-9.405 21.006-21.006 21.006z"/></g><path id="XMLID_694_" d="m400 0h-40-208-40c-5.522 0-10 4.478-10 10v465.818c0 19.95 16.231 36.182 36.182 36.182h235.637c19.95 0 36.182-16.231 36.182-36.182v-174.691c0-5.522-4.478-10-10-10s-10 4.478-10 10v174.691c0 8.923-7.259 16.182-16.182 16.182h-235.637c-8.923 0-16.182-7.259-16.182-16.182v-455.818h20v72.935.01 341.055c0 5.522 4.478 10 10 10h82.481 43.037 82.482c5.522 0 10-4.478 10-10v-341.054c0-.003 0-.007 0-.01v-72.936h20v191.127c0 5.522 4.478 10 10 10s10-4.478 10-10v-201.127c0-5.522-4.478-10-10-10zm-50 200.271c-4.364-2.348-9.35-3.684-14.643-3.684h-43.037c-17.097 0-31.006 13.909-31.006 31.006v43.038c0 2.971.429 5.843 1.213 8.565-.925-1.262-1.956-2.469-3.096-3.608l-30.433-30.433c-12.089-12.089-31.759-12.087-43.85 0l-23.148 23.15v-155.153c12.934 7.519 27.465 11.289 42 11.289 21.393 0 42.785-8.143 59.071-24.429 12.001-12.001 27.957-18.61 44.929-18.61 15.629 0 30.389 5.618 42 15.877zm-3.637 27.322v43.038c0 6.068-4.938 11.006-11.006 11.006h-43.037c-6.068 0-11.006-4.938-11.006-11.006v-43.038c0-6.068 4.938-11.006 11.006-11.006h43.037c6.069 0 11.006 4.937 11.006 11.006zm-131.507 108.135c-2.079 2.078-4.843 3.224-7.782 3.224s-5.703-1.146-7.782-3.225l-30.432-30.432c-4.291-4.291-4.291-11.273 0-15.564l30.431-30.433c2.146-2.146 4.965-3.219 7.783-3.219s5.638 1.073 7.782 3.219l30.433 30.433c4.291 4.291 4.291 11.273 0 15.564zm-52.856-9.008 23.149 23.149c5.488 5.488 12.67 8.665 20.366 9.043-1.313 3.433-2.04 7.154-2.04 11.043v43.038c0 3.875.721 7.583 2.025 11.006h-43.5zm72.481 97.28c-6.068 0-11.006-4.938-11.006-11.006v-43.038c0-6.068 4.938-11.006 11.006-11.006h43.037c6.068 0 11.006 4.938 11.006 11.006v43.038c0 6.068-4.938 11.006-11.006 11.006zm72.018 0c1.304-3.423 2.025-7.131 2.025-11.006v-43.038c0-17.097-13.909-31.006-31.006-31.006h-37.6l19.513-19.513c8.258-8.259 10.871-20.054 7.846-30.554 5.645 7.723 14.765 12.753 25.042 12.753h43.037c5.293 0 10.279-1.336 14.643-3.684v126.048zm43.501-351.271c-31.969-18.584-73.719-14.212-101.071 13.14-12.001 12.001-27.957 18.61-44.929 18.61-15.629 0-30.389-5.618-42-15.877v-68.602h188z"/><path id="XMLID_1895_" d="m325.67 325.24c-2.64 0-5.21 1.069-7.07 2.93-1.87 1.86-2.93 4.439-2.93 7.07 0 2.63 1.06 5.21 2.93 7.069 1.86 1.86 4.431 2.931 7.07 2.931 2.63 0 5.21-1.07 7.07-2.931 1.859-1.859 2.93-4.43 2.93-7.069 0-2.631-1.07-5.21-2.93-7.07s-4.44-2.93-7.07-2.93z"/><path id="XMLID_1909_" d="m225.67 175.5c-2.64 0-5.21 1.069-7.07 2.93-1.87 1.86-2.93 4.44-2.93 7.07s1.06 5.21 2.93 7.069c1.86 1.86 4.431 2.931 7.07 2.931 2.63 0 5.21-1.07 7.07-2.931 1.859-1.859 2.93-4.439 2.93-7.069s-1.07-5.21-2.93-7.07c-1.86-1.861-4.44-2.93-7.07-2.93z"/><path id="XMLID_1910_" d="m278.33 141c-2.63 0-5.21 1.069-7.07 2.93s-2.93 4.44-2.93 7.07 1.069 5.21 2.93 7.069c1.86 1.86 4.44 2.931 7.07 2.931 2.64 0 5.21-1.07 7.069-2.931 1.87-1.859 2.931-4.439 2.931-7.069s-1.061-5.21-2.931-7.07c-1.859-1.861-4.429-2.93-7.069-2.93z"/><path id="XMLID_1912_" d="m400 246.13c-2.63 0-5.21 1.06-7.07 2.93-1.86 1.86-2.93 4.431-2.93 7.07 0 2.63 1.069 5.21 2.93 7.07 1.86 1.859 4.44 2.93 7.07 2.93s5.21-1.07 7.069-2.93c1.86-1.86 2.931-4.44 2.931-7.07s-1.07-5.21-2.931-7.07c-1.859-1.871-4.439-2.93-7.069-2.93z"/></svg>