<svg id="Capa_1" enable-background="new 0 0 512 512" height="512" viewBox="0 0 512 512" width="512" xmlns="http://www.w3.org/2000/svg"><path id="XMLID_1972_" d="m63.182 502h235.636c14.46 0 26.182-11.722 26.182-26.182v-465.818h-288v465.818c0 14.46 11.722 26.182 26.182 26.182z" fill="#b0e7f8"/><path id="XMLID_1728_" d="m77 10h208v424h-208z" fill="#f8a2aa"/><path id="XMLID_1727_" d="m77.168 92.94c28.719-28.719 75.281-28.719 104 0 28.663 28.663 75.1 28.719 103.832.167v-.167-82.94h-208v82.94" fill="#dff6fc"/><path id="XMLID_927_" d="m307.407 291.231c-14.349-8.32-31.674-9.563-46.921-3.745-5.819 15.246-4.576 32.57 3.743 46.919l41.276-1.9z" fill="#f0f7cd"/><path id="XMLID_923_" d="m366.755 323.277c.691-3.469 1.053-7.057 1.054-10.729 0-22.242-13.293-41.366-32.361-49.9-19.068 8.533-32.361 27.658-32.361 49.9 0 7.942 1.702 15.482 4.75 22.289-6.807-3.047-14.347-4.75-22.289-4.75-22.242 0-41.366 13.293-49.9 32.361 8.533 19.068 27.658 32.361 49.9 32.361 3.673 0 7.262-.363 10.732-1.054z" fill="#d8ec84"/><path id="XMLID_914_" d="m475 407.168v51.327c0 24.027-19.478 43.505-43.505 43.505h-51.327c-52.374 0-94.832-42.458-94.832-94.832 0-52.374 42.458-94.832 94.832-94.832 52.374 0 94.832 42.458 94.832 94.832z" fill="#f5737f"/><path id="XMLID_734_" d="m380.168 302.336c-1.062 0-2.119.021-3.174.052-3.403-21.316-17.35-39.867-37.461-48.868-1.439-.644-2.992-.917-4.533-.848v-242.672c0-5.522-4.478-10-10-10h-40-208-40c-5.522 0-10 4.478-10 10v201.127c0 5.522 4.478 10 10 10s10-4.478 10-10v-191.127h20v414c0 5.522 4.478 10 10 10h205.021c6.168 16.383 16.324 30.827 29.282 42.142-2.998 3.642-7.512 5.858-12.485 5.858h-235.636c-8.923 0-16.182-7.259-16.182-16.182v-174.691c0-5.522-4.478-10-10-10s-10 4.478-10 10v174.691c0 19.951 16.231 36.182 36.182 36.182h235.637c11.596 0 22.081-5.391 28.764-14.173 15.467 9.006 33.433 14.173 52.585 14.173h51.327c29.503 0 53.505-24.002 53.505-53.505v-51.327c0-57.805-47.027-104.832-104.832-104.832zm-23.046 2.558c-15.681 3.531-30.04 10.586-42.204 20.286-1.207-4.08-1.831-8.306-1.831-12.633 0-16.04 8.643-30.769 22.361-38.687 11.498 6.638 19.408 18.066 21.674 31.034zm-79.228 79.229c-12.968-2.266-24.396-10.176-31.033-21.675 7.918-13.718 22.646-22.36 38.687-22.36 4.328 0 8.554.624 12.632 1.831-9.701 12.164-16.755 26.523-20.286 42.204zm-9.474-88.703c8.783-2.335 18.174-1.916 26.692 1.111-1.325 5.164-2.025 10.536-2.025 16.016 0 2.705.165 5.385.493 8.033-2.647-.328-5.327-.493-8.032-.493-5.48 0-10.853.7-16.016 2.026-3.029-8.519-3.447-17.909-1.112-26.693zm46.58-31.354c-4.649 4.105-8.666 8.843-11.946 14.049-2.639-1.011-5.329-1.838-8.054-2.49v-182.484c0-.002 0-.003 0-.005v-73.136h20zm-40-244.066v68.748c-24.919 21.827-63.021 20.861-86.761-2.879-27.399-27.399-69.249-31.743-101.239-13.047v-52.822zm0 404h-188v-326.576c24.921-22.143 63.221-21.289 87.097 2.588 16.271 16.271 37.669 24.409 59.074 24.407 14.471-.001 28.941-3.733 41.829-11.178v160.823c-6.107.485-12.191 1.832-18.08 4.079-2.66 1.016-4.761 3.116-5.776 5.776-5.749 15.062-5.674 31.396-.028 46.135-10.602 6.679-19.271 16.413-24.595 28.308-1.163 2.599-1.163 5.57 0 8.17 9 20.112 27.552 34.059 48.868 37.462-.005.17-.014.339-.019.51-.234.849-.37 1.74-.37 2.663zm190 34.495c0 18.475-15.03 33.505-33.505 33.505h-51.327c-46.776 0-84.832-38.056-84.832-84.832s38.056-84.832 84.832-84.832 84.832 38.056 84.832 84.832z"/><path id="XMLID_1224_" d="m328.369 421.598c-3.905 3.905-3.905 10.237 0 14.143l.019.019c1.951 1.95 4.504 2.924 7.058 2.924 2.56 0 5.121-.979 7.075-2.934 3.905-3.905 3.896-10.246-.009-14.151-3.907-3.906-10.237-3.906-14.143-.001z"/><path id="XMLID_1264_" d="m375.626 388.483c-3.906-3.904-10.236-3.904-14.143 0-3.905 3.905-3.905 10.237 0 14.143l.019.019c1.951 1.95 4.504 2.924 7.058 2.924 2.56 0 5.121-.979 7.075-2.934 3.905-3.906 3.896-10.246-.009-14.152z"/><path id="XMLID_1267_" d="m408.74 355.369c-3.906-3.904-10.236-3.904-14.143 0-3.905 3.905-3.905 10.237 0 14.143l.019.019c1.951 1.95 4.504 2.924 7.058 2.924 2.56 0 5.121-.979 7.075-2.934 3.905-3.906 3.897-10.247-.009-14.152z"/><path id="XMLID_1268_" d="m381.488 441.603c-3.905 3.905-3.905 10.237 0 14.143l.019.019c1.951 1.95 4.504 2.924 7.058 2.924 2.56 0 5.121-.979 7.075-2.934 3.905-3.905 3.896-10.246-.009-14.151-3.906-3.906-10.236-3.906-14.143-.001z"/><path id="XMLID_1277_" d="m414.603 408.488c-3.905 3.905-3.905 10.237 0 14.143l.019.019c1.951 1.95 4.504 2.924 7.058 2.924 2.56 0 5.121-.979 7.075-2.934 3.905-3.905 3.896-10.246-.009-14.151-3.907-3.905-10.237-3.905-14.143-.001z"/><path id="XMLID_1715_" d="m130.67 159c-2.64 0-5.21 1.069-7.07 2.93-1.87 1.86-2.93 4.44-2.93 7.07s1.06 5.21 2.93 7.069c1.86 1.86 4.431 2.931 7.07 2.931 2.63 0 5.2-1.07 7.07-2.931 1.859-1.859 2.93-4.439 2.93-7.069s-1.07-5.21-2.93-7.07c-1.86-1.861-4.44-2.93-7.07-2.93z"/><path id="XMLID_1723_" d="m236.2 211.399c1.859-1.859 2.93-4.439 2.93-7.069s-1.07-5.2-2.93-7.07c-1.86-1.86-4.44-2.93-7.07-2.93-2.64 0-5.21 1.069-7.07 2.93-1.87 1.86-2.93 4.44-2.93 7.07s1.06 5.21 2.93 7.069c1.86 1.87 4.431 2.931 7.07 2.931 2.63 0 5.21-1.06 7.07-2.931z"/><path id="XMLID_1744_" d="m184.67 243c0-2.63-1.07-5.21-2.93-7.07s-4.44-2.93-7.07-2.93-5.21 1.069-7.07 2.93c-1.87 1.86-2.93 4.44-2.93 7.07s1.06 5.21 2.93 7.069c1.86 1.86 4.44 2.931 7.07 2.931s5.2-1.07 7.07-2.931c1.86-1.859 2.93-4.439 2.93-7.069z"/><path id="XMLID_1746_" d="m206 301.03c-2.63 0-5.21 1.069-7.07 2.93-1.86 1.859-2.93 4.439-2.93 7.07 0 2.63 1.069 5.21 2.93 7.069 1.86 1.86 4.44 2.931 7.07 2.931s5.21-1.07 7.069-2.931c1.86-1.859 2.931-4.439 2.931-7.069 0-2.631-1.07-5.211-2.931-7.07-1.859-1.86-4.439-2.93-7.069-2.93z"/><path id="XMLID_1761_" d="m130.67 364.33c-2.64 0-5.21 1.069-7.07 2.93-1.87 1.86-2.93 4.44-2.93 7.07 0 2.64 1.06 5.21 2.93 7.069 1.86 1.87 4.431 2.931 7.07 2.931 2.63 0 5.2-1.061 7.07-2.931 1.859-1.859 2.93-4.43 2.93-7.069 0-2.63-1.07-5.21-2.93-7.07-1.86-1.861-4.44-2.93-7.07-2.93z"/><path id="XMLID_1762_" d="m191 364.33c-2.63 0-5.21 1.069-7.07 2.93s-2.93 4.44-2.93 7.07c0 2.64 1.069 5.21 2.93 7.069 1.86 1.87 4.44 2.931 7.07 2.931s5.21-1.061 7.069-2.931c1.86-1.859 2.931-4.439 2.931-7.069s-1.07-5.21-2.931-7.07c-1.859-1.861-4.439-2.93-7.069-2.93z"/><path id="XMLID_1764_" d="m130.67 283.67c-2.64 0-5.21 1.06-7.07 2.93-1.87 1.86-2.93 4.431-2.93 7.07 0 2.63 1.06 5.21 2.93 7.07 1.86 1.859 4.431 2.93 7.07 2.93 2.63 0 5.2-1.07 7.07-2.93 1.859-1.86 2.93-4.44 2.93-7.07 0-2.64-1.07-5.21-2.93-7.07-1.86-1.871-4.44-2.93-7.07-2.93z"/><path id="XMLID_1766_" d="m37 266.13c2.63 0 5.21-1.07 7.069-2.93 1.86-1.87 2.931-4.44 2.931-7.07s-1.07-5.21-2.931-7.07c-1.859-1.87-4.439-2.93-7.069-2.93s-5.21 1.06-7.07 2.93c-1.86 1.86-2.93 4.431-2.93 7.07 0 2.63 1.069 5.21 2.93 7.07 1.86 1.86 4.44 2.93 7.07 2.93z"/></svg>