<svg id="Capa_1" enable-background="new 0 0 512 512" height="512" viewBox="0 0 512 512" width="512" xmlns="http://www.w3.org/2000/svg"><path id="XMLID_2182_" d="m56.192 502h235.636c14.46 0 26.182-11.722 26.182-26.182v-465.818h-288v465.818c0 14.46 11.722 26.182 26.182 26.182z" fill="#b0e7f8"/><path id="XMLID_2179_" d="m70.01 10h208v424h-208z" fill="#ffcb7c"/><path id="XMLID_2178_" d="m70.178 92.94c28.719-28.719 75.281-28.719 104 0 28.663 28.663 75.1 28.719 103.832.168v-83.108h-208v82.94" fill="#dff6fc"/><path id="XMLID_2328_" d="m199.97 219.784c64.585-64.717 169.224-64.79 233.718-.164s64.421 169.479-.164 234.196z" fill="#ff9d6c"/><path id="XMLID_2326_" d="m228.931 248.864c48.551-48.65 127.212-48.705 175.695-.123s48.428 127.404-.123 176.054z" fill="#ffb48e"/><path id="XMLID_2325_" d="m316.146 336.257 87.993-87.993c.161.16.326.315.487.476 48.483 48.582 48.428 127.404-.123 176.054z" fill="#ffd6c1"/><path id="XMLID_2318_" d="m440.428 336.793h-123.624v-123.625c68.276 0 123.624 55.349 123.624 123.625z" fill="#ffd6c1"/><path id="XMLID_2317_" d="m440.428 336.793h-123.624l87.416-87.416c22.371 22.372 36.208 53.278 36.208 87.416z" fill="#ffb48e"/><path id="XMLID_2307_" d="m199.795 219.959c-64.717 64.585-64.79 169.224-.164 233.718s169.479 64.421 234.196-.164z" fill="#ff9d6c"/><path id="XMLID_2305_" d="m228.875 248.92c-48.65 48.551-48.705 127.212-.123 175.695s127.404 48.428 176.054-.123z" fill="#ffd6c1"/><path id="XMLID_2304_" d="m316.269 336.135-87.993 87.993c.16.161.315.326.476.487 48.582 48.483 127.404 48.428 176.054-.123z" fill="#ffcab0"/><path id="XMLID_823_" d="m193.179 336.793h123.624v123.624c-68.275 0-123.624-55.348-123.624-123.624z" fill="#ffb48e"/><path id="XMLID_822_" d="m316.804 460.417v-123.624l-87.416 87.416c22.372 22.371 53.278 36.208 87.416 36.208z" fill="#ffd6c1"/><path id="XMLID_1362_" d="m316.89 202.341c-35.892 0-69.644 14.014-95.037 39.46-.007.007-.013.015-.02.021-.007.007-.015.013-.021.02-25.446 25.394-39.461 59.146-39.461 95.039 0 35.825 13.97 69.498 39.337 94.813 26.181 26.127 60.565 39.184 94.978 39.184 34.286 0 68.595-12.979 94.797-38.911.039-.037.081-.07.119-.108.048-.048.094-.098.142-.146s.098-.094.146-.142c.038-.038.07-.08.108-.119 51.91-52.45 51.883-137.347-.127-189.625-.014-.014-.024-.029-.038-.042-.008-.008-.016-.014-.024-.022-.028-.028-.055-.057-.083-.086-25.317-25.367-58.989-39.337-94.816-39.336zm113.59 124.452h-89.533l63.465-63.466c15.43 18.475 24.123 40.726 26.068 63.466zm-26.024 83.222-63.351-63.222h89.346c-1.991 22.632-10.655 44.788-25.995 63.222zm-201.674-63.222h89.879l-63.503 63.503c-15.223-18.009-24.365-40.017-26.376-63.503zm26.394-83.444 20.255 20.214 43.143 43.231h-89.785c2.042-23.447 11.184-45.43 26.387-63.445zm97.628-40.577c23.485 2.011 45.494 11.152 63.502 26.375l-63.502 63.503zm-20 138.163v89.525c-22.738-1.946-44.991-10.633-63.464-26.062zm20 .158 63.219 63.348c-18.436 15.343-40.585 24.01-63.219 25.998zm-20-138.314v89.784l-43.231-43.143-20.213-20.255c18.015-15.203 39.998-24.345 63.444-26.386z"/><path id="XMLID_1708_" d="m469.589 250.576c-2.705-4.815-8.802-6.527-13.616-3.821-4.815 2.705-6.526 8.801-3.821 13.616 33.951 60.44 23.443 136.971-25.536 186.206-60.73 60.449-159.34 60.478-219.921.021-29.331-29.272-45.485-68.207-45.485-109.631 0-41.513 16.212-80.554 45.657-109.938l.182-.183c49.105-49.206 125.561-59.802 185.92-25.771 4.81 2.711 10.909 1.012 13.622-3.8 2.712-4.811 1.011-10.91-3.8-13.622-22.844-12.879-48.58-20.385-74.78-22.066v-151.587c0-5.522-4.478-10-10-10h-40-208-40c-5.522 0-10 4.478-10 10v465.818c0 19.95 16.231 36.182 36.182 36.182 0 0 254.764-.084 260.386-.084 44.829 0 89.675-16.984 123.908-50.932.038-.037.079-.068.116-.105.053-.053.104-.108.158-.161.043-.043.087-.084.13-.127.028-.028.051-.059.079-.087 27.401-27.616 44.536-62.552 49.558-101.071 4.883-37.468-2.553-76.127-20.939-108.857zm-276.69-37.863-.167.168c-33.225 33.156-51.522 77.224-51.522 124.087 0 31.04 8.041 60.836 23.123 87.032h-84.323v-326.576c24.92-22.143 63.22-21.289 87.097 2.588 16.271 16.271 37.669 24.409 59.074 24.407 14.472-.001 28.941-3.733 41.829-11.178v54.894c-28.262 8.162-53.877 23.301-75.111 44.578zm115.111-51.275c-4.634.231-9.263.646-13.874 1.249-2.053.269-4.094.58-6.126.918v-70.464c0-.002 0-.003 0-.005v-73.136h20zm-40-141.438v68.748c-24.92 21.827-63.021 20.861-86.761-2.879-27.399-27.399-69.249-31.743-101.239-13.047v-52.822zm-211.818 472c-8.923 0-16.182-7.259-16.182-16.182v-455.818h20v414c0 5.522 4.478 10 10 10h107.759c4.541 5.843 9.475 11.442 14.799 16.755 12.854 12.828 27.226 23.242 42.545 31.245z"/><path id="XMLID_1714_" d="m433.69 229.62c2.63 0 5.21-1.07 7.07-2.931 1.859-1.859 2.93-4.439 2.93-7.069s-1.07-5.21-2.93-7.07-4.44-2.93-7.07-2.93c-2.64 0-5.21 1.069-7.07 2.93-1.859 1.86-2.93 4.44-2.93 7.07s1.07 5.21 2.93 7.069c1.86 1.861 4.44 2.931 7.07 2.931z"/></svg>