<svg id="Capa_1" enable-background="new 0 0 511.98 511.98" height="512" viewBox="0 0 511.98 511.98" width="512" xmlns="http://www.w3.org/2000/svg"><path id="XMLID_1089_" d="m470.084 41.895c42.527 42.527 42.527 111.477 0 154.004l-212.902 212.903c-17.763 17.763-46.563 17.763-64.326 0l-89.678-89.678c-17.763-17.763-17.763-46.563 0-64.326l212.902-212.903c42.527-42.527 111.477-42.527 154.004 0z" fill="#b0e7f8"/><path id="XMLID_1124_" d="m233.139 94.032h151.824v217.795h-151.824z" fill="#d8ec84" transform="matrix(.707 -.707 .707 .707 -52.974 277.968)"/><path id="XMLID_2851_" d="m285.627 72.349 153.17 153.171 41.795-41.795c30.58-41.173 28.364-99.029-6.657-137.779l-7.901-7.901c-42.747-38.635-108.752-37.352-149.954 3.85z" fill="#f6838d"/><path id="XMLID_1047_" d="m171.295 387.566-104.725 104.725c-12.946 12.946-33.935 12.946-46.881 0-12.946-12.946-12.946-33.935 0-46.881l104.725-104.725z" fill="#ffcb7c"/><path id="XMLID_1238_" d="m511.98 118.898c0-31.759-12.368-61.616-34.824-84.073-22.458-22.457-52.315-34.825-84.074-34.825s-61.616 12.368-84.073 34.824l-212.902 212.902c-10.48 10.48-16.251 24.414-16.251 39.234s5.771 28.754 16.251 39.234l14.327 14.327-97.817 97.817c-16.824 16.824-16.824 44.199 0 61.023 8.412 8.412 19.462 12.618 30.512 12.618s22.1-4.206 30.512-12.618l97.817-97.817 14.327 14.327c10.479 10.48 24.413 16.251 39.234 16.251s28.754-5.771 39.234-16.251l75.191-75.191c0-.001.001-.001.002-.002s.001-.001.002-.002l107.35-107.35c.001-.001.003-.003.004-.004s.002-.003.004-.004l30.349-30.349c22.457-22.455 34.825-52.313 34.825-84.071zm-452.481 366.321c-9.025 9.026-23.713 9.026-32.738 0-9.026-9.026-9.026-23.712 0-32.738l97.654-97.654 32.739 32.739zm190.612-83.488c-13.835 13.835-36.349 13.835-50.184 0l-89.679-89.679c-13.835-13.835-13.835-36.348 0-50.184l68.122-68.121 139.862 139.862zm189.62-189.621-38.109-38.109c-3.905-3.905-10.237-3.905-14.143 0s-3.905 10.237 0 14.143l38.109 38.109-93.213 93.214-139.862-139.862 93.214-93.213 38.11 38.111c1.953 1.953 4.512 2.929 7.071 2.929s5.119-.977 7.071-2.929c3.905-3.905 3.906-10.237 0-14.142l-38.111-38.111 23.283-23.282c18.679-18.681 43.515-28.968 69.931-28.968s51.252 10.287 69.931 28.967c18.68 18.679 28.967 43.514 28.967 69.931s-10.287 51.252-28.967 69.931z"/><path id="XMLID_1323_" d="m362.73 139.25c-2.63 0-5.21 1.07-7.07 2.93s-2.93 4.44-2.93 7.07 1.07 5.21 2.93 7.07 4.44 2.93 7.07 2.93 5.21-1.07 7.07-2.93 2.93-4.44 2.93-7.07-1.07-5.21-2.93-7.07-4.441-2.93-7.07-2.93z"/></svg>