<svg id="Capa_1" enable-background="new 0 0 512 512" height="512" viewBox="0 0 512 512" width="512" xmlns="http://www.w3.org/2000/svg"><path id="XMLID_855_" d="m323.333 267.474c.008-.012.016-.024.024-.036-.025.004-.034.016-.024.036z" fill="#ffd89e"/><path id="XMLID_980_" d="m323.358 267.437-.001.001.003.001z" fill="#ffd89e"/><path id="XMLID_981_" d="m412.943 10.001c-35.707.221-64.475 29.346-64.254 65.054.266 43.133-14.43 82.964-39.25 114.472 4.563 3.153 8.721 7.039 12.278 11.659 15.358 19.946 15.148 46.597 1.817 65.988 20.841-9.562 46.339-5.669 63.376 11.697 2.995 3.052 5.542 6.371 7.68 9.871 25.279-27.221 45.306-58.337 59.568-92.644 16.079-38.679 24.099-79.672 23.838-121.842-.219-35.708-29.343-64.475-65.053-64.255z" fill="#ffedd1"/><path id="XMLID_1365_" d="m77.517 326.429-30.293-.521c-6.989-.12-12.752 5.448-12.873 12.437l-.353 20.489c-.12 6.989 5.448 12.752 12.437 12.873l30.293.521z" fill="#d29976"/><path id="XMLID_2434_" d="m296.439 204.345-13.971 13.971c-35.218 35.218-79.322 59.954-126.92 72.078-24.879 6.337-77.788 40.434-77.788 40.434l-1.263 38.297 23.38 16.039c39.416 27.04 89.656 32.995 134.221 15.711.663-.257 1.325-.516 1.986-.776 52.407-20.637 99.769-52.295 139.596-92.122l12.195-12.195-61.668-31.462z" fill="#ffcb7c"/><path id="XMLID_1364_" d="m326.069 311.428c10.988-10.988 11.82-28.843 1.325-40.302-.313-.341-.634-.677-.965-1.008-1.021-1.021-2.101-1.95-3.219-2.801 20.9-9.751 46.575-5.902 63.701 11.553 21.627 22.043 20.809 57.654-1.027 79.49-30.201 30.2-51.304 68.282-60.901 109.899l-7.782 33.741h-1.212c-33.204 0-58.714-29.4-54.033-62.272 6.919-48.58 29.417-93.602 64.113-128.3z" fill="#ffe6c0"/><path id="XMLID_1361_" d="m142.975 298.268c-33.188-1.023-57.781-31.195-52.089-63.907l.208-1.195 34.574-1.882c42.647-2.322 83.782-16.585 118.712-41.162 24.649-17.343 58.949-12.816 77.337 11.063 15.437 20.048 15.151 46.873 1.616 66.288-.646-1.248-1.376-2.471-2.207-3.652-7.53-10.703-20.553-15.239-32.567-12.49l-8.193 5.764c-40.132 28.237-88.344 42.685-137.391 41.173z" fill="#ffe6c0"/><path id="XMLID_742_" d="m487.997 74.194c-.253-41.01-33.692-74.194-74.648-74.194-.153 0-.313 0-.467.001-41.165.255-74.447 33.951-74.193 75.115.227 36.771-10.79 71.641-31.931 101.333-21.161-10.349-47.394-9.098-68.132 5.495-33.435 23.524-72.683 37.133-113.502 39.354l-34.574 1.883c-4.649.253-8.509 3.683-9.308 8.27l-.208 1.196c-3.21 18.448 1.734 37.353 13.564 51.868 4.814 5.906 10.582 10.823 16.978 14.639-11.998 6.547-23.284 13.331-30.654 17.88-1.012-.367-2.097-.584-3.233-.604l-30.293-.521c-.133-.003-.263-.004-.396-.004-12.312 0-22.435 9.908-22.646 22.267l-.354 20.489c-.214 12.491 9.773 22.829 22.264 23.043l30.293.521c.059.002.117.002.176.002.37 0 .734-.024 1.095-.063l16.393 11.245c26.228 17.993 56.852 27.233 87.697 27.233 18.833 0 37.748-3.444 55.797-10.444.679-.263 1.356-.528 2.034-.795 7.04-2.772 14.044-5.772 20.978-8.964-3.92 12.346-6.838 25.02-8.67 37.879-2.64 18.538 2.885 37.283 15.157 51.427 12.271 14.144 30.05 22.255 48.775 22.255h1.212c4.657 0 8.697-3.215 9.744-7.753l7.781-33.74c2.159-9.36 4.966-18.664 8.343-27.653 1.942-5.17-.674-10.936-5.845-12.878-5.17-1.943-10.936.676-12.878 5.845-3.688 9.813-6.752 19.973-9.108 30.192l-5.879 25.492c-10.427-1.565-20.033-6.793-27.04-14.867-8.472-9.764-12.285-22.703-10.463-35.5 6.57-46.134 28.335-89.688 61.284-122.64 12.542-12.542 15.08-31.238 7.331-46.006 14.109-1.999 28.765 2.711 39.191 13.272 17.719 17.943 17.337 47.339-.849 65.524-1.685 1.685-3.377 3.428-5.027 5.182-3.785 4.021-3.593 10.351.429 14.136 1.931 1.817 4.394 2.718 6.852 2.718 2.661 0 5.316-1.056 7.284-3.146 1.512-1.605 3.06-3.201 4.604-4.744 20.354-20.355 24.986-50.626 13.756-75.156 23.829-26.812 42.894-57.174 56.681-90.34 16.594-39.92 24.873-82.226 24.605-125.744zm-387.908 168.498 26.123-1.423c44.566-2.426 87.419-17.284 123.922-42.969 21.039-14.804 50.062-10.138 64.704 10.394 8.909 12.494 10.89 28.37 5.895 42.264-.749-.6-1.497-1.171-2.245-1.718-13.009-9.502-30.642-9.634-43.875-.322-38.112 26.813-84.753 40.772-131.329 39.355-12.921-.398-25.015-6.374-33.182-16.394-6.755-8.287-10.258-18.647-10.013-29.187zm-55.346 118.205c-.349-.361-.762-.982-.746-1.893l.353-20.489c.016-.909.45-1.516.811-1.864s.996-.761 1.892-.746l20.524.353-.851 25.796-20.118-.346c-.91-.016-1.516-.449-1.865-.811zm274.255-56.541c-19.811 19.812-35.91 43.138-47.588 68.508-12.674 6.693-25.772 12.724-38.99 17.93-.646.255-1.293.507-1.938.758-41.447 16.075-88.155 10.605-124.947-14.635l-18.862-12.938.908-27.528c9.266-5.794 31.494-19.367 50.588-28.502 1.492.151 2.99.269 4.5.315 2.378.073 4.754.11 7.132.109 48.484 0 96.637-15.179 136.32-43.098 6.22-4.375 14.484-4.331 20.569.114.708.517 1.428 1.091 2.155 1.691-39.422 36.09-87.394 62.032-139.588 75.346-5.352 1.364-8.583 6.81-7.218 12.161 1.153 4.522 5.22 7.53 9.683 7.53.817 0 1.649-.101 2.479-.313 55.502-14.156 106.511-41.778 148.408-80.21 3.793 7.198 2.534 16.618-3.611 22.762zm76.178-31.279c-.425-.456-.84-.919-1.281-1.366-14.067-14.245-33.518-21.067-52.655-19.431 4.89-18.571 1.502-38.901-10.119-55.197-2.399-3.365-5.078-6.419-7.965-9.185 23.526-33.096 35.786-71.944 35.532-112.905-.187-30.137 24.18-54.806 54.316-54.992.115-.001.228-.001.343-.001 29.981 0 54.466 24.296 54.65 54.317.252 40.826-7.511 80.508-23.073 117.941-12.265 29.506-28.987 56.642-49.748 80.819z"/><path id="XMLID_746_" d="m353.62 388.97c-2.63 0-5.21 1.07-7.07 2.93s-2.93 4.44-2.93 7.07c0 2.64 1.069 5.21 2.93 7.07 1.86 1.859 4.44 2.93 7.07 2.93s5.21-1.07 7.069-2.93c1.86-1.86 2.931-4.431 2.931-7.07 0-2.63-1.07-5.21-2.931-7.07-1.859-1.86-4.439-2.93-7.069-2.93z"/></svg>