<svg id="Capa_1" enable-background="new 0 0 512 512" height="512" viewBox="0 0 512 512" width="512" xmlns="http://www.w3.org/2000/svg"><path id="XMLID_1615_" d="m64 208h384v200h-384z" fill="#ffcb7c"/><path id="XMLID_1318_" d="m448 356h-317.333c-5.891 0-10.667-4.776-10.667-10.667v-26.667c0-5.891 4.776-10.667 10.667-10.667h317.333z" fill="#d29976"/><path id="XMLID_1618_" d="m448 308h-317.333c-5.891 0-10.667-4.776-10.667-10.667v-26.667c0-5.891 4.776-10.667 10.667-10.667h317.333z" fill="#ffd89e"/><path id="XMLID_2531_" d="m448 208-300-160c-52.495 35.161-84 94.183-84 157.366v2.634z" fill="#ffedd1"/><path id="XMLID_1348_" d="m446 464h-380c-30.928 0-56-25.072-56-56h492c0 30.928-25.072 56-56 56z" fill="#dff6fc"/><circle id="XMLID_1340_" cx="295.275" cy="128.352" fill="#f5737f" r="39.149"/><circle id="XMLID_1335_" cx="216.851" cy="128.352" fill="#f5737f" r="39.149"/><path id="XMLID_1311_" d="m152 208h16.778c13.669 0 24.75 11.081 24.75 24.75v61.583c0 13.523 10.963 24.486 24.486 24.486 13.523 0 24.486-10.963 24.486-24.486v-2.083c0-9.251 7.499-16.75 16.75-16.75 9.251 0 16.75-7.499 16.75-16.75v-26c0-13.669 11.081-24.75 24.75-24.75h2.25z" fill="#ffedd1"/><path id="XMLID_578_" d="m502 398h-44v-190c0-3.821-2.145-7.139-5.294-8.822v-.001l-109.828-58.575c1.009-3.917 1.546-8.022 1.546-12.25 0-23.205-16.171-42.692-37.832-47.819 3.7-11.852 14.777-20.478 27.832-20.478 5.523 0 10-4.478 10-10s-4.477-10-10-10c-23.978 0-43.988 17.265-48.284 40.013-12.216 2.307-22.849 9.139-30.077 18.693-5.868-7.757-13.983-13.716-23.365-16.921l-4.211-2.246c3.981-11.364 14.807-19.539 27.513-19.539 5.523 0 10-4.478 10-10s-4.477-10-10-10c-20.334 0-37.823 12.413-45.289 30.058l-58.005-30.936c-3.257-1.738-7.206-1.54-10.271.515-55.375 37.091-88.435 99.024-88.435 165.674v2.634 190h-44c-5.523 0-10 4.478-10 10 0 36.393 29.607 66 66 66h145.063c5.523 0 10-4.478 10-10s-4.477-10-10-10h-145.063c-21.931 0-40.327-15.429-44.905-36h42.905 384 42.905c-4.579 20.571-22.975 36-44.905 36h-144.937c-5.523 0-10 4.478-10 10s4.477 10 10 10h144.937c36.393 0 66-29.607 66-66 0-5.522-4.477-10-10-10zm-372-100.667v-26.666c0-.368.299-.667.667-.667h52.862v24.333c0 1.239.069 2.461.197 3.667h-53.059c-.368 0-.667-.298-.667-.667zm0 21.334c0-.368.299-.667.667-.667h62.3c6.291 6.655 15.19 10.819 25.048 10.819s18.757-4.165 25.048-10.819h194.937v28h-307.333c-.368 0-.667-.299-.667-.667zm170.75-100.667h2.25 135v32h-152v-17.25c0-8.132 6.617-14.75 14.75-14.75zm-17.239 52h154.489v28h-185.697c.128-1.206.197-2.428.197-3.667v-2.083c0-3.722 3.028-6.75 6.75-6.75 10.733 0 20.004-6.356 24.261-15.5zm11.764-170.796c16.072 0 29.148 13.076 29.148 29.148s-13.075 29.148-29.148 29.148-29.148-13.076-29.148-29.148 13.076-29.148 29.148-29.148zm-78.423 0c16.072 0 29.148 13.076 29.148 29.148s-13.076 29.148-29.148 29.148-29.148-13.076-29.148-29.148 13.075-29.148 29.148-29.148zm-68.17-39.506 46.266 24.675c-16.134 8.069-27.245 24.746-27.245 43.979 0 27.101 22.048 49.148 49.148 49.148 15.998 0 30.232-7.687 39.212-19.558 8.98 11.871 23.214 19.558 39.212 19.558 15.725 0 29.738-7.432 38.741-18.958l73.984 39.458h-105-2.25c-19.161 0-34.75 15.589-34.75 34.75v26c0 3.722-3.028 6.75-6.75 6.75-14.75 0-26.75 12-26.75 26.75v2.083c0 7.987-6.499 14.486-14.486 14.486s-14.486-6.499-14.486-14.486v-61.583c0-19.161-15.589-34.75-34.75-34.75h-16.778-77.832c2.248-55.162 29.632-106.057 74.514-138.302zm-74.682 338.302v-180h78 16.778c8.133 0 14.75 6.617 14.75 14.75v17.25h-52.862c-11.395 0-20.666 9.272-20.666 20.667v26.666c0 3.906 1.109 7.548 2.999 10.667-1.89 3.119-2.999 6.761-2.999 10.667v26.666c0 11.396 9.271 20.667 20.667 20.667h307.333v32z"/><path id="XMLID_798_" d="m256.06 453.94c-2.63 0-5.21 1.061-7.07 2.92-1.86 1.87-2.93 4.44-2.93 7.08 0 2.63 1.07 5.21 2.93 7.07s4.44 2.93 7.07 2.93 5.21-1.069 7.08-2.93c1.86-1.87 2.92-4.44 2.92-7.07s-1.06-5.21-2.92-7.08c-1.87-1.86-4.45-2.92-7.08-2.92z"/></svg>