<svg id="Capa_1" enable-background="new 0 0 512 512" height="512" viewBox="0 0 512 512" width="512" xmlns="http://www.w3.org/2000/svg"><path id="XMLID_2116_" d="m366 198h60c30.928 0 56 25.072 56 56v152c0 30.928-25.072 56-56 56h-60v-44h60c6.617 0 12-5.383 12-12v-152c0-6.617-5.383-12-12-12h-60z" fill="#dff6fc"/><path id="XMLID_2062_" d="m54 70h288v48h-288z" fill="#dff6fc"/><path id="XMLID_1967_" d="m162 118h164v40c22.091 0 40 17.909 40 40v264c0 22.091-17.909 40-40 40h-164-92c-22.091 0-40-17.909-40-40v-264c0-22.091 17.909-40 40-40v-40z" fill="#f8a2aa"/><path id="XMLID_2024_" d="m70 118h256v40h-256z" fill="#dff6fc"/><path id="XMLID_1962_" d="m358.046 389.791-39.341 39.341c-10.605 10.605-27.798 10.605-38.403 0l-39.341-39.341c-10.605-10.605-10.605-27.798 0-38.403l39.341-39.341c10.605-10.605 27.798-10.605 38.403 0l39.341 39.341c10.605 10.605 10.605 27.798 0 38.403z" fill="#f9f9f9"/><g fill="#d8ec84"><ellipse id="XMLID_1872_" cx="297.45" cy="237.086" rx="21.324" ry="39.086"/><ellipse id="XMLID_1871_" cx="95.168" cy="249.371" rx="39.086" ry="21.324" transform="matrix(.707 -.707 .707 .707 -148.458 140.333)"/><path id="XMLID_2342_" d="m166.567 502c53.379 0 96.651-43.272 96.651-96.651s-43.272-96.651-96.651-96.651z"/></g><path id="XMLID_2341_" d="m166.567 343.833c33.975 0 61.517 27.542 61.517 61.517s-27.542 61.517-61.517 61.517z" fill="#f0f7cd"/><path id="XMLID_2292_" d="m166.567 502c-53.379 0-96.651-43.272-96.651-96.651s43.272-96.651 96.651-96.651z" fill="#d8ec84"/><path id="XMLID_1303_" d="m166.567 343.833c-33.975 0-61.517 27.542-61.517 61.517s27.542 61.517 61.517 61.517z" fill="#f0f7cd"/><ellipse id="XMLID_2489_" cx="202.686" cy="186.686" fill="#d8ec84" rx="21.324" ry="39.086" transform="matrix(.707 -.707 .707 .707 -72.642 198)"/><path id="XMLID_1285_" d="m302.874 189.599c-3.302-2.133-7.545-2.13-10.846-.001-16.218 10.469-25.901 28.221-25.901 47.488 0 19.266 9.682 37.019 25.9 47.487 1.651 1.065 3.537 1.599 5.423 1.599s3.773-.533 5.423-1.599c16.218-10.469 25.9-28.222 25.9-47.487.001-19.268-9.681-37.02-25.899-47.487zm-5.423 73.908c-7.185-6.827-11.324-16.303-11.324-26.421 0-10.119 4.139-19.595 11.324-26.421 7.184 6.826 11.323 16.302 11.323 26.421 0 10.118-4.139 19.594-11.323 26.421z"/><path id="XMLID_1312_" d="m65.424 286.784c4.007.863 8.035 1.286 12.029 1.286 14.816 0 29.133-5.819 39.864-16.551 13.624-13.624 19.33-33.023 15.264-51.894-.828-3.841-3.829-6.842-7.67-7.669-18.872-4.065-38.269 1.642-51.893 15.265-13.624 13.624-19.33 33.023-15.264 51.894.828 3.841 3.829 6.842 7.67 7.669zm21.737-45.42c7.156-7.156 16.787-10.948 26.689-10.676.253 9.907-3.52 19.534-10.675 26.689-7.155 7.154-16.793 10.953-26.689 10.675-.253-9.906 3.52-19.532 10.675-26.688z"/><path id="XMLID_1320_" d="m228.502 441.107c.117-.203.216-.412.317-.62 5.886-10.386 9.264-22.371 9.264-35.138 0-12.763-3.377-24.746-9.26-35.13-.103-.211-.203-.423-.322-.629-.113-.196-.241-.378-.365-.564-12.463-21.045-35.39-35.194-61.57-35.194-26.179 0-49.104 14.147-61.567 35.189-.125.187-.254.371-.368.569-.121.209-.222.423-.326.637-5.88 10.382-9.255 22.362-9.255 35.122 0 12.763 3.377 24.746 9.26 35.13.103.21.203.422.321.628.085.148.189.277.281.418 12.443 21.125 35.414 35.34 61.655 35.34 26.243 0 49.215-14.218 61.658-35.345.09-.139.193-.267.277-.413zm-113.451-35.757c0-5.809.98-11.389 2.761-16.603l28.756 16.603-28.756 16.602c-1.781-5.214-2.761-10.794-2.761-16.602zm103.033 0c0 5.808-.98 11.389-2.761 16.602l-28.756-16.602 28.756-16.603c1.781 5.213 2.761 10.794 2.761 16.603zm-12.783-33.91-28.733 16.589v-33.214c11.358 2.244 21.379 8.235 28.733 16.625zm-48.734-16.625v33.214l-28.733-16.589c7.354-8.39 17.375-14.381 28.733-16.625zm-28.733 84.444 28.734-16.589v33.214c-11.359-2.244-21.38-8.235-28.734-16.625zm48.733 16.625v-33.214l28.734 16.589c-7.354 8.39-17.375 14.381-28.734 16.625z"/><path id="XMLID_1345_" d="m426 188h-51.017c-3.988-19.56-19.423-35.009-38.983-38.995v-21.005h6c5.523 0 10-4.478 10-10v-48c0-5.522-4.477-10-10-10h-98.993v-50c0-5.522-4.477-10-10-10s-10 4.478-10 10v50h-169.007c-5.523 0-10 4.478-10 10v48c0 5.522 4.477 10 10 10h6v21.005c-22.794 4.645-40 24.849-40 48.995v67c0 5.522 4.477 10 10 10s10-4.478 10-10v-67c0-16.542 13.458-30 30-30h94c-.26 15.162 5.571 29.87 16.537 40.834 10.731 10.732 25.046 16.552 39.864 16.552.867 0 1.736-.029 2.606-.069v89.581c-16.381-10.258-35.728-16.199-56.439-16.199-58.808 0-106.651 47.843-106.651 106.65 0 35.655 17.59 67.276 44.545 86.65h-34.462c-16.542 0-30-13.458-30-30v-106.999c0-5.522-4.477-10-10-10s-10 4.478-10 10v107c0 27.57 22.43 50 50 50h256c24.146 0 44.348-17.205 48.994-40h51.006c36.393 0 66-29.607 66-66v-152c0-36.393-29.607-66-66-66zm-168.765 161.256 30.138-30.138c3.24-3.241 7.548-5.025 12.13-5.025s8.89 1.784 12.131 5.025l39.341 39.341c3.24 3.24 5.024 7.548 5.024 12.13 0 4.583-1.784 8.891-5.025 12.131l-39.341 39.342c-6.689 6.688-17.572 6.688-24.261 0l-14.187-14.188c.02-.839.032-1.68.032-2.524.001-20.566-5.857-39.787-15.982-56.094zm118.765-97.256h50c1.103 0 2 .897 2 2v152c0 1.103-.897 2-2 2h-50zm-20-54v137.199l-30.224-30.224c-7.018-7.018-16.349-10.883-26.273-10.883s-19.255 3.865-26.273 10.883l-28.21 28.21c-.661-.718-1.333-1.427-2.014-2.127v-163.058h82.994c16.542 0 30 13.458 30 30zm-40-50h-72.993v-20h72.993zm16-68v28h-6-82.993v-28zm-268 0h159.007v28h-153.007-6zm159.007 48v20h-37.082c-.664-.011-1.329-.012-1.995 0h-103.93v-20zm-1.638 77.368c-9.907.276-19.535-3.521-26.689-10.675 0-.001 0-.001 0-.001-7.155-7.154-10.928-16.781-10.675-26.688.413-.012.824-.006 1.235-.004h.658c9.229.219 18.097 3.98 24.796 10.68 7.154 7.154 10.928 16.781 10.675 26.688zm-141.452 199.982c0-47.779 38.872-86.65 86.651-86.65s86.65 38.871 86.65 86.65-38.871 86.65-86.651 86.65-86.65-38.871-86.65-86.65zm246.083 86.65h-94v-2.49c18.146-14.14 31.616-34.009 37.672-56.865l3.559 3.559c7.243 7.243 16.758 10.864 26.272 10.864s19.029-3.621 26.273-10.864l30.224-30.224v56.02c0 16.542-13.458 30-30 30zm146-86c0 25.364-20.636 46-46 46h-50v-24h50c12.131 0 22-9.869 22-22v-152c0-12.131-9.869-22-22-22h-50v-24h50c25.364 0 46 20.636 46 46z"/><path id="XMLID_1400_" d="m30 320c2.63 0 5.21-1.07 7.07-2.931 1.86-1.859 2.93-4.439 2.93-7.069s-1.07-5.21-2.93-7.07-4.44-2.93-7.07-2.93-5.21 1.069-7.07 2.93c-1.86 1.86-2.93 4.44-2.93 7.07 0 2.64 1.07 5.21 2.93 7.069 1.86 1.861 4.44 2.931 7.07 2.931z"/></svg>