<svg id="Capa_1" enable-background="new 0 0 512 512" height="512" viewBox="0 0 512 512" width="512" xmlns="http://www.w3.org/2000/svg"><g fill="#f0f7cd"><path id="XMLID_1130_" d="m451.035 28.668 4.078 19.59c6.885 33.077-14.348 65.473-47.425 72.358l-19.59 4.078-4.078-19.59c-6.885-33.077 14.348-65.473 47.425-72.358z"/><path id="XMLID_1778_" d="m277.981 28.668-4.078 19.59c-6.885 33.077 14.348 65.473 47.425 72.358l19.59 4.078 4.078-19.59c6.885-33.077-14.348-65.473-47.425-72.358z"/><path id="XMLID_1777_" d="m10.007 291.35 10.969 16.736c18.521 28.258 56.442 36.151 84.7 17.63l16.736-10.969-10.969-16.736c-18.521-28.258-56.442-36.151-84.7-17.63z"/><path id="XMLID_1298_" d="m132.375 168.982 16.736 10.969c28.258 18.521 36.151 56.442 17.63 84.7l-10.969 16.736-16.736-10.969c-28.258-18.521-36.151-56.442-17.63-84.7z"/></g><path id="XMLID_1280_" d="m57.991 216.966v20.01c0 33.786 27.389 61.176 61.176 61.176h20.01v-20.01c0-33.786-27.389-61.176-61.176-61.176z" fill="#d8ec84"/><path id="XMLID_1776_" d="m343.025 364.515v102.07c0 19.559-15.856 35.415-35.415 35.415h-102.07c-75.931 0-137.484-61.554-137.484-137.484 0-75.931 61.554-137.484 137.484-137.484 75.931-.001 137.485 61.553 137.485 137.483z" fill="#f5737f"/><path id="XMLID_1252_" d="m364.508 10-14.149 14.149c-23.891 23.891-23.891 62.625 0 86.515l14.149 14.149 14.149-14.149c23.891-23.891 23.891-62.625 0-86.515z" fill="#d8ec84"/><path id="XMLID_1232_" d="m461.724 315.883-72.174 72.174c-13.83 13.83-36.254 13.83-50.084 0l-72.174-72.174c-53.691-53.691-53.691-140.741 0-194.432 53.691-53.691 140.741-53.691 194.432 0 53.691 53.691 53.691 140.741 0 194.432z" fill="#f5737f"/><path id="XMLID_1480_" d="m173.7 275.211c-3.905-3.906-10.238-3.905-14.142.001-3.905 3.905-3.905 10.236 0 14.142l4.216 4.216c1.953 1.953 4.512 2.929 7.071 2.929s5.119-.977 7.071-2.93c3.905-3.905 3.905-10.236 0-14.142z"/><path id="XMLID_1481_" d="m134.595 336.891c3.905-3.905 3.905-10.236 0-14.142l-4.216-4.216c-3.905-3.906-10.238-3.905-14.142.001-3.905 3.905-3.905 10.236 0 14.142l4.216 4.216c1.953 1.953 4.512 2.929 7.071 2.929 2.558-.001 5.119-.977 7.071-2.93z"/><path id="XMLID_1482_" d="m294.362 420.015c2.559 0 5.118-.977 7.071-2.929 3.905-3.905 3.906-10.236 0-14.142l-4.216-4.217c-3.904-3.905-10.236-3.905-14.142-.001-3.905 3.905-3.906 10.236 0 14.142l4.216 4.217c1.952 1.953 4.511 2.93 7.071 2.93z"/><path id="XMLID_1483_" d="m239.752 442.049c-3.905 3.905-3.906 10.236 0 14.142l4.216 4.217c1.953 1.953 4.512 2.93 7.071 2.93s5.118-.977 7.071-2.929c3.905-3.905 3.906-10.236 0-14.142l-4.216-4.217c-3.904-3.905-10.236-3.905-14.142-.001z"/><path id="XMLID_1484_" d="m192.136 380.291c-3.905-3.906-10.238-3.905-14.142.001-3.905 3.905-3.905 10.236 0 14.142l4.216 4.216c1.953 1.953 4.512 2.929 7.071 2.929s5.119-.977 7.071-2.93c3.905-3.905 3.905-10.236 0-14.142z"/><path id="XMLID_1485_" d="m134.672 423.613c-3.905 3.905-3.906 10.236 0 14.142l4.216 4.217c1.953 1.953 4.512 2.93 7.071 2.93s5.118-.977 7.071-2.929c3.905-3.905 3.906-10.236 0-14.142l-4.216-4.217c-3.904-3.905-10.236-3.905-14.142-.001z"/><path id="XMLID_1487_" d="m235.458 336.969c-3.905-3.906-10.238-3.905-14.142.001-3.905 3.905-3.905 10.236 0 14.142l4.216 4.216c1.953 1.953 4.512 2.929 7.071 2.929s5.119-.977 7.071-2.93c3.905-3.905 3.905-10.236 0-14.142z"/><path id="XMLID_1488_" d="m182.918 327.751c-3.905-3.906-10.238-3.905-14.142.001-3.905 3.905-3.905 10.236 0 14.142l4.216 4.216c1.953 1.953 4.512 2.929 7.071 2.929s5.119-.977 7.071-2.93c3.905-3.905 3.905-10.236 0-14.142z"/><path id="XMLID_1489_" d="m136.741 392.36c2.559 0 5.119-.977 7.071-2.93 3.905-3.905 3.905-10.236 0-14.142l-4.216-4.216c-3.905-3.906-10.238-3.905-14.142.001-3.905 3.905-3.905 10.236 0 14.142l4.216 4.216c1.953 1.954 4.512 2.929 7.071 2.929z"/><path id="XMLID_1491_" d="m244.677 389.51c-3.904-3.905-10.236-3.905-14.142-.001-3.905 3.905-3.906 10.236 0 14.142l4.216 4.217c1.953 1.953 4.512 2.93 7.071 2.93s5.118-.977 7.071-2.929c3.905-3.905 3.906-10.236 0-14.142z"/><path id="XMLID_1492_" d="m187.211 432.831c-3.905 3.905-3.905 10.237 0 14.143l4.217 4.217c1.953 1.952 4.512 2.929 7.071 2.929s5.119-.977 7.071-2.929c3.905-3.905 3.905-10.237 0-14.143l-4.217-4.217c-3.904-3.904-10.236-3.904-14.142 0z"/><path id="XMLID_1500_" d="m511.993 218.667c0-39.395-15.341-76.432-43.198-104.288-4.782-4.782-9.818-9.157-15.057-13.144 11.013-15.91 15.174-35.755 11.165-55.015l-4.078-19.59c-.541-2.597-2.09-4.872-4.309-6.325-2.218-1.455-4.924-1.969-7.52-1.427l-19.589 4.078c-10.92 2.272-21.062 7.076-29.68 13.9-3.442-7.217-8.134-13.914-13.999-19.778l-14.149-14.149c-1.875-1.875-4.419-2.929-7.071-2.929s-5.196 1.054-7.071 2.929l-14.148 14.149c-5.828 5.828-10.501 12.559-13.937 19.827-8.631-6.85-18.796-11.671-29.741-13.949l-19.59-4.078c-2.596-.54-5.302-.028-7.52 1.427-2.218 1.453-3.768 3.729-4.309 6.325l-4.078 19.59c-4.009 19.26.152 39.105 11.166 55.016-5.24 3.987-10.276 8.362-15.058 13.144-27.575 27.575-42.877 64.148-43.183 103.097-3.822-.295-7.663-.446-11.497-.446-6.763 0-13.418.468-19.942 1.353-3.463-19.038-14.553-36.012-31.007-46.797l-16.735-10.969c-4.619-3.028-10.817-1.737-13.846 2.882l-10.969 16.735c-6.121 9.339-9.897 19.921-11.162 30.853-7.547-2.687-15.605-4.124-23.88-4.124h-20.01c-5.523 0-10 4.478-10 10v20.01c0 8.268 1.442 16.327 4.134 23.879-10.936 1.263-21.522 5.04-30.863 11.163l-16.736 10.97c-2.218 1.453-3.768 3.729-4.309 6.325s-.027 5.302 1.426 7.52l10.969 16.735c10.784 16.454 27.759 27.544 46.797 31.007-.886 6.524-1.353 13.179-1.353 19.942 0 20.06 3.959 39.514 11.768 57.821 1.621 3.8 5.317 6.079 9.203 6.079 1.308 0 2.639-.259 3.918-.805 5.08-2.167 7.442-8.042 5.275-13.122-6.745-15.813-10.165-32.626-10.165-49.974 0-70.295 57.189-127.484 127.484-127.484 4.241 0 8.485.234 12.697.65 4.118 32.19 18.66 61.95 41.983 85.273l72.175 72.175c.206.206.421.397.63.599v70.857c0 14.014-11.401 25.415-25.415 25.415h-102.069c-21.841 0-43.386-5.614-62.306-16.234-4.817-2.705-10.913-.991-13.615 3.824-2.703 4.816-.991 10.912 3.825 13.615 21.904 12.297 46.834 18.796 72.096 18.796h102.07c25.042 0 45.415-20.373 45.415-45.415v-59.652c3.761.977 7.621 1.476 11.483 1.476 11.63 0 23.26-4.427 32.113-13.28l72.174-72.175c27.856-27.856 43.198-64.892 43.198-104.287zm-382.223-27.468 5.487-8.371 8.372 5.486c11.96 7.839 19.96 20.235 22.357 34.111-10.982 3.061-21.45 7.362-31.246 12.745-3.845-5.077-8.317-9.569-13.277-13.392-.535-10.769 2.35-21.49 8.307-30.579zm-100.43 111.405-5.487-8.372 8.372-5.487c9.092-5.959 19.816-8.841 30.59-8.305 3.822 4.958 8.31 9.43 13.381 13.275-5.384 9.795-9.685 20.264-12.746 31.246-13.875-2.398-26.271-10.398-34.11-22.357zm57.702-25.792c-11.922-9.627-19.051-24.219-19.051-39.837v-10.01h10.009c15.644 0 30.216 7.125 39.837 19.051-11.715 8.694-22.101 19.08-30.795 30.796zm346.441-234.276 9.799-2.04 2.04 9.8c2.914 14-.194 28.422-8.311 39.928-9.928-5.6-20.37-9.961-31.102-13.08.884-6.348.909-12.696.114-18.9 7.233-7.973 16.839-13.497 27.46-15.708zm-68.975-18.393 7.079 7.078c7.334 7.334 12.106 16.477 14.031 26.263.011.053.018.106.03.159.959 4.959 1.193 10.078.635 15.217-14.428-2.136-29.113-2.136-43.541-.001-1.602-15.234 3.706-30.656 14.689-41.638zm-80.815 26.153 2.04-9.8 9.8 2.04c10.655 2.218 20.288 7.773 27.529 15.787-.807 6.203-.801 12.531.056 18.818-10.736 3.12-21.182 7.482-31.114 13.084-8.116-11.507-11.225-25.929-8.311-39.929zm170.96 258.516-72.174 72.175c-9.908 9.91-26.032 9.91-35.941 0l-72.175-72.175c-21.779-21.779-34.706-50.051-36.976-80.452-.004-.093-.015-.183-.021-.275-.226-3.118-.341-6.259-.341-9.417 0-34.053 13.261-66.067 37.339-90.146 24.854-24.854 57.499-37.279 90.145-37.279s65.293 12.427 90.146 37.28c24.079 24.078 37.339 56.092 37.339 90.145s-13.262 66.065-37.341 90.144z"/><path id="XMLID_1514_" d="m395.142 123.005c-5.523 0-10 4.478-10 10v5.963c0 5.522 4.477 10 10 10s10-4.478 10-10v-5.963c0-5.523-4.477-10-10-10z"/><path id="XMLID_1665_" d="m333.874 123.005c-5.523 0-10 4.478-10 10v5.963c0 5.522 4.477 10 10 10s10-4.478 10-10v-5.963c0-5.523-4.477-10-10-10z"/><path id="XMLID_1667_" d="m395.142 297.683c-5.523 0-10 4.478-10 10v5.963c0 5.522 4.477 10 10 10s10-4.478 10-10v-5.963c0-5.523-4.477-10-10-10z"/><path id="XMLID_1674_" d="m333.874 297.683c-5.523 0-10 4.478-10 10v5.963c0 5.522 4.477 10 10 10s10-4.478 10-10v-5.963c0-5.523-4.477-10-10-10z"/><path id="XMLID_1685_" d="m333.874 210.344c-5.523 0-10 4.478-10 10v5.963c0 5.522 4.477 10 10 10s10-4.478 10-10v-5.963c0-5.523-4.477-10-10-10z"/><path id="XMLID_1737_" d="m272.607 210.344c-5.523 0-10 4.478-10 10v5.963c0 5.522 4.477 10 10 10s10-4.478 10-10v-5.963c0-5.523-4.477-10-10-10z"/><path id="XMLID_1738_" d="m456.408 210.344c-5.523 0-10 4.478-10 10v5.963c0 5.522 4.477 10 10 10s10-4.478 10-10v-5.963c0-5.523-4.477-10-10-10z"/><path id="XMLID_1752_" d="m395.142 210.344c-5.523 0-10 4.478-10 10v5.963c0 5.522 4.477 10 10 10s10-4.478 10-10v-5.963c0-5.523-4.477-10-10-10z"/><path id="XMLID_1837_" d="m364.508 166.674c-5.523 0-10 4.478-10 10v5.963c0 5.522 4.477 10 10 10s10-4.478 10-10v-5.963c0-5.523-4.477-10-10-10z"/><path id="XMLID_1838_" d="m303.241 166.674c-5.523 0-10 4.478-10 10v5.963c0 5.522 4.477 10 10 10s10-4.478 10-10v-5.963c0-5.523-4.477-10-10-10z"/><path id="XMLID_1840_" d="m425.775 166.674c-5.523 0-10 4.478-10 10v5.963c0 5.522 4.477 10 10 10s10-4.478 10-10v-5.963c0-5.523-4.477-10-10-10z"/><path id="XMLID_1842_" d="m364.508 254.014c-5.523 0-10 4.478-10 10v5.963c0 5.522 4.477 10 10 10s10-4.478 10-10v-5.963c0-5.523-4.477-10-10-10z"/><path id="XMLID_1947_" d="m303.241 254.014c-5.523 0-10 4.478-10 10v5.963c0 5.522 4.477 10 10 10s10-4.478 10-10v-5.963c0-5.523-4.477-10-10-10z"/><path id="XMLID_1948_" d="m425.775 254.014c-5.523 0-10 4.478-10 10v5.963c0 5.522 4.477 10 10 10s10-4.478 10-10v-5.963c0-5.523-4.477-10-10-10z"/><path id="XMLID_1949_" d="m103.23 446.34c-2.64 0-5.21 1.07-7.07 2.94-1.87 1.859-2.93 4.43-2.93 7.069 0 2.63 1.06 5.21 2.93 7.07 1.86 1.86 4.43 2.92 7.07 2.92 2.63 0 5.21-1.06 7.07-2.92s2.93-4.44 2.93-7.07c0-2.64-1.07-5.21-2.93-7.069-1.86-1.87-4.44-2.94-7.07-2.94z"/></svg>