<svg id="Capa_1" enable-background="new 0 0 511.942 511.942" height="512" viewBox="0 0 511.942 511.942" width="512" xmlns="http://www.w3.org/2000/svg"><path id="XMLID_1217_" d="m336.748 144.893c-11.569 0-22.858 1.194-33.755 3.457-10.898-2.263-22.187-3.457-33.756-3.457-91.234 0-165.194 73.96-165.194 165.194s73.96 165.194 165.194 165.194c11.569 0 22.858-1.194 33.756-3.457 10.898 2.263 22.187 3.457 33.755 3.457 91.234 0 165.194-73.96 165.194-165.194s-73.96-165.194-165.194-165.194z" fill="#f5737f"/><path id="XMLID_1934_" d="m371.066 147.618c6.42-5.742 2.358-16.376-6.255-16.376h-38.588-3.314v-21.121c0-14.141 5.617-27.702 15.616-37.701l1.632-1.632c7.81-7.811 7.81-20.474 0-28.285-7.811-7.811-20.474-7.811-28.284 0l-1.633 1.633c-17.499 17.496-27.33 41.228-27.33 65.974v21.132h-3.346-38.388c-8.613 0-12.675 10.634-6.255 16.376l24.882 22.255-6.012 32.256c-1.536 8.242 7.685 14.208 14.573 9.427l34.63-24.035 34.583 24.003c6.905 4.792 16.15-1.188 14.609-9.45l-6.002-32.2z" fill="#d8ec84"/><path id="XMLID_1371_" d="m58.326 193.278c-64.512 64.512-64.512 169.108 0 233.62s169.108 64.512 233.62 0z" fill="#f8a2aa"/><path id="XMLID_1204_" d="m93.139 228.091c-45.286 45.286-45.286 118.708 0 163.994s118.708 45.286 163.994 0z" fill="#fbc2c7"/><path id="XMLID_1523_" d="m443.609 300.088c-5.522 0-10 4.478-10 10 0 53.409-43.452 96.86-96.861 96.86-5.522 0-10 4.478-10 10s4.478 10 10 10c64.438 0 116.861-52.424 116.861-116.86 0-5.522-4.477-10-10-10z"/><path id="XMLID_1524_" d="m138.986 356.238c2.56 0 5.119-.977 7.071-2.93l6.669-6.67c3.905-3.905 3.905-10.237-.001-14.142-3.904-3.906-10.237-3.905-14.142.001l-6.669 6.67c-3.905 3.905-3.905 10.237.001 14.142 1.953 1.954 4.512 2.929 7.071 2.929z"/><path id="XMLID_1525_" d="m175.905 386.155c.122 0 .244-.002.367-.007 5.52-.198 9.832-4.834 9.633-10.354l-.357-9.915c-.198-5.52-4.827-9.847-10.354-9.633-5.52.198-9.832 4.834-9.633 10.354l.357 9.915c.195 5.397 4.631 9.64 9.987 9.64z"/><path id="XMLID_1526_" d="m99.076 308.951c-.199 5.52 4.113 10.155 9.633 10.354l9.914.357c.123.005.245.007.367.007 5.355 0 9.792-4.243 9.986-9.64.199-5.52-4.113-10.155-9.633-10.354l-9.914-.357c-5.522-.245-10.155 4.114-10.353 9.633z"/><path id="XMLID_1537_" d="m472.48 199.311c-22.814-27.922-53.863-48.214-88.29-57.906.096-2.562-.309-5.173-1.272-7.695-2.893-7.573-10-12.467-18.106-12.467h-31.902v-11.121c0-11.569 4.506-22.447 12.687-30.629l1.633-1.633c11.696-11.697 11.696-30.729 0-42.427-11.697-11.695-30.729-11.698-42.426-.002l-1.631 1.63c-19.515 19.516-30.263 45.462-30.263 73.059v11.123h-31.733c-8.106 0-15.214 4.894-18.106 12.467-.963 2.521-1.368 5.131-1.272 7.693-24.389 6.862-47.222 19.066-66.562 35.653-18.037 15.471-32.789 34.543-43.244 55.746l-11.781-11.781-34.813-34.813c-3.906-3.904-10.236-3.904-14.143 0-55.573 55.573-67.312 142.064-28.546 210.33 2.728 4.804 8.832 6.485 13.633 3.758 4.803-2.727 6.485-8.831 3.758-13.633-32.684-57.557-24.835-129.741 18.453-179.015l20.722 20.722c-19.477 22.774-30.102 51.429-30.102 81.719 0 33.646 13.103 65.277 36.894 89.068 24.56 24.559 56.808 36.834 89.068 36.834 29.126 0 58.259-10.019 81.717-30.044l20.722 20.722c-48.914 42.94-120.685 51.015-178.021 19.013-4.823-2.689-10.914-.964-13.606 3.858-2.691 4.823-.964 10.914 3.858 13.606 26.008 14.516 55.731 22.115 85.585 22.115 7.601 0 15.212-.493 22.77-1.49 8.189-1.08 16.214-2.716 24.041-4.878 15.251 4.241 31.059 6.39 47.035 6.39 11.337 0 22.682-1.095 33.756-3.257 11.073 2.162 22.418 3.257 33.755 3.257 96.603 0 175.194-78.592 175.194-175.194 0-40.292-14.014-79.634-39.462-110.778zm-189.571-58.069c5.522 0 10-4.478 10-10v-21.123c0-22.255 8.667-43.179 24.403-58.914l1.631-1.63c3.898-3.9 10.244-3.9 14.143 0 3.899 3.898 3.899 10.243 0 14.142l-1.633 1.634c-11.958 11.959-18.544 27.858-18.544 44.771v21.121c0 5.522 4.478 10 10 10h40.285l-23.677 21.178c-2.604 2.329-3.804 5.85-3.164 9.285l5.736 30.778-33.395-23.178c-1.715-1.19-3.708-1.785-5.702-1.785s-3.987.595-5.702 1.785l-33.395 23.178 5.737-30.778c.64-3.436-.56-6.956-3.164-9.285l-23.677-21.178h40.118zm-107.772 274.757c-27.132-.002-54.271-10.331-74.926-30.985-20.014-20.014-31.036-46.623-31.036-74.926 0-24.943 8.561-48.571 24.292-67.528l14.754 14.754c.025.025.05.051.076.076l134.365 134.365c-19.523 16.163-43.522 24.247-67.525 24.244zm161.611 49.283c-10.669 0-21.342-1.093-31.722-3.248-1.342-.279-2.725-.279-4.066 0-10.381 2.155-21.055 3.248-31.723 3.248-3.942 0-7.872-.156-11.782-.45 15.131-8.065 29.105-18.406 41.563-30.864 3.905-3.905 3.905-10.237 0-14.143l-34.813-34.813-137.166-137.164c19.5-44.591 58.475-77.305 105.821-88.656l16.08 14.382-4.981 26.723c-1.445 7.757 1.901 15.539 8.527 19.825 6.625 4.286 15.095 4.147 21.579-.352l28.928-20.077 28.929 20.078c3.332 2.312 7.188 3.472 11.05 3.472 3.652 0 7.31-1.038 10.53-3.122 6.625-4.286 9.972-12.068 8.525-19.824l-4.98-26.723 16.088-14.39c69.06 16.601 118.807 79.48 118.807 150.904 0 85.574-69.62 155.194-155.194 155.194z"/><path id="XMLID_1545_" d="m58.752 417.323c-2.63 0-5.21 1.061-7.069 2.931-1.86 1.859-2.931 4.439-2.931 7.069 0 2.631 1.07 5.21 2.931 7.07 1.859 1.86 4.439 2.93 7.069 2.93s5.21-1.069 7.07-2.93c1.86-1.86 2.93-4.439 2.93-7.07 0-2.63-1.069-5.21-2.93-7.069-1.86-1.87-4.44-2.931-7.07-2.931z"/></svg>