<svg id="Capa_1" enable-background="new 0 0 512 512" height="512" viewBox="0 0 512 512" width="512" xmlns="http://www.w3.org/2000/svg"><ellipse id="XMLID_824_" cx="247.529" cy="59.831" fill="#d8ec84" rx="102.309" ry="49.831"/><path id="XMLID_1051_" d="m103.669 85.043c17.693 43.377 26.664 89.123 26.664 135.966v64.064c0 11.046 8.954 20 20 20s20-8.954 20-20v-64.064c0-39.066-5.616-77.445-16.73-114.541 53.808 18.799 99.088 56.587 127.273 107.262l16.507 29.68c3.657 6.575 10.471 10.283 17.497 10.283 3.288 0 6.625-.813 9.702-2.525 9.653-5.369 13.127-17.547 7.758-27.199l-16.507-29.681c-39.86-71.667-108.914-121.342-189.51-136.366z" fill="#f0c9b4"/><path id="XMLID_2245_" d="m451.153 230.278c-31.976-33.803-84.534-36.137-120.888-7.094-4.791 3.828-9.93 7.345-15.403 10.505-5.476 3.162-11.095 5.855-16.809 8.091-43.056 16.851-67.432 63.108-54.507 107.501 2.822 9.692 6.891 19.196 12.267 28.296 33.81 57.242 107.866 77.28 165.918 44.88 60.1-33.543 80.943-109.646 46.648-169.047-4.932-8.541-10.733-16.267-17.226-23.132z" fill="#f5737f"/><path id="XMLID_2244_" d="m270.07 350.265c-10.79-45.262-55.14-73.562-101.145-66.587-6.063.919-12.272 1.396-18.592 1.396-6.324 0-12.536-.477-18.602-1.398-45.714-6.935-89.952 20.937-100.955 65.845-2.402 9.804-3.63 20.07-3.525 30.639.659 66.479 54.774 120.86 121.249 121.827 68.82 1.001 124.922-54.485 124.922-123.075-.001-9.864-1.161-19.455-3.352-28.647z" fill="#f5737f"/><path id="XMLID_2250_" d="m110.678 107.811-35.114-26.956c-5.216-4.004-5.718-11.682-1.069-16.332l33.255-33.255c4.649-4.649 12.328-4.147 16.332 1.069l26.956 35.114c7.468 9.728 6.568 23.485-2.104 32.156l-6.1 6.1c-8.672 8.672-22.428 9.572-32.156 2.104z" fill="#d29976"/><path id="XMLID_21_" d="m148.497 456.49c-2.63 0-5.21 1.069-7.07 2.93-1.859 1.86-2.93 4.439-2.93 7.07 0 2.63 1.07 5.21 2.93 7.069 1.86 1.86 4.44 2.931 7.07 2.931 2.64 0 5.21-1.07 7.07-2.931 1.859-1.859 2.93-4.439 2.93-7.069 0-2.631-1.07-5.21-2.93-7.07-1.851-1.86-4.431-2.93-7.07-2.93z"/><path id="XMLID_30_" d="m394.046 381.42c-1.859 1.86-2.93 4.439-2.93 7.07 0 2.63 1.07 5.21 2.93 7.069 1.86 1.86 4.44 2.931 7.07 2.931s5.21-1.07 7.07-2.931c1.859-1.859 2.93-4.439 2.93-7.069 0-2.631-1.07-5.21-2.93-7.07s-4.44-2.93-7.07-2.93-5.209 1.07-7.07 2.93z"/><path id="XMLID_37_" d="m478.546 355.163c-5.062-2.21-10.956.1-13.168 5.16-9.949 22.773-26.728 41.239-48.521 53.402-44.083 24.604-98.679 16.99-134.451-18.234.673-5.457 1.015-10.991 1.015-16.581 0-10.46-1.22-20.878-3.624-30.966-4.223-17.716-13.258-33.636-26.01-46.293 7.337-22.89 24.898-41.553 47.911-50.559 6.225-2.437 12.336-5.378 18.164-8.743 5.824-3.362 11.425-7.182 16.646-11.353 32.977-26.344 79.142-23.7 107.381 6.153 6.054 6.4 11.38 13.554 15.83 21.261 3.872 6.706 7.061 13.802 9.476 21.089 1.738 5.243 7.397 8.081 12.639 6.346 5.242-1.737 8.083-7.396 6.346-12.639-2.842-8.573-6.59-16.916-11.14-24.796-5.229-9.059-11.495-17.471-18.621-25.005-17.147-18.128-40.418-28.863-65.524-30.228-20.438-1.11-40.635 4.057-58.079 14.665l-10.242-18.416c-14.955-26.889-33.798-50.791-56.155-71.315 35.139-5.229 66.915-23.573 89.291-52.112 2.841-3.623 2.841-8.717 0-12.34-26.74-34.1-66.898-53.659-110.18-53.659-39.015 0-75.486 15.897-101.883 44.007l-13.634-17.76c-3.662-4.77-9.203-7.729-15.203-8.122-5.997-.397-11.88 1.82-16.131 6.072l-33.255 33.255c-4.252 4.252-6.465 10.132-6.072 16.132s3.354 11.541 8.123 15.203l34.501 26.486c10.843 34.138 16.356 69.69 16.356 105.736v51.661c-20.347-.508-40.385 5.027-57.52 16.086-21.023 13.57-35.851 34.305-41.751 58.386-2.641 10.777-3.923 21.92-3.812 33.118.346 34.777 14.145 67.604 38.855 92.435 24.713 24.831 57.474 38.785 92.248 39.291.669.01 1.331.015 1.999.015 35.192-.002 68.294-13.556 93.396-38.294 16.008-15.776 27.514-34.861 33.886-55.735 17.987 14.586 39.772 24.449 62.886 28.226 7.099 1.16 14.253 1.733 21.395 1.733 22.563 0 44.951-5.725 64.688-16.74 25.643-14.312 45.389-36.048 57.103-62.859 2.212-5.062-.098-10.957-5.159-13.169zm-241.238-66.688c-17.015-10.854-36.832-16.299-56.975-15.8v-51.666c0-33.105-3.969-65.925-11.813-97.826 43.703 19.719 80.058 53.051 103.616 95.408l10.709 19.255c-20.687 11.218-36.795 29.15-45.537 50.629zm-91.315-172.334c9.518 34.026 14.339 69.269 14.339 104.868v53.608c-6.64.578-13.365.578-20 0v-53.608c0-33.35-4.469-66.305-13.269-98.213 6.714-.296 13.334-2.534 18.93-6.655zm161.1 83.007 11.339 20.389c-2.774 1.949-5.633 3.795-8.571 5.492-2.841 1.64-5.766 3.146-8.736 4.537l-11.511-20.696c-28.288-50.86-73.516-89.768-127.748-110.043 3.319-6.104 4.681-13.045 4.026-19.852 60.098 21.538 109.724 63.581 141.201 120.173zm29.703-139.317c-22.762 25.41-54.864 39.831-89.267 39.831-.464 0-.94-.021-1.41-.026-15.65-11.684-32.32-21.643-49.887-29.805h53.853c5.522 0 10-4.478 10-10s-4.478-10-10-10h-81.735c21.708-19.154 49.589-29.831 79.18-29.831 34.402 0 66.505 14.421 89.266 39.831zm-255.487 12.447c-.026-.4.188-.613.258-.684l33.255-33.255c.065-.066.26-.26.616-.26.021 0 .044.001.067.002.4.026.584.266.644.344l26.957 35.115c4.395 5.726 3.861 13.892-1.243 18.995l-6.1 6.1c-4.787 4.787-12.269 5.553-17.902 2.005-.002-.001-.005-.003-.007-.005-.371-.234-.733-.485-1.086-.756 0-.001 0-.001-.001-.001l-35.114-26.956c-.078-.061-.318-.244-.344-.644zm148.401 387.183c-21.331 21.022-49.457 32.539-79.366 32.539-.565 0-1.133-.004-1.699-.013-60.82-.885-110.792-51.095-111.396-111.927-.095-9.529.995-19.003 3.238-28.159 8.69-35.473 40.618-59.303 77.031-59.303 4.186 0 8.436.315 12.71.964 13.212 2.005 26.97 2.008 40.195.002 41.73-6.323 80.389 19.046 89.918 59.02 2.043 8.569 3.079 17.428 3.079 26.327 0 6.134-.492 12.188-1.441 18.124-.046.242-.089.484-.118.729-3.884 23.319-14.96 44.754-32.151 61.697z"/><path id="XMLID_43_" d="m491.827 313.42c-1.86-1.86-4.44-2.93-7.07-2.93-2.64 0-5.21 1.069-7.08 2.93-1.859 1.86-2.92 4.439-2.92 7.07 0 2.63 1.061 5.21 2.92 7.069 1.87 1.87 4.45 2.931 7.08 2.931s5.2-1.061 7.07-2.931c1.86-1.859 2.93-4.439 2.93-7.069-.001-2.631-1.07-5.21-2.93-7.07z"/></svg>