<svg id="Capa_1" enable-background="new 0 0 512 512" height="512" viewBox="0 0 512 512" width="512" xmlns="http://www.w3.org/2000/svg"><path id="XMLID_1044_" d="m401.099 76c-20.006 0-35.606 17.33-33.509 37.226l24.743 234.774h86l-44.075-244.288c-2.895-16.042-16.858-27.712-33.159-27.712z" fill="#d7bae9"/><path id="XMLID_1041_" d="m331.992 76c-19.464 0-35.242 15.778-35.242 35.242v236.758h96l-25.716-240.505c-1.915-17.911-17.029-31.495-35.042-31.495z" fill="#e6d4f1"/><path id="XMLID_1038_" d="m112.401 76c20.006 0 35.606 17.33 33.509 37.226l-24.743 234.774h-86l44.075-244.288c2.895-16.042 16.858-27.712 33.159-27.712z" fill="#d7bae9"/><path id="XMLID_1037_" d="m181.508 76c19.464 0 35.242 15.778 35.242 35.242v236.758h-96l25.716-240.505c1.915-17.911 17.029-31.495 35.042-31.495z" fill="#e6d4f1"/><path id="XMLID_1036_" d="m296.75 348h-80v-232c0-22.091 17.909-40 40-40 22.091 0 40 17.909 40 40z" fill="#d7bae9"/><path id="XMLID_2269_" d="m481.973 388h-451.946l47.875 48h356.238z" fill="#dff6fc"/><path id="XMLID_2268_" d="m482 388h-452c-11.046 0-20-8.954-20-20 0-11.046 8.954-20 20-20h452c11.046 0 20 8.954 20 20 0 11.046-8.954 20-20 20z" fill="#cff1fb"/><path id="XMLID_58_" d="m512 368c0-14.922-10.953-27.331-25.241-29.619l-42.66-236.445c-3.757-20.823-21.841-35.936-43-35.936-12.365 0-24.202 5.271-32.476 14.462-.588.653-1.148 1.326-1.692 2.009-8.327-10.114-20.927-16.471-34.939-16.471-14.944 0-28.213 7.288-36.456 18.491-9.175-11.273-23.151-18.491-38.786-18.491s-29.611 7.218-38.786 18.491c-8.243-11.203-21.512-18.491-36.456-18.491-14.012 0-26.612 6.357-34.938 16.471-.544-.683-1.104-1.356-1.692-2.009-8.274-9.191-20.111-14.462-32.477-14.462-21.159 0-39.243 15.113-43 35.937l-42.623 236.238c-15.032 1.613-26.778 14.372-26.778 29.825 0 15.028 11.109 27.509 25.545 29.667l45.276 45.394c1.876 1.881 4.424 2.938 7.08 2.938h356.239c2.658 0 5.207-1.059 7.083-2.941l45.234-45.392c14.436-2.159 25.543-14.638 25.543-29.666zm-128.512-274.158c4.552-5.057 10.807-7.842 17.611-7.842 11.474 0 21.28 8.195 23.318 19.487l41.95 232.513h-64.629l-24.312-227.37c-.261-6.206 1.858-12.118 6.062-16.788zm-76.738 17.4c0-13.919 11.323-25.242 25.242-25.242 12.934 0 23.724 9.698 25.099 22.559l.395 3.691c.039.674.088 1.349.159 2.023.038.359.096.711.17 1.057l23.809 222.67h-74.874v-222zm-50-25.242c16.542 0 30 13.458 30 30v222h-60v-222c0-16.542 13.458-30 30-30zm-75.242 0c13.919 0 25.242 11.323 25.242 25.242v4.758 222h-74.874l23.809-222.671c.074-.345.133-.697.17-1.056.071-.675.12-1.349.159-2.023l.395-3.691c1.375-12.861 12.165-22.559 25.099-22.559zm-92.425 19.487c2.038-11.292 11.845-19.487 23.318-19.487 6.804 0 13.059 2.785 17.61 7.842 4.204 4.671 6.323 10.582 6.062 16.788l-24.311 227.37h-64.629zm392.917 272.513h-.025c-.012 0-.023 0-.036 0h-180.876c-5.522 0-10 4.478-10 10s4.478 10 10 10h156.827l-27.903 28h-347.936l-27.927-28h156.94c5.522 0 10-4.478 10-10s-4.478-10-10-10h-181.015c-.007 0-.014 0-.021 0h-.028c-5.514 0-10-4.486-10-10s4.486-10 10-10h448.333 3.667c5.514 0 10 4.486 10 10s-4.486 10-10 10z"/><path id="XMLID_65_" d="m256.06 377.939c-2.63 0-5.21 1.061-7.069 2.931-1.86 1.859-2.931 4.43-2.931 7.069 0 2.63 1.07 5.21 2.931 7.07 1.869 1.86 4.439 2.93 7.069 2.93s5.21-1.069 7.07-2.93c1.87-1.87 2.93-4.44 2.93-7.07 0-2.64-1.06-5.21-2.93-7.069-1.86-1.87-4.441-2.931-7.07-2.931z"/></svg>