<svg id="Capa_1" enable-background="new 0 0 512 512" height="512" viewBox="0 0 512 512" width="512" xmlns="http://www.w3.org/2000/svg"><path id="XMLID_1472_" d="m39.111 224.25c80.073 71.667 201.633 71.667 281.705 0 5.041-4.511 5.867-12.104 1.978-17.639l-135.458-192.78c-3.589-5.107-11.157-5.107-14.746 0l-135.457 192.781c-3.889 5.534-3.063 13.127 1.978 17.638z" fill="#ffd89e"/><circle id="XMLID_1466_" cx="290.407" cy="181.87" fill="#f8a2aa" r="93.696"/><circle id="XMLID_1458_" cx="368.291" cy="252.712" fill="#fbc2c7" r="93.696"/><circle id="XMLID_1453_" cx="211.684" cy="252.712" fill="#fbc2c7" r="93.696"/><g fill="#d8ec84"><circle id="XMLID_1447_" cx="469.995" cy="184.17" r="32"/><circle id="XMLID_1442_" cx="453.705" cy="245.995" r="32"/><path id="XMLID_1436_" d="m115.851 184.535c1.211-2.455 2.201-5.064 2.937-7.809 4.455-16.626-1.651-33.585-14.195-43.783-15.963 2.56-29.73 14.193-34.185 30.819-1.591 5.937-1.828 11.914-.914 17.613-4.478-3.641-9.773-6.424-15.71-8.015-16.626-4.455-33.585 1.651-43.783 14.196 2.56 15.963 14.193 29.73 30.819 34.185 2.746.736 5.501 1.183 8.233 1.362z"/></g><path id="XMLID_1428_" d="m173.498 268.817-9.89 36.909c-4.629 17.277-22.389 27.531-39.666 22.901l-36.909-9.89c-37.661-10.091-60.011-48.803-49.92-86.464 10.091-37.661 48.803-60.011 86.464-49.92 37.663 10.091 60.012 48.803 49.921 86.464z" fill="#f5737f"/><path id="XMLID_1424_" d="m278.001 502h-44c-123.713 0-224.001-100.288-224.001-224h492c0 123.712-100.288 224-223.999 224z" fill="#dff6fc"/><path id="XMLID_82_" d="m395.144 395.144c-31.289 31.291-72.892 48.523-117.144 48.523-5.522 0-10 4.478-10 10s4.478 10 10 10c49.594 0 96.219-19.313 131.286-54.381 3.905-3.905 3.905-10.237 0-14.143-3.906-3.904-10.236-3.904-14.142.001z"/><path id="XMLID_85_" d="m502 268h-12.505c2.095-3.417 3.712-7.155 4.779-11.135 2.903-10.837 1.413-22.155-4.196-31.87-.594-1.029-1.234-2.015-1.9-2.974.952-.459 1.894-.945 2.818-1.479 20.056-11.58 26.951-37.317 15.372-57.373-3.855-6.677-9.339-12.049-15.911-15.698l10.165-37.935c1.43-5.334-1.736-10.817-7.071-12.247-5.337-1.429-10.817 1.737-12.247 7.071l-10.134 37.819c-7.701-.23-15.334 1.668-22.174 5.616-8.644 4.99-15.09 12.714-18.454 21.987-12.156-9.126-26.172-15.465-41.05-18.572-13.338-43.213-53.49-73.039-99.084-73.039-14.094 0-27.627 2.84-40.013 8.007l-54.877-78.098c-3.556-5.059-9.371-8.08-15.555-8.08s-11.999 3.021-15.556 8.081l-95.732 136.245c-.132.188-.247.384-.364.578-3.385 4.869-5.976 10.348-7.563 16.269-.321 1.199-.6 2.402-.834 3.609-1.163-.4-2.344-.761-3.543-1.082-19.882-5.326-41.132 1.559-54.13 17.546-1.797 2.21-2.566 5.08-2.115 7.892 2.681 16.714 13.257 30.887 27.971 38.37-.216.725-.446 1.443-.643 2.178-3.411 12.73-3.667 25.751-.851 38.314h-16.603c-5.522 0-10 4.478-10 10 0 62.504 24.34 121.267 68.537 165.463 44.197 44.197 102.959 68.537 165.463 68.537h44c44.028 0 86.928-12.296 124.063-35.56 4.681-2.933 6.098-9.104 3.166-13.783-2.933-4.681-9.104-6.096-13.783-3.166-33.949 21.268-73.178 32.509-113.446 32.509h-44c-114.651 0-208.532-90.62-213.77-204h471.541c-1.858 40.528-15.009 79.25-38.313 112.552-3.166 4.524-2.065 10.76 2.46 13.927 4.523 3.167 10.76 2.065 13.927-2.46 27.578-39.408 42.155-85.752 42.155-134.019 0-5.522-4.477-10-10-10zm-59.296-41.057c3.391-1.957 7.152-2.957 10.965-2.957 1.493 0 2.995.159 4.484.468.324.095.644.198.971.286.315.084.634.145.95.222 5.372 1.624 9.863 5.152 12.683 10.034 2.938 5.089 3.719 11.018 2.198 16.693-1.521 5.676-5.161 10.42-10.251 13.358-10.505 6.064-23.986 2.453-30.053-8.052-6.065-10.506-2.452-23.987 8.053-30.052zm6.04-48.466c1.521-5.677 5.162-10.421 10.251-13.359 3.456-1.995 7.232-2.942 10.963-2.942 7.608 0 15.019 3.945 19.089 10.995 6.065 10.506 2.453 23.987-8.052 30.053-4.88 2.816-10.526 3.628-15.988 2.351-.407-.114-.817-.218-1.227-.32-5.441-1.602-9.991-5.153-12.838-10.084-.788-1.365-1.408-2.793-1.883-4.257-.05-1.249-.33-2.493-.851-3.663-.408-2.894-.242-5.867.536-8.774zm-19.135 17.276c.939 3.251 2.278 6.411 4.014 9.417.593 1.027 1.232 2.015 1.899 2.978-.949.457-1.891.939-2.817 1.474-9.716 5.608-16.665 14.666-19.568 25.502-2.904 10.837-1.414 22.155 4.195 31.871.199.344.419.668.627 1.005h-103.714c.746-5.045 1.135-10.154 1.135-15.289 0-18.533-4.892-35.942-13.444-51.014 15.817-20.56 40.23-32.682 66.355-32.682 23.31 0 45.494 9.712 61.318 26.738zm-245.631 72.247c6.662-29.957-4.429-60.124-26.61-78.959 15.059-12.833 34.323-20.026 54.316-20.026 46.15 0 83.696 37.546 83.696 83.696 0 5.152-.478 10.268-1.404 15.289zm183.429-118.972c-29.977.254-58.063 13.37-77.455 35.733-18.678-21.486-46.037-35.229-76.559-35.725 7.636-17.986 21.219-32.442 38.065-41.279.187-.092.374-.184.557-.289 11.577-5.963 24.657-9.295 38.393-9.295 33.882 0 64.025 20.408 76.999 50.855zm-187.444-128.297 52.678 74.972c-19.256 12.895-34.068 32.17-41.25 55.333-19.235 3.85-37.116 13.102-51.408 26.771-3.317-1.58-6.77-2.958-10.362-4.092 2.787-18.183-4.227-36.748-18.721-48.531-.941-.765-2.006-1.331-3.131-1.708zm-100.996 153.673c.025-2.701.387-5.396 1.1-8.054 2.887-10.773 11.128-19.205 21.596-22.473 6.502 7.056 9.552 16.683 8.279 26.198-10.688-.618-21.19.927-30.975 4.329zm-58.032 16.081c8.063-7.431 19.487-10.351 30.261-7.466 2.287.613 4.468 1.464 6.531 2.536-8.581 6.269-15.954 14.247-21.558 23.596-7.244-4.007-12.743-10.686-15.234-18.666zm25.838 44.376c8.648-32.274 41.939-51.493 74.218-42.849 32.274 8.648 51.496 41.941 42.849 74.217l-.475 1.771h-116.092c-3.265-10.758-3.46-22.092-.5-33.139z"/><path id="XMLID_1035_" d="m432.3 430.38c-2.63 0-5.21 1.07-7.07 2.93-1.859 1.86-2.93 4.44-2.93 7.07s1.07 5.21 2.93 7.07c1.86 1.859 4.44 2.93 7.07 2.93s5.21-1.07 7.07-2.93c1.859-1.86 2.93-4.44 2.93-7.07s-1.07-5.21-2.93-7.07-4.44-2.93-7.07-2.93z"/></svg>