<svg id="Capa_1" enable-background="new 0 0 512.007 512.007" height="512" viewBox="0 0 512.007 512.007" width="512" xmlns="http://www.w3.org/2000/svg"><path id="XMLID_1184_" d="m17.488 372.809c135.593 121.359 341.439 121.359 477.031 0 8.535-7.639 9.935-20.497 3.349-29.869l-229.38-326.45c-6.077-8.648-18.893-8.648-24.97 0l-229.379 326.45c-6.586 9.372-5.187 22.229 3.349 29.869z" fill="#f5737f"/><path id="XMLID_1187_" d="m48.704 312.824 6.445 6.445c53.567 53.567 124.899 83.067 200.854 83.067 75.95 0 147.289-29.504 200.853-83.067l6.445-6.445 8.674-6.733 25.891 36.848c6.586 9.373 5.186 22.23-3.349 29.869-135.593 121.359-341.439 121.359-477.031 0-8.535-7.639-9.935-20.497-3.349-29.869l27.07-38.526z" fill="#d8ec84"/><path id="XMLID_1202_" d="m446.003 502.003h-380c-30.928 0-56-25.072-56-56h492c0 30.928-25.072 56-56 56z" fill="#dff6fc"/><path id="XMLID_1326_" d="m256.208 121.58c-5.551-.064-10.043 4.378-10.098 9.901l-.106 10.783c-.055 5.522 4.378 10.043 9.901 10.098h.101c5.477 0 9.943-4.413 9.998-9.901l.106-10.783c.054-5.522-4.379-10.043-9.902-10.098z"/><path id="XMLID_1327_" d="m256.208 302.221c-5.551-.064-10.043 4.378-10.098 9.901l-.106 10.783c-.055 5.522 4.378 10.043 9.901 10.098h.101c5.477 0 9.943-4.413 9.998-9.901l.106-10.783c.054-5.522-4.379-10.043-9.902-10.098z"/><path id="XMLID_1328_" d="m144.61 296.544-.106 10.783c-.055 5.522 4.378 10.043 9.901 10.098h.101c5.477 0 9.943-4.413 9.998-9.901l.106-10.783c.055-5.522-4.378-10.043-9.901-10.098-5.552-.059-10.044 4.378-10.099 9.901z"/><path id="XMLID_1329_" d="m347.504 296.544-.106 10.783c-.055 5.522 4.378 10.043 9.901 10.098h.101c5.477 0 9.943-4.413 9.998-9.901l.106-10.783c.055-5.522-4.378-10.043-9.901-10.098-5.525-.059-10.045 4.378-10.099 9.901z"/><path id="XMLID_1448_" d="m209.722 210.44c-5.477 0-9.943 4.413-9.998 9.901l-.106 10.783c-.055 5.522 4.378 10.043 9.901 10.098h.101c5.477 0 9.943-4.413 9.998-9.901l.106-10.783c.055-5.522-4.378-10.043-9.901-10.098-.034 0-.068 0-.101 0z"/><path id="XMLID_1449_" d="m302.388 210.44c-5.477 0-9.943 4.413-9.998 9.901l-.106 10.783c-.055 5.522 4.378 10.043 9.901 10.098h.101c5.477 0 9.943-4.413 9.998-9.901l.106-10.783c.055-5.522-4.378-10.043-9.901-10.098-.034 0-.068 0-.101 0z"/><path id="XMLID_1900_" d="m502.003 436.003h-83.282c29.754-14.649 57.369-33.28 82.467-55.743 12.293-11.002 14.384-29.519 4.862-43.07l-98.641-140.384c-3.175-4.519-9.413-5.608-13.931-2.433-4.519 3.175-5.608 9.413-2.433 13.931l67.333 95.826c-.767.435-1.493.969-2.146 1.623l-6.445 6.445c-51.678 51.678-120.498 80.138-193.782 80.138s-142.104-28.46-193.783-80.138l-6.445-6.445c-.654-.654-1.379-1.188-2.146-1.623l198.07-281.891c1.367-1.945 3.282-2.235 4.303-2.235s2.936.291 4.303 2.235l79.01 112.445c3.176 4.52 9.414 5.609 13.931 2.433 4.519-3.175 5.608-9.413 2.433-13.931l-79.011-112.445c-4.724-6.723-12.45-10.737-20.667-10.737s-15.943 4.014-20.667 10.737l-229.38 326.449c-9.521 13.551-7.431 32.067 4.862 43.069 25.098 22.464 52.713 41.094 82.467 55.744h-83.282c-5.523 0-10 4.477-10 10 0 36.393 29.607 66 66 66h380c36.393 0 66-29.607 66-66 0-5.523-4.477-10-10-10zm-477.846-70.646c-4.742-4.244-5.531-11.41-1.836-16.668l19.852-28.254 5.906 5.906c55.457 55.456 129.299 85.996 207.926 85.996 78.626 0 152.469-30.541 207.924-85.997l5.905-5.905 19.852 28.254c3.695 5.259 2.906 12.425-1.836 16.669-35.614 31.875-76.559 55.629-121.705 70.646h-220.283c-45.148-15.018-86.092-38.772-121.705-70.647zm421.846 126.646h-380c-21.931 0-40.327-15.428-44.905-36h122.998c.037 0 .075.004.112.004s.074-.004.111-.004h223.341c.045.001.09.005.136.005s.091-.005.136-.005h122.976c-4.578 20.572-22.974 36-44.905 36z"/><path id="XMLID_1921_" d="m373.363 175.753c2.63 0 5.21-1.07 7.07-2.93 1.86-1.87 2.93-4.44 2.93-7.07 0-2.64-1.07-5.21-2.93-7.08-1.86-1.86-4.44-2.92-7.07-2.92s-5.21 1.06-7.07 2.92c-1.86 1.87-2.93 4.44-2.93 7.08 0 2.63 1.07 5.21 2.93 7.07s4.44 2.93 7.07 2.93z"/></svg>