<svg id="Capa_1" enable-background="new 0 0 512 512" height="512" viewBox="0 0 512 512" width="512" xmlns="http://www.w3.org/2000/svg"><path id="XMLID_1753_" d="m177.324 10h157.351c11.046 0 20 8.954 20 20 0 11.046-8.954 20-20 20h-157.351c-11.046 0-20-8.954-20-20 0-11.046 8.955-20 20-20z" fill="#91def5"/><path id="XMLID_1659_" d="m327.833 50v53.472c0 22.015 7.396 43.391 21.002 60.698 25.372 32.274 39.165 72.137 39.165 113.189v162.138c0 34.52-27.983 62.503-62.502 62.503h-69.498-69.498c-34.519 0-62.502-27.983-62.502-62.502v-162.173c0-41.032 13.779-80.875 39.126-113.141l.017-.022c13.593-17.303 20.982-38.669 20.982-60.672v-53.49z" fill="#fff"/><path id="XMLID_1663_" d="m184.125 50v53.491c0 22.003-7.389 43.369-20.982 60.672l-.017.022c-1.677 2.135-3.303 4.303-4.879 6.502 26.99-26.989 70.749-26.989 97.739 0 26.99 26.99 70.749 26.99 97.739 0l.002-.001c-1.579-2.204-3.21-4.377-4.892-6.516-13.606-17.307-21.002-38.683-21.002-60.698v-53.472z" fill="#dff6fc"/><path id="XMLID_1107_" d="m362.101 165.222c-.039-.059-.082-.115-.122-.173-1.706-2.39-3.463-4.746-5.282-7.06-12.165-15.473-18.864-34.834-18.864-54.517v-43.64c15.063-1.582 26.843-14.356 26.843-29.832 0-16.542-13.458-30-30-30h-157.352c-16.542 0-30 13.458-30 30 0 15.461 11.758 28.225 26.801 29.827v43.664c0 19.646-6.675 38.974-18.797 54.433-.021.027-.044.056-.065.083-1.795 2.286-3.532 4.613-5.218 6.973-.061.087-.126.173-.184.261-23.179 32.572-35.861 72.024-35.861 112.084v162.173c0 39.978 32.524 72.502 72.502 72.502h138.996c39.978 0 72.502-32.524 72.502-72.502v-48.09c0-5.522-4.478-10-10-10s-10 4.478-10 10v48.09c0 28.949-23.553 52.502-52.502 52.502h-138.996c-28.949 0-52.502-23.553-52.502-52.502v-162.173c0-35.76 11.274-70.979 31.886-100.106 23.09-22.496 60.168-22.325 83.029.539 15.423 15.423 35.682 23.134 55.941 23.134 16.47 0 32.939-5.097 46.811-15.29 17.076 27.388 26.333 59.35 26.333 91.757v24.048c0 5.522 4.478 10 10 10s10-4.478 10-10v-24.048c0-40.083-12.695-79.553-35.899-112.137zm-194.777-135.222c0-5.514 4.486-10 10-10h157.352c5.514 0 10 4.486 10 10s-4.486 10-10 10h-157.352c-5.513 0-10-4.486-10-10zm95.734 133.615c-20.694-20.694-50.09-27.482-76.516-20.409 4.963-12.589 7.583-26.089 7.583-39.715v-43.491h123.708v43.473c0 23.685 7.925 46.979 22.312 65.776-10.142 7.579-22.399 11.681-35.289 11.681-15.79 0-30.633-6.15-41.798-17.315z"/><path id="XMLID_1159_" d="m388 336.41c-2.63 0-5.21 1.069-7.07 2.93s-2.93 4.43-2.93 7.07c0 2.63 1.069 5.21 2.93 7.069 1.86 1.86 4.44 2.931 7.07 2.931s5.21-1.07 7.069-2.931c1.86-1.859 2.931-4.439 2.931-7.069s-1.07-5.21-2.931-7.07c-1.859-1.861-4.439-2.93-7.069-2.93z"/></svg>