<svg id="Capa_1" enable-background="new 0 0 511.923 511.923" height="512" viewBox="0 0 511.923 511.923" width="512" xmlns="http://www.w3.org/2000/svg"><path id="XMLID_1064_" d="m477.947 33.976c-19.734-19.734-51.728-19.734-71.461 0l-372.51 372.509c-19.733 19.734-19.733 51.728 0 71.461 19.733 19.733 51.728 19.733 71.461 0l372.509-372.509c19.735-19.733 19.735-51.727.001-71.461z" fill="#f5737f"/><path id="XMLID_1353_" d="m102.265 481.12 378.855-378.855c27.789 27.789 27.789 72.844 0 100.633l-278.222 278.222c-27.789 27.789-72.844 27.789-100.633 0z" fill="#ffcb7c"/><path id="XMLID_1352_" d="m30.804 409.658 378.854-378.855c-27.789-27.789-72.844-27.789-100.633 0l-278.221 278.222c-27.79 27.789-27.79 72.844 0 100.633z" fill="#ffcb7c"/><path id="XMLID_1923_" d="m493.783 101.388c14.323-23.316 11.413-54.305-8.765-74.483-20.177-20.176-51.166-23.088-74.483-8.764-31.846-25.926-78.926-24.063-108.582 5.591l-278.221 278.222c-29.654 29.654-31.517 76.736-5.592 108.582-14.323 23.316-11.413 54.305 8.765 74.483 11.802 11.801 27.299 17.702 42.802 17.7 11.002-.001 22-2.99 31.681-8.936 14.855 12.094 33.024 18.141 51.194 18.141 20.783 0 41.565-7.911 57.388-23.732l278.222-278.222c29.654-29.655 31.517-76.737 5.591-108.582zm-455.908 214.708 278.221-278.221c11.923-11.923 27.584-17.884 43.245-17.884 12.499 0 24.998 3.796 35.596 11.39l-363.556 363.557c-17.11-23.879-14.945-57.404 6.494-78.842zm436.174-120.269-278.222 278.221c-21.437 21.437-54.953 23.59-78.831 6.484l149.948-149.948c3.905-3.905 3.905-10.237 0-14.142-3.906-3.905-10.236-3.905-14.143 0l-154.434 154.434c-15.802 15.802-41.516 15.804-57.319 0-15.803-15.803-15.803-41.517 0-57.319l186.254-186.255 186.254-186.255c15.803-15.802 41.517-15.803 57.319 0 15.803 15.803 15.803 41.516 0 57.319l-154.434 154.435c-3.905 3.905-3.905 10.237 0 14.143 3.906 3.905 10.236 3.905 14.143 0l149.948-149.948c17.107 23.878 14.954 57.394-6.483 78.831z"/><path id="XMLID_1925_" d="m341.543 181.835c2.439-15.241 14.318-27.12 29.56-29.56 23.794-3.808 42.34-22.354 46.147-46.147.873-5.454-2.84-10.582-8.294-11.455-5.441-.866-10.581 2.84-11.454 8.294-2.439 15.241-14.318 27.121-29.561 29.56-23.794 3.809-42.339 22.354-46.146 46.148-2.439 15.241-14.318 27.12-29.56 29.56-23.794 3.809-42.34 22.354-46.147 46.147-2.439 15.241-14.318 27.12-29.56 29.56-23.794 3.809-42.34 22.354-46.147 46.147-2.439 15.241-14.318 27.121-29.56 29.56-23.794 3.808-42.34 22.354-46.147 46.147-.873 5.454 2.84 10.582 8.294 11.455.535.085 1.066.127 1.593.127 4.825 0 9.074-3.503 9.861-8.421 2.439-15.241 14.318-27.121 29.561-29.56 23.794-3.809 42.339-22.354 46.146-46.148 2.439-15.241 14.318-27.12 29.56-29.56 23.794-3.809 42.34-22.354 46.147-46.147 2.439-15.241 14.318-27.12 29.56-29.56 23.793-3.808 42.339-22.353 46.147-46.147z"/><path id="XMLID_1936_" d="m291.691 281.692c-2.63 0-5.21 1.07-7.069 2.93-1.86 1.86-2.931 4.44-2.931 7.07s1.07 5.21 2.931 7.07c1.859 1.86 4.439 2.93 7.069 2.93s5.21-1.07 7.07-2.93 2.93-4.44 2.93-7.07-1.069-5.21-2.93-7.07c-1.86-1.861-4.44-2.93-7.07-2.93z"/></svg>