<svg id="Capa_1" enable-background="new 0 0 512 512" height="512" viewBox="0 0 512 512" width="512" xmlns="http://www.w3.org/2000/svg"><path id="XMLID_767_" d="m148 118h216v40h-216z" fill="#91def5"/><path id="XMLID_765_" d="m364 158h-216c-22.091 0-40 17.909-40 40v264c0 22.091 17.909 40 40 40h216c22.091 0 40-17.909 40-40v-264c0-22.091-17.909-40-40-40z" fill="#fbc2c7"/><path id="XMLID_752_" d="m404 256h-296v-58c0-22.091 17.909-40 40-40h216c22.091 0 40 17.909 40 40z" fill="#dff6fc"/><path id="XMLID_1460_" d="m201.769 502 86.231-492h44l-86.231 492z" fill="#fff"/><path id="XMLID_1429_" d="m346.523 443.108-28.638-28.638c-6.523-6.523-6.523-17.099 0-23.622l28.638-28.638c6.523-6.523 17.099-6.523 23.622 0l28.638 28.638c6.523 6.523 6.523 17.099 0 23.622l-28.638 28.638c-6.523 6.523-17.099 6.523-23.622 0z" fill="#dff6fc"/><path id="XMLID_3022_" d="m312.993 402.145c-37.744 37.744-98.94 37.744-136.685 0s-37.744-98.94 0-136.685z" fill="#d8ec84"/><path id="XMLID_3021_" d="m201.152 290.304c-24.024 24.024-24.024 62.974 0 86.998s62.974 24.024 86.998 0z" fill="#f0f7cd"/><path id="XMLID_1203_" d="m174.087 487.239v-42.791c0-8.153 6.609-14.762 14.761-14.762h42.791c8.153 0 14.761 6.609 14.761 14.762v42.791c0 8.153-6.609 14.761-14.761 14.761h-42.791c-8.152 0-14.761-6.609-14.761-14.761z" fill="#dff6fc"/><path id="XMLID_1944_" d="m374 149.006v-21.006h4c5.522 0 10-4.477 10-10s-4.478-10-10-10h-14-39.024l16.874-96.273c.51-2.91-.292-5.896-2.192-8.158-1.901-2.263-4.704-3.569-7.658-3.569h-44c-4.856 0-9.012 3.49-9.85 8.273l-17.478 99.727h-112.672-14c-5.522 0-10 4.477-10 10s4.478 10 10 10h4v21.006c-22.795 4.646-40 24.848-40 48.994v133c0 5.523 4.478 10 10 10s10-4.477 10-10v-65h44.318c-15.748 19.052-24.318 42.768-24.318 67.803 0 28.487 11.094 55.27 31.237 75.414 4.187 4.186 8.641 7.944 13.302 11.287-10.607 2.797-18.453 12.47-18.453 23.944v42.791c0 1.629.163 3.22.464 4.762h-16.55c-16.542 0-30-13.458-30-30v-41c0-5.523-4.478-10-10-10s-10 4.477-10 10v41c0 27.57 22.43 50 50 50h40.849 42.791 132.36c27.57 0 50-22.43 50-50v-264.001c0-24.146-17.205-44.348-40-48.994zm3.216 206.134c-5.043-5.044-11.749-7.822-18.882-7.822s-13.839 2.778-18.883 7.821l-28.638 28.638c-.343.343-.673.694-.994 1.051l-28.386-28.387 15.851-90.441h96.716v105.924zm16.459 47.519c0 1.791-.697 3.474-1.964 4.74l-28.638 28.638c-1.266 1.266-2.949 1.963-4.739 1.963-1.791 0-3.475-.697-4.74-1.963l-28.638-28.638c-2.613-2.614-2.613-6.866 0-9.479l28.638-28.638c1.266-1.267 2.949-1.964 4.74-1.964 1.79 0 3.474.697 4.739 1.964l28.638 28.638c1.267 1.266 1.964 2.949 1.964 4.739zm-191.829-97.518 23.486 23.486-32.048 8.587c-.732-11.133 2.117-22.455 8.562-32.073zm92.31-137.141-13.671 78h-23.696l13.671-78zm-20.191-20 3.505-20h23.696l-3.505 20zm3.015 118-12.823 73.166-20.162-20.162 9.29-53.004zm-46.472 81.945-8.601 32.097c-5.002-2.466-9.625-5.752-13.685-9.812-4.107-4.107-7.36-8.746-9.787-13.691zm19.319 5.176 23.497 23.497c-8.412 5.659-18.308 8.702-28.673 8.702-1.146 0-2.284-.051-3.418-.125zm144.173-155.121v48h-93.21l13.671-78h49.539c16.542 0 30 13.458 30 30zm-40-70v20h-36.034l3.505-20zm-57.601-108h23.695l-15.423 88h-23.695zm-39.232 108-3.505 20h-95.662v-20zm-139.167 70c0-16.542 13.458-30 30-30h102.156l-13.671 78h-118.485zm114.979 68-6.262 35.727-35.726-35.727zm-74.979 67.803c0-19.779 6.581-38.545 18.709-53.799l10.805 10.805c-13.341 17.706-17.368 40.236-12.081 60.862.043.214.081.429.138.643.072.269.156.532.248.789 3.192 11.459 9.267 22.277 18.261 31.271 13.509 13.508 31.468 20.947 50.57 20.947 15.727 0 30.672-5.053 43.003-14.372l10.792 10.792c-33.983 26.947-83.674 24.728-115.065-6.666-16.366-16.367-25.38-38.127-25.38-61.272zm30.849 158.197c-2.626 0-4.762-2.136-4.762-4.762v-42.791c0-2.625 2.136-4.761 4.762-4.761h42.791c2.625 0 4.761 2.136 4.761 4.761v42.791c0 2.625-2.136 4.762-4.761 4.762zm175.151 0h-108.064c.302-1.542.464-3.133.464-4.762v-42.791c0-1.589-.156-3.141-.444-4.648 18.704-1.978 36.981-8.877 52.709-20.695.66.843 1.371 1.66 2.147 2.436l28.638 28.638h.001c5.043 5.043 11.749 7.821 18.882 7.821s13.839-2.777 18.882-7.821l16.785-16.784v28.606c0 16.542-13.458 30-30 30z"/><path id="XMLID_1984_" d="m354 298c-2.63 0-5.21 1.07-7.07 2.93s-2.93 4.44-2.93 7.07 1.069 5.21 2.93 7.07 4.43 2.93 7.07 2.93c2.63 0 5.21-1.07 7.069-2.93 1.86-1.86 2.931-4.44 2.931-7.07s-1.07-5.21-2.931-7.07c-1.859-1.86-4.439-2.93-7.069-2.93z"/><path id="XMLID_1986_" d="m310 323.8c-2.63 0-5.21 1.07-7.07 2.93s-2.93 4.44-2.93 7.07c0 2.64 1.069 5.21 2.93 7.07 1.86 1.87 4.44 2.93 7.07 2.93s5.21-1.06 7.069-2.93c1.86-1.86 2.931-4.43 2.931-7.07 0-2.63-1.07-5.21-2.931-7.07-1.859-1.86-4.439-2.93-7.069-2.93z"/><path id="XMLID_1987_" d="m307.5 452c-2.63 0-5.21 1.07-7.07 2.93s-2.93 4.44-2.93 7.07 1.069 5.21 2.93 7.07 4.44 2.93 7.07 2.93 5.21-1.07 7.069-2.93c1.86-1.86 2.931-4.44 2.931-7.07s-1.07-5.21-2.931-7.07c-1.859-1.86-4.439-2.93-7.069-2.93z"/><path id="XMLID_1988_" d="m108 386c2.63 0 5.21-1.07 7.069-2.93 1.86-1.86 2.931-4.44 2.931-7.07s-1.07-5.21-2.931-7.07c-1.859-1.86-4.439-2.93-7.069-2.93s-5.21 1.07-7.07 2.93-2.93 4.44-2.93 7.07 1.069 5.21 2.93 7.07 4.44 2.93 7.07 2.93z"/></svg>